<svg width="1248" height="200" viewBox="0 0 1248 200" fill="none" xmlns="http://www.w3.org/2000/svg">
<g clip-path="url(#clip0_9_2)">
<rect width="1248" height="200" fill="black"/>
<path d="M74.6624 115.013C73.8456 114.881 72.3854 114.366 71.7192 113.975C70.9289 113.512 69.8713 112.405 69.4326 111.581C68.9173 110.613 68.655 109.413 68.6574 108.03C68.6643 103.661 71.529 101.016 76.2718 101C78.5392 100.993 80.587 101.687 81.8672 102.898C83.2688 104.224 83.8895 105.781 83.8895 107.973C83.8895 108.808 83.8142 109.623 83.6947 110.084C83.0923 112.409 81.4413 114.044 78.9602 114.774C78.0286 115.048 75.6797 115.179 74.6624 115.013ZM77.449 111.036C78.3766 110.566 78.9145 109.676 79.0212 108.434C79.1149 107.345 78.8288 106.368 78.2181 105.691C76.8458 104.169 74.88 104.489 73.8816 106.397C73.6064 106.923 73.5579 107.174 73.5571 108.069C73.5563 109.174 73.6757 109.541 74.3118 110.391C75.0157 111.331 76.3317 111.601 77.449 111.036ZM105.997 115.072C105.929 115.045 105.509 114.988 105.064 114.945C104.619 114.902 104.179 114.82 104.087 114.762C103.925 114.662 103.467 111.971 103.46 111.083L103.458 110.692L104.294 110.998C105.28 111.361 107.209 111.535 107.646 111.301C108.164 111.024 107.991 110.627 106.957 109.718C104.749 107.777 104.094 106.961 103.751 105.728C103.58 105.112 103.568 104.868 103.684 104.292C103.955 102.943 104.532 102.163 105.722 101.535C106.363 101.198 106.389 101.195 108.722 101.2C110.196 101.204 111.268 101.263 111.593 101.358C112.107 101.508 112.111 101.514 112.194 102.219C112.24 102.609 112.349 103.458 112.437 104.105C112.524 104.752 112.573 105.319 112.546 105.365C112.519 105.411 112.177 105.335 111.786 105.197C110.779 104.842 109.262 104.75 108.85 105.019C108.262 105.405 108.502 105.866 109.816 106.872C111.046 107.814 112.206 109.052 112.528 109.765C112.703 110.153 112.798 110.618 112.802 111.103C112.816 112.741 112.125 113.9 110.703 114.623L109.836 115.063L107.978 115.093C106.957 115.108 106.065 115.099 105.997 115.072ZM118.258 114.956C117.402 114.73 116.438 114.327 115.823 113.939C114.556 113.139 113.393 111.416 113.114 109.926C112.947 109.034 112.946 107.189 113.111 106.347C113.408 104.839 114.453 103.28 115.77 102.382C116.426 101.935 117.761 101.407 118.662 101.239C119.804 101.026 122.689 101.173 123.571 101.489C126.009 102.364 127.508 103.971 128.055 106.296C128.324 107.436 128.233 109.695 127.877 110.695C127.169 112.687 125.838 113.939 123.522 114.792C122.651 115.113 119.252 115.218 118.258 114.956ZM121.575 111.245C122.514 110.851 123.251 109.697 123.365 108.445C123.588 105.98 121.364 104.113 119.433 105.145C118.818 105.474 118.154 106.331 117.953 107.055C117.478 108.766 118.277 110.712 119.686 111.275C120.134 111.453 121.117 111.438 121.575 111.245ZM128.923 114.808C128.881 114.701 128.847 111.674 128.847 108.083C128.847 103.17 128.884 101.517 128.996 101.405C129.21 101.192 138.765 101.192 138.979 101.405C139.135 101.562 139.197 104.399 139.052 104.776C138.987 104.946 138.629 104.972 136.321 104.972H133.665L133.702 105.622L133.74 106.273L135.907 106.335L138.075 106.397L138.109 108.159L138.143 109.921L135.941 109.954L133.74 109.988L133.706 112.496L133.673 115.004H131.335C129.318 115.004 128.988 114.978 128.923 114.808ZM143.737 114.858C143.623 114.744 143.586 113.508 143.586 109.843V104.979L141.759 104.945L139.932 104.91L139.898 103.149C139.864 101.401 139.866 101.386 140.149 101.315C140.305 101.276 143.275 101.261 146.747 101.282C152.252 101.315 153.129 101.346 153.594 101.524C154.928 102.034 155.739 103.008 155.974 104.381C156.238 105.926 156.479 107.404 156.605 108.254C156.839 109.834 156.846 109.822 157.278 107.016C157.665 104.511 157.815 103.526 157.958 102.557C158.042 101.986 158.182 101.505 158.287 101.421C158.498 101.253 162.624 101.194 162.873 101.355C162.957 101.41 163.112 101.897 163.218 102.439C163.324 102.981 163.463 103.647 163.526 103.92C163.59 104.192 163.847 105.502 164.098 106.83C164.349 108.158 164.59 109.287 164.634 109.337C164.678 109.388 164.813 108.747 164.934 107.913C165.055 107.079 165.203 106.118 165.263 105.777C165.322 105.437 165.494 104.35 165.644 103.362C165.794 102.375 165.959 101.511 166.011 101.442C166.084 101.347 169.027 101.293 169.888 101.371C169.947 101.376 169.959 101.506 169.915 101.659C169.792 102.09 168.902 106.288 168.031 110.546C167.55 112.894 166.986 113.886 165.738 114.573C165.129 114.908 164.953 114.942 163.608 114.985C162.771 115.011 162.09 114.98 162.022 114.912C161.9 114.79 161.717 113.94 161.045 110.36C160.828 109.202 160.627 108.175 160.598 108.079C160.487 107.708 160.338 108.18 160.13 109.555C159.743 112.122 159.292 114.817 159.234 114.911C159.144 115.058 154.388 115.025 154.297 114.877C154.254 114.807 153.947 113.4 153.616 111.75C152.715 107.263 152.283 105.24 152.195 105.099C152.148 105.022 151.414 104.972 150.33 104.972H148.543L148.511 109.957L148.478 114.942L146.183 114.976C144.503 115 143.848 114.969 143.737 114.858ZM167.185 114.888C167.145 114.825 167.287 114.393 167.501 113.929C168.223 112.355 170.92 106.036 171.826 103.796C172.322 102.57 172.814 101.497 172.919 101.411C173.058 101.299 173.821 101.257 175.74 101.257C178.633 101.257 178.638 101.258 178.869 102.035C178.935 102.254 179.106 102.74 179.251 103.114C179.395 103.489 179.646 104.158 179.809 104.601C180.146 105.52 181.295 108.486 182.232 110.855C182.582 111.741 182.898 112.563 182.934 112.682C183.161 113.431 183.219 112.305 183.219 107.153C183.219 102.028 183.24 101.399 183.414 101.332C183.522 101.29 185.347 101.257 187.471 101.259C192.362 101.261 193.065 101.385 194.239 102.446C194.87 103.016 195.197 103.671 195.362 104.692C195.619 106.292 195.229 107.467 194.1 108.489C193.701 108.85 193.374 109.228 193.374 109.33C193.374 109.514 194.003 111.386 194.469 112.589L195.026 114.03C195.2 114.482 195.309 114.886 195.267 114.928C195.225 114.97 194.112 115.004 192.794 115.004C190.426 115.004 190.395 115.001 190.276 114.726C190.097 114.311 188.297 107.684 188.297 107.439C188.297 107.264 188.451 107.221 189.217 107.182C190.378 107.124 190.773 106.83 190.773 106.027C190.773 105.095 190.231 104.798 188.668 104.872L187.863 104.91L187.831 109.957L187.798 115.004H183.348C179.943 115.004 178.875 114.968 178.798 114.851C178.743 114.766 178.473 114.055 178.197 113.271L177.696 111.846L175.644 111.812C174.099 111.787 173.562 111.817 173.465 111.936C173.394 112.023 173.157 112.623 172.937 113.27C172.292 115.171 172.602 115.004 169.723 115.004C168.327 115.004 167.225 114.954 167.185 114.888ZM176.654 108.235C176.654 108.116 175.78 105.433 175.699 105.3C175.66 105.238 175.419 105.794 175.164 106.535C174.908 107.276 174.659 107.98 174.61 108.1C174.531 108.296 174.622 108.316 175.588 108.316C176.175 108.316 176.654 108.28 176.654 108.235ZM196.182 114.922C196.136 114.876 196.099 111.817 196.099 108.123C196.099 102.113 196.12 101.399 196.295 101.332C196.403 101.29 198.788 101.257 201.596 101.257C205.401 101.257 206.739 101.294 206.849 101.405C207.018 101.574 207.06 104.559 206.897 104.815C206.826 104.927 206.03 104.976 203.896 105.001L200.991 105.034V106.273L203.437 106.306L205.883 106.34V109.921L203.437 109.955L200.991 109.988V111.227L203.896 111.26C206.03 111.284 206.826 111.334 206.897 111.446C207.011 111.625 207.033 114.521 206.923 114.808C206.856 114.983 206.267 115.004 201.556 115.004C198.646 115.004 196.227 114.967 196.182 114.922ZM45.0823 114.798C45.0372 114.753 45 111.687 45 107.986V101.257H50.0695C54.79 101.257 55.1438 101.272 55.2048 101.474C55.2542 101.636 55.2263 103.748 55.1615 104.753C55.1584 104.803 53.9713 104.859 52.5238 104.877L49.8919 104.911L49.8545 105.561L49.8171 106.211H51.9776C53.8338 106.211 54.1491 106.239 54.2136 106.407C54.255 106.515 54.2887 107.263 54.2887 108.07C54.2887 110.051 54.4145 109.954 51.8864 109.913L49.8919 109.881L49.8585 112.381L49.8248 114.881H47.4949C46.2134 114.881 45.1274 114.843 45.0823 114.798ZM56.023 108.068V101.257L60.3887 101.258C65.5765 101.26 65.9433 101.325 67.0935 102.444C68.2766 103.594 68.5717 105.936 67.719 107.407C67.5547 107.69 67.1099 108.194 66.7304 108.527L66.0404 109.132L66.5295 110.551C67.1418 112.327 67.5078 113.31 67.8047 113.976C68.2278 114.924 68.3345 114.881 65.5678 114.881C63.3244 114.881 63.093 114.861 63.033 114.664C62.9967 114.545 62.6912 113.444 62.3544 112.218C62.0176 110.992 61.5699 109.38 61.3597 108.636C61.1493 107.893 60.9993 107.262 61.0264 107.235C61.0535 107.208 61.4362 107.173 61.8767 107.157C63.1538 107.111 63.7382 106.559 63.5062 105.62C63.3414 104.953 62.8061 104.71 61.5962 104.753L60.6673 104.787L60.6349 109.834L60.6026 114.881H56.023V108.068ZM84.7152 114.798C84.67 114.753 84.6329 111.687 84.6329 107.986V101.257H90.9378L91.0163 101.721C91.0596 101.977 91.1702 102.604 91.2623 103.115C91.3544 103.626 91.5192 104.545 91.6286 105.158C91.8027 106.137 91.9107 106.697 92.1349 107.79C92.2042 108.128 92.4351 108.162 92.4351 107.835C92.4351 107.706 92.5734 106.884 92.7424 106.008C92.9115 105.132 93.1811 103.718 93.3417 102.867L93.6336 101.319H99.9281V114.818H95.9648L95.9029 110.731L95.8411 106.644L95.3634 108.997C95.1007 110.292 94.7435 112.075 94.5699 112.961C94.3963 113.846 94.1991 114.642 94.132 114.729C94.0402 114.847 93.5312 114.878 92.0845 114.852L90.1591 114.818L90.0113 114.199C89.9301 113.858 89.6021 112.214 89.2823 110.546C88.425 106.071 88.4022 106.07 88.4542 110.496C88.4784 112.568 88.4635 114.401 88.4208 114.571L88.3433 114.881H86.5705C85.5955 114.881 84.7608 114.843 84.7152 114.798Z" fill="white"/>
<g clip-path="url(#clip1_9_2)">
<path d="M324.6 78.1037C335.964 77.9502 346.352 81.0836 353.945 86.2635C361.736 91.58 366.622 99.0594 366.735 107.429C366.848 115.797 362.166 123.41 354.519 128.939C347.07 134.325 336.769 137.742 325.4 137.896C314.037 138.049 303.65 134.912 296.059 129.728C288.265 124.407 283.378 116.921 283.264 108.549C283.152 100.186 287.836 92.5798 295.484 87.0532C302.934 81.6703 313.235 78.2568 324.6 78.1037Z" fill="#2360A5"/>
<path fill-rule="evenodd" clip-rule="evenodd" d="M324.623 80.0454C339.177 79.8491 352.016 85.2052 359.066 93.3329L361.175 93.2455C362.011 94.2061 362.914 95.3349 363.309 96.4065L361.385 96.4324C363.526 99.7996 364.741 103.525 364.795 107.453C364.85 111.63 363.587 115.617 361.279 119.215L363.071 119.323C362.348 120.558 361.957 121.26 360.958 122.394L359.081 122.166C352.171 130.248 339.674 135.762 325.379 135.955C303.453 136.251 285.414 123.924 285.206 108.527C284.998 93.1286 302.698 80.3412 324.623 80.0454ZM353.103 121.444L348.1 120.839L294.266 117.46C287.416 117.019 322.053 146.393 353.103 121.444ZM294.915 96.9973L352.852 93.428C323.077 70.6662 290.997 97.2261 294.915 96.9973Z" fill="#F6D43C"/>
<path fill-rule="evenodd" clip-rule="evenodd" d="M363.581 96.3771C365.678 99.0389 366.696 103.711 366.577 108.312C366.466 112.635 365.337 116.894 363.532 119.365L360.203 119.188C360.996 117.153 361.486 114.838 361.723 112.822L355.741 112.976C355.314 114.855 354.69 116.683 353.879 118.431L348.546 118.066C349.813 114.339 350.382 110.88 350.518 107.168C350.613 104.799 350.329 102.392 349.862 100.003L349.606 98.7721C349.449 98.0618 349.28 97.3533 349.102 96.6492H349.164L349.16 96.6301L363.581 96.3771ZM356.388 107.521L361.793 107.427C361.607 105.277 361.182 103.129 360.58 100.981L355.752 101.059C356.204 103.243 356.421 105.398 356.388 107.521ZM294.457 105.308L298.002 105.261C298.269 103.519 298.841 101.756 299.718 99.9517L304.42 99.6769C301.888 104.732 301.654 109.8 304.145 115.014L299.784 115.027C298.905 113.33 298.325 111.651 298.038 109.971L294.373 110.021C294.577 111.544 295.013 113.038 295.684 114.521L291.82 114.664C289.304 109.703 289.489 105.071 291.902 100.361L295.999 100.155C295.24 101.938 294.726 103.649 294.457 105.308ZM322.094 98.6851L326.995 97.9253C328.129 102 328.208 108.194 327.715 113.163L331.995 113.37C332.231 114.569 332.071 115.921 331.62 117.13L322.351 116.316L322.367 116.253L322.112 116.234C323.182 110.958 323.166 103.661 322.094 98.6851ZM334.414 97.9052L339.421 97.4456C340.913 101.541 341.109 108.499 340.426 113.763L345.598 113.799C346.35 114.434 345.743 116.349 345.074 117.723L339.734 117.402V117.403L335.003 117.135C336.679 111.866 336.113 102.873 334.414 97.9052ZM310.69 111.789C313.404 111.864 318.92 112.066 318.831 112.251L318.493 115.821L318.409 115.719L308.099 115.213C308.099 115.213 308.4 115.194 308.705 115.173L307.913 115.13C305.08 110.102 305.43 104.414 308.18 99.2053L311.521 99.0697C311.519 99.0768 311.517 99.084 311.515 99.0911L318.678 98.7614L319.149 102.055L310.772 102.554C310.602 103.611 310.486 104.676 310.424 105.746L318.751 105.633H318.772L318.816 108.949L318.795 108.95L310.416 109.063C310.465 109.973 310.556 110.882 310.69 111.789Z" fill="#2360A5"/>
</g>
<path d="M765.92 95.3662H762.357V100.119H759.184V103.165H762.357V121.807H765.92V103.165H770.094V100.119H765.92V95.3662ZM793.413 121.807H796.976V94H793.413V121.807ZM800.624 121.807H804.186V94H800.628L800.624 121.807ZM838.463 106.224L849.862 94H845.337L833.558 106.594V94H830.072V121.835H833.558V111.086L836.006 108.62L846.969 121.831H851.76L838.463 106.224ZM895.818 100.086C893.332 100.086 891.331 101.144 889.794 103.241V100.205H886.231V121.807H889.794V111.784C889.794 109.27 889.893 107.088 890.339 105.821C890.927 104.142 892.54 103.407 895.016 103.426C896.881 103.44 898.133 104.061 898.764 105.356C899.196 106.262 899.418 107.766 899.418 109.891V121.807H903V109.27C903 103.155 900.6 100.086 895.818 100.086ZM884.618 101.419C882.617 100.157 881.298 100.091 880.805 100.091C879.776 100.052 878.765 100.367 877.939 100.983C877.403 101.367 876.858 101.983 876.108 102.98V100.2H872.551V121.807H876.108V111.238C876.052 106.722 877.052 103.667 879.937 103.52C880.529 103.487 881.388 103.658 882.493 104.374L884.618 101.419ZM815.329 107.439L815.281 107.382C814.423 106.395 813.939 105.664 813.65 104.958C813.471 104.51 813.394 104.029 813.422 103.549C813.424 103.265 813.487 102.985 813.607 102.728C813.728 102.47 813.902 102.242 814.119 102.059C814.597 101.66 815.204 101.449 815.827 101.466C816.538 101.466 817.127 101.685 817.629 102.131C817.86 102.319 818.045 102.557 818.172 102.826C818.299 103.095 818.365 103.389 818.365 103.686C818.365 104.275 818.113 104.825 817.767 105.299C817.435 105.75 816.856 106.248 816.026 106.893L815.391 107.391L815.329 107.439ZM815.182 120.014C813.797 120.014 812.81 119.649 811.89 118.795C811.433 118.395 811.066 117.904 810.812 117.353C810.558 116.802 810.422 116.204 810.414 115.598C810.414 114.801 810.709 114.127 811.306 113.449C811.795 112.894 812.748 112.168 813.858 111.347L814.926 110.55L814.992 110.503L820.272 117.016L820.205 117.068C819.873 117.329 819.536 117.623 819.2 117.903C818.592 118.42 817.966 118.947 817.421 119.307C816.75 119.738 815.978 119.979 815.182 120.014ZM815.917 99.4219C814.494 99.4219 813.308 99.8488 812.393 100.703C811.949 101.11 811.597 101.608 811.362 102.163C811.128 102.718 811.015 103.317 811.031 103.919C811.031 104.564 811.268 105.342 811.738 106.224C812.16 107.064 812.962 108.051 813.555 108.724L813.616 108.791L813.545 108.843L812.53 109.63C810.936 110.863 809.551 111.931 808.925 112.889C808.407 113.7 808.138 114.645 808.152 115.607C808.152 117.542 808.754 119.132 809.94 120.327C811.207 121.593 812.739 122.096 814.608 122.21C815.955 122.286 817.283 121.973 818.45 121.247C819.005 120.901 819.574 120.46 820.447 119.724L821.59 118.781L821.657 118.733L824.104 121.745H827.031L823.393 117.376L826.405 114.692L825.039 112.97L822.003 115.673L821.956 115.602L816.742 109.179L816.809 109.132L817.601 108.506C818.578 107.742 819.285 107.187 819.736 106.589C820.354 105.8 820.688 104.826 820.684 103.824C820.684 102.719 820.381 101.68 819.608 100.883C819.125 100.399 818.549 100.02 817.914 99.7689C817.279 99.5176 816.599 99.3995 815.917 99.4219ZM773.917 108.753C774.124 107.219 774.899 105.818 776.09 104.83C777.352 103.753 778.746 103.217 780.293 103.217C781.834 103.217 783.186 103.748 784.344 104.801C785.506 105.878 786.203 107.192 786.431 108.753H773.917ZM786.474 115.327C784.937 117.685 782.978 118.861 780.592 118.861C778.613 118.861 776.972 118.183 775.696 116.812C774.425 115.457 773.723 113.665 773.737 111.807H790.183C790.359 108.511 789.59 105.736 787.859 103.492C786.023 101.082 783.471 99.8773 780.245 99.8773C777.1 99.8773 774.586 101.011 772.703 103.259C770.957 105.366 770.089 108.036 770.089 111.314C770.089 114.388 771.019 116.983 772.916 119.07C774.8 121.157 777.271 122.182 780.331 122.182C784.434 122.182 787.555 120.422 789.657 116.869L786.474 115.327Z" fill="white"/>
<path d="M853.411 108.753C853.618 107.218 854.395 105.817 855.588 104.83C856.85 103.753 858.235 103.217 859.786 103.217C861.328 103.217 862.679 103.748 863.837 104.801C864.999 105.878 865.696 107.192 865.924 108.753H853.411ZM865.967 115.327C864.425 117.685 862.471 118.861 860.085 118.861C858.107 118.861 856.465 118.183 855.189 116.812C853.918 115.457 853.217 113.665 853.23 111.807H869.676C869.852 108.511 869.079 105.736 867.352 103.492C865.516 101.082 862.964 99.8773 859.738 99.8773C856.593 99.8773 854.079 101.011 852.196 103.259C850.446 105.366 849.582 108.036 849.582 111.314C849.582 114.388 850.517 116.983 852.405 119.07C854.293 121.157 856.764 122.182 859.824 122.182C863.927 122.182 867.044 120.422 869.15 116.869L865.967 115.327ZM735.2 109.426L726.235 114.445L724.807 115.545L731.012 101.561L731.372 100.385L731.742 101.571L735.2 109.426ZM730.495 94.0664L718 122.148H718.712L736.595 112.538L740.342 121.835H744.659L732.269 94.0664H730.495ZM755.735 110.256C754.352 109.535 752.944 108.863 751.513 108.24C749.801 107.486 748.938 106.708 748.938 105.655C748.938 105 749.213 104.317 749.754 103.871C750.254 103.438 750.894 103.199 751.556 103.198C752.846 103.198 753.805 103.909 754.545 105.664L757.566 104.094C756.831 102.776 756.191 101.751 755.27 101.039C754.284 100.281 753.076 99.8681 751.831 99.8631C750.076 99.8631 748.596 100.432 747.358 101.552C746.76 102.091 746.287 102.753 745.969 103.492C745.651 104.231 745.497 105.031 745.518 105.835C745.518 107.742 746.869 109.554 748.15 110.285C749.725 111.21 751.063 111.741 752.59 112.453C754.251 113.273 755.422 114.151 755.185 115.821C755.086 116.676 754.667 117.462 754.013 118.022C753.368 118.629 752.642 118.842 751.642 118.842C749.782 118.842 748.34 117.718 747.315 115.469L744.118 116.821C744.744 118.463 745.641 119.81 746.955 120.749C748.283 121.698 749.834 122.158 751.599 122.158C753.582 122.158 755.275 121.508 756.674 120.213C758.079 118.909 758.657 117.538 758.762 115.564C758.866 113.767 758.254 111.641 755.735 110.256Z" fill="white"/>
<g clip-path="url(#clip2_9_2)">
<path fill-rule="evenodd" clip-rule="evenodd" d="M621.496 91.9061C622.878 91.5118 623.074 91.9061 624.26 91.5118V86.7721C613.992 85.1929 614.584 90.9193 614.584 90.9193L614.388 94.4741L611.624 94.6712V99.608L614.388 99.4109C614.388 99.4109 614.584 118.171 614.584 118.961H621.3C621.102 114.42 621.3 99.4109 621.3 99.4109H624.656V94.8694H621.101C621.101 94.8684 621.496 93.2881 621.496 91.9061ZM628.013 87.957V94.4741L625.247 94.6712V99.608L628.013 99.4109C628.013 99.4109 628.209 118.171 628.209 118.961H634.924C634.727 114.42 634.924 99.4109 634.924 99.4109H638.281L638.083 94.8694H634.727V87.9581L628.013 87.957ZM603.328 107.309C603.328 107.309 603.92 110.468 603.524 112.246C602.933 115.207 601.155 114.418 600.365 114.219C599.969 114.219 597.996 113.628 598.983 110.269C599.577 108.099 602.539 107.901 603.328 107.309ZM603.328 101.78C602.737 103.754 596.219 104.741 594.638 106.124C590.295 109.679 591.874 115.01 592.466 115.998C593.85 118.764 596.614 119.157 598.983 119.355C600.76 118.764 601.354 119.157 604.118 116.591C604.513 118.169 604.314 118.565 604.513 118.565C605.697 118.96 610.832 119.156 611.028 118.369C611.226 116.591 610.832 101.977 610.437 100.2C610.24 95.0655 606.29 94.0788 601.945 93.8806C597.205 93.6834 591.873 95.2626 592.071 101.384H598.982C598.982 98.4231 602.735 97.04 603.523 100.989C603.564 101.224 603.457 101.534 603.328 101.78ZM586.346 118.369V102.569C586.937 101.582 587.924 101.186 591.283 101.384C591.283 99.0145 591.283 96.2504 591.085 94.0777C589.307 93.2881 586.543 95.6569 585.952 97.8296C585.754 97.2372 585.754 94.6702 585.754 94.6702H579.435L579.633 118.565L586.346 118.369ZM571.93 108.888C571.93 109.875 572.325 110.666 571.734 111.652C571.734 115.602 567.784 115.01 567.784 111.85C567.586 110.27 567.98 100.199 567.586 100.199C567.784 98.4221 570.747 98.0268 571.536 100.002C571.34 100.002 571.931 103.359 571.931 103.359C571.931 103.359 575.684 103.359 578.25 103.162C578.25 101.583 578.448 101.78 577.857 98.8174C576.474 94.473 572.524 93.6824 569.562 93.6824C566.6 93.6824 561.071 94.0777 560.676 100.397C560.676 103.754 560.478 109.678 560.676 113.036C561.862 119.355 566.995 118.764 570.155 118.96C576.08 119.156 579.04 116.196 578.449 108.692L571.93 108.888ZM555.144 118.17C555.144 118.17 555.144 105.73 555.342 102.372C555.737 101.187 556.92 100.989 560.082 101.187C560.278 98.8174 560.082 95.8551 560.082 93.6835C558.304 93.092 555.342 95.2626 554.75 97.6335C554.75 97.0411 554.551 94.2769 554.551 94.2769L548.43 94.4741V118.37L555.144 118.17ZM539.742 109.876C539.15 110.074 540.73 113.826 537.372 114.221C535.989 113.431 535.792 114.42 535.2 111.653C535.002 110.075 535.2 108.889 535.2 107.31V102.57C535.2 102.57 535.594 99.8052 535.2 100.003C535.397 98.0288 538.754 97.2382 539.741 99.8062C539.544 99.8062 539.741 102.571 539.741 102.571H535.2V107.31C534.804 107.31 544.679 108.1 546.257 107.114C547.641 106.323 546.652 101.585 546.257 98.6223C544.875 94.278 540.333 93.6855 537.174 93.6855C534.213 93.6855 528.881 93.8827 528.288 100.203C527.499 103.164 528.09 110.076 528.288 112.84C528.881 117.777 534.607 118.962 537.174 118.962C537.174 118.962 547.247 119.753 546.456 110.272L539.742 109.876ZM502.813 117.775V100.398C503.011 97.4353 506.368 98.0278 506.368 100.398C506.565 104.939 506.565 116.788 506.565 117.775L513.478 117.579C513.675 113.431 513.872 98.0288 512.885 96.2515C510.713 92.4996 505.183 91.9061 502.419 96.4486C502.222 95.2627 502.222 94.8684 502.025 93.8806C499.063 93.8806 498.866 93.8806 495.706 94.0777V117.578L502.813 117.775ZM485.238 85.5872C485.041 91.5108 485.041 116.196 485.041 117.775H492.545C492.742 110.074 492.149 93.091 492.545 85.7843L485.238 85.5872Z" fill="white"/>
<path fill-rule="evenodd" clip-rule="evenodd" d="M517.427 86.9693C517.229 88.3513 517.229 93.4853 517.229 93.4853H514.464V98.4231H517.229C517.229 98.4231 517.624 116.984 517.624 117.973H524.141V98.4231H527.499V93.6835H524.141C524.141 93.6835 523.944 88.5495 523.944 86.7721L517.427 86.9693Z" fill="white"/>
<path fill-rule="evenodd" clip-rule="evenodd" d="M631.37 126.069C631.37 123.897 633.147 122.317 635.32 122.317C637.295 122.317 639.073 123.897 639.073 126.069C639.073 128.438 637.295 130.02 635.32 130.02C633.147 130.02 631.37 128.438 631.37 126.069ZM635.32 130.809C637.888 130.809 640.06 128.834 640.06 126.069C640.06 123.501 637.887 121.528 635.32 121.528C632.753 121.528 630.58 123.501 630.58 126.069C630.579 128.834 632.752 130.809 635.32 130.809ZM634.332 126.465H635.123L636.701 128.834H637.492L636.109 126.465C636.9 126.267 637.492 125.873 637.492 124.885C637.492 123.898 636.701 123.502 635.516 123.502H633.543V128.835H634.333V126.465H634.332ZM634.332 125.873V124.096H635.319C635.91 124.096 636.505 124.292 636.505 124.885C636.505 125.675 635.911 125.873 635.319 125.873H634.332Z" fill="white"/>
<path fill-rule="evenodd" clip-rule="evenodd" d="M485.24 121.245H494.157V122.079H490.116V129.516H489.258V122.079H485.24V121.245ZM495.23 129.516V121.245H496.088V124.821H503.431V121.245H504.289V129.516H503.431V125.678H496.088V129.516H495.23ZM505.623 129.516V121.245H512.954V122.079H506.482V124.821H512.787V125.654H506.482V128.683H512.954V129.516H505.623ZM518.211 129.516V121.245H525.542V122.079H519.069V124.821H525.375V125.654H519.069V129.516H518.211ZM527.914 122.091V125.285H533.278C533.85 125.285 534.278 125.153 534.565 124.892C534.882 124.598 535.042 124.126 535.042 123.473C535.046 123.284 535.007 123.095 534.927 122.923C534.848 122.75 534.73 122.598 534.582 122.478C534.277 122.221 533.862 122.091 533.337 122.091H527.914ZM527.914 126.12V129.529H527.056V121.256H533.015C534.017 121.256 534.761 121.479 535.244 121.925C535.682 122.323 535.9 122.89 535.9 123.63C535.9 124.185 535.776 124.631 535.529 124.963C535.372 125.186 535.104 125.405 534.731 125.62C535.025 125.683 535.264 125.869 535.445 126.184C535.66 126.541 535.768 127.011 535.768 127.592V129.529H534.91V127.496C534.91 126.994 534.806 126.639 534.6 126.433C534.393 126.224 534.063 126.12 533.611 126.12H527.914ZM537.593 129.516H536.64L540.931 121.244H542.243L546.533 129.516H545.532L544.472 127.443H538.655L537.593 129.516ZM539.12 126.608H544.03L541.574 121.839L539.12 126.608ZM559.361 121.245H557.523L553.352 128.3L549.156 121.245H547.32V129.516H548.179V121.913H548.667L553.126 129.516H553.567L558.023 121.913H558.502V129.516H559.361V121.245ZM560.789 129.516V121.245H568.12V122.079H561.65V124.821H567.954V125.654H561.65V128.683H568.12V129.516H560.789ZM573.403 129.506V121.244H578.98C580.014 121.244 580.756 121.439 581.209 121.829C581.663 122.218 581.888 122.873 581.888 123.795C581.888 124.693 581.671 125.301 581.239 125.619C580.805 125.938 580.055 126.095 578.992 126.095H574.259V129.506H573.403ZM574.26 125.261H579.242C579.943 125.261 580.407 125.174 580.638 125C580.9 124.802 581.032 124.4 581.032 123.796C581.032 123.168 580.902 122.726 580.645 122.467C580.385 122.21 579.947 122.08 579.327 122.08H574.26V125.261ZM583.08 129.516V121.245H590.411V122.079H583.939V124.821H590.243V125.654H583.939V128.683H590.411V129.516H583.08ZM600.603 124.035C600.603 123.216 600.457 122.669 600.168 122.395C599.878 122.119 599.313 121.985 598.469 121.985H594.846C594.044 121.985 593.474 122.131 593.141 122.42C592.807 122.71 592.641 123.247 592.641 124.036V126.681C592.641 127.469 592.799 127.998 593.117 128.273C593.436 128.547 594.011 128.684 594.846 128.684H598.469C599.337 128.684 599.908 128.552 600.185 128.291C600.463 128.027 600.602 127.492 600.602 126.68V124.035H600.603ZM601.463 126.68C601.463 127.825 601.239 128.591 600.793 128.982C600.388 129.339 599.618 129.517 598.481 129.517H594.857C593.728 129.517 592.934 129.311 592.474 128.893C592.012 128.476 591.781 127.738 591.781 126.68V124.106C591.781 123.032 592.006 122.272 592.455 121.823C592.904 121.374 593.704 121.15 594.856 121.15H598.48C599.545 121.15 600.291 121.341 600.721 121.724C601.214 122.16 601.46 122.955 601.46 124.107V126.68H601.463ZM602.773 129.506V121.244H608.35C609.383 121.244 610.127 121.439 610.579 121.829C611.033 122.218 611.259 122.873 611.259 123.795C611.259 124.693 611.043 125.301 610.609 125.619C610.175 125.938 609.427 126.095 608.361 126.095H603.629V129.506H602.773ZM603.63 125.261H608.614C609.313 125.261 609.777 125.174 610.008 125C610.27 124.802 610.401 124.4 610.401 123.796C610.401 123.168 610.272 122.726 610.014 122.467C609.757 122.21 609.317 122.08 608.697 122.08H603.63V125.261ZM612.547 129.516V121.245H613.404V128.683H619.638V129.516H612.547ZM620.986 129.516V121.245H628.317V122.079H621.845V124.821H628.149V125.654H621.845V128.683H628.317V129.516H620.986Z" fill="white"/>
</g>
<g clip-path="url(#clip3_9_2)">
<path fill-rule="evenodd" clip-rule="evenodd" d="M1169.49 116.656C1167.69 117.407 1165.82 117.724 1163.73 117.763H1146.77V101.856H1165.4C1168.52 101.972 1171.66 103.225 1173.2 105.99C1174.41 107.92 1174.4 110.849 1173.48 112.898C1172.55 114.528 1171.21 115.95 1169.49 116.656ZM1167 108.615C1166.5 107.442 1165.4 106.775 1163.78 106.775H1153.16V112.687H1164.41C1166.87 112.374 1167.54 110.081 1167 108.615ZM1136.83 117.763C1133.78 115.035 1130.66 112.341 1127.69 109.446C1130.55 109.444 1132.49 109.444 1135.26 109.444C1136.05 109.444 1136.57 108.839 1136.78 108.38C1136.9 107.877 1136.86 107.25 1136.49 106.872L1135.82 106.41H1124.8V117.764C1122.27 117.798 1120.43 117.769 1118.05 117.764V101.856H1136.78C1139.61 102.117 1141.44 102.821 1142.39 104.624C1143.19 106.216 1143.05 108.519 1141.92 109.897C1141.25 110.858 1140.33 111.318 1139.4 111.818C1141.53 113.874 1143.71 115.791 1145.88 117.764L1136.83 117.763ZM1112.69 116.529C1110.59 117.694 1108 117.774 1105.49 117.767L1094.1 117.785C1090.92 117.651 1087.66 116.387 1086.16 113.454C1084.78 110.981 1085.09 107.299 1086.93 105.168C1089.24 102.243 1092.62 101.856 1096.6 101.856H1107.22C1109.36 102.01 1111.3 102.306 1113.1 103.26C1115.94 104.899 1117.19 107.873 1116.72 111.053C1116.34 113.354 1114.79 115.444 1112.69 116.529ZM1109.15 108.012C1108.63 107.362 1107.88 106.928 1107.06 106.793L1095.05 106.818C1094.25 106.942 1093.5 107.15 1093 107.776C1092.24 108.612 1091.98 109.908 1092.4 110.998C1092.82 112.003 1093.86 112.675 1094.99 112.72L1106.63 112.695C1107.51 112.614 1108.26 112.322 1108.89 111.653C1109.73 110.776 1109.82 109.018 1109.15 108.012Z" fill="white"/>
<path fill-rule="evenodd" clip-rule="evenodd" d="M1084.98 106.775L1067.96 106.799C1066.88 106.922 1065.91 107.422 1065.37 108.467C1064.99 109.094 1064.94 109.972 1065.07 110.685C1065.32 111.48 1065.94 112.151 1066.65 112.53C1067.91 112.995 1069.33 112.87 1070.76 112.832L1084.46 112.792H1084.98V117.762L1067.35 117.805C1063.92 117.547 1060.24 116.534 1058.74 113.056C1057.49 110.667 1058 107.237 1059.68 105.231C1061.74 102.724 1064.78 102.059 1067.92 101.856H1084.98V106.775ZM1053.42 116.393C1051.41 117.478 1049.04 117.763 1046.61 117.763H1035.52C1033.46 117.644 1031.71 117.412 1029.89 116.676C1027.63 115.582 1025.97 113.484 1025.59 111.014C1025.18 108.125 1026.44 105.49 1028.71 103.864C1031.25 102.118 1034.34 101.807 1037.56 101.806C1040.19 101.805 1042.56 101.856 1045.46 101.809C1049.77 101.737 1054.2 102.415 1056.37 106.396C1057.62 108.701 1057.36 112.133 1055.81 114.222C1055.22 115.142 1054.26 115.85 1053.42 116.393ZM1050.04 110.61C1050.29 109.814 1050.13 108.894 1049.75 108.223C1049.38 107.553 1048.56 106.972 1047.85 106.845L1035.44 106.85C1034.61 106.933 1033.77 107.306 1033.3 108.017C1032.72 108.769 1032.42 109.857 1032.8 110.82C1033.13 111.951 1034.27 112.638 1035.36 112.808H1046.98L1048.49 112.49C1049.2 112.073 1049.87 111.404 1050.04 110.61Z" fill="white"/>
<path fill-rule="evenodd" clip-rule="evenodd" d="M1030.72 124.146L987.265 124.195L988.313 123.318L1004.83 110.548C1005.87 109.756 1007.02 109.023 1008.01 108.187H990.015V107.192H1021.7C1017.12 110.75 1012.65 114.289 1008.25 117.671L1008.12 117.762H1030.72L1030.72 124.146ZM990.015 102.851C990.015 102.641 989.972 102.149 990.015 101.856H1028.64L1027.37 102.855L990.015 102.851ZM990.015 104.576V103.687H1026.26L1025.1 104.576H990.015ZM1022.79 106.356H990.015V105.414H1024.01C1023.47 105.79 1023.24 106.01 1022.79 106.356Z" fill="white"/>
<path fill-rule="evenodd" clip-rule="evenodd" d="M1039.36 123.853C1039.17 123.671 1039 123.459 1038.88 123.224C1038.73 122.898 1038.65 122.5 1038.65 122C1038.66 121.487 1038.75 121.091 1038.9 120.774C1039.02 120.515 1039.18 120.328 1039.36 120.153L1039.49 120.312C1039.35 120.49 1039.25 120.69 1039.17 120.904C1039.07 121.204 1039.03 121.563 1039.03 122.002C1039.03 122.339 1039.05 122.71 1039.17 123.1C1039.24 123.315 1039.35 123.502 1039.49 123.694L1039.36 123.853ZM1047.26 120.878C1047.17 120.719 1046.99 120.554 1046.6 120.554C1046.39 120.554 1046.19 120.603 1046.07 120.686C1046.02 120.716 1045.98 120.76 1045.95 120.812C1045.92 120.863 1045.9 120.922 1045.9 120.981C1045.9 121.131 1045.99 121.249 1046.13 121.321C1046.26 121.398 1046.41 121.451 1046.79 121.572C1047.15 121.693 1047.33 121.759 1047.48 121.864C1047.56 121.921 1047.63 121.998 1047.68 122.087C1047.72 122.175 1047.75 122.274 1047.75 122.375C1047.75 122.482 1047.72 122.586 1047.67 122.681C1047.62 122.775 1047.55 122.856 1047.46 122.917C1047.2 123.102 1046.89 123.197 1046.58 123.188C1045.92 123.188 1045.58 122.953 1045.45 122.643L1045.82 122.6C1045.93 122.783 1046.17 122.953 1046.58 122.953C1046.8 122.959 1047.01 122.894 1047.18 122.768C1047.23 122.727 1047.28 122.674 1047.31 122.614C1047.34 122.553 1047.36 122.486 1047.36 122.417C1047.36 122.344 1047.34 122.271 1047.3 122.208C1047.27 122.144 1047.21 122.092 1047.15 122.056C1047.03 121.986 1046.88 121.935 1046.5 121.803C1046.09 121.671 1045.93 121.602 1045.8 121.509C1045.72 121.455 1045.64 121.38 1045.59 121.291C1045.55 121.202 1045.52 121.102 1045.52 121C1045.52 120.821 1045.6 120.649 1045.79 120.527C1045.97 120.397 1046.24 120.321 1046.61 120.321C1047.21 120.321 1047.52 120.547 1047.63 120.846L1047.26 120.878ZM1054.14 123.134V120.376H1054.52V123.134H1054.14ZM1062.63 122.772C1062.78 122.315 1063.09 121.558 1063.56 120.377H1064.14V123.134H1063.79C1063.79 121.911 1063.79 121.085 1063.81 120.643H1063.79C1063.47 121.477 1063.14 122.308 1062.8 123.134H1062.44C1061.94 121.909 1061.61 121.083 1061.44 120.643H1061.43C1061.45 121.085 1061.45 121.911 1061.45 123.134H1061.09V120.377H1061.68C1062.15 121.566 1062.46 122.317 1062.62 122.772H1062.63ZM1071.24 122.891C1071.36 122.47 1071.48 122.117 1071.6 121.753L1072.04 120.376H1072.44L1071.47 123.133H1071L1070.02 120.376H1070.43L1070.86 121.759C1070.98 122.121 1071.1 122.474 1071.22 122.891H1071.24ZM1078.61 122.295L1078.31 123.134H1077.9L1078.95 120.377H1079.44L1080.49 123.134H1080.07L1079.78 122.295H1078.61ZM1079.45 121.331C1079.36 121.093 1079.28 120.863 1079.2 120.599H1079.18C1079.11 120.86 1079.03 121.097 1078.95 121.329L1078.7 122.059H1079.69L1079.45 121.331ZM1088.49 120.878C1088.41 120.719 1088.22 120.554 1087.83 120.554C1087.63 120.554 1087.43 120.603 1087.3 120.686C1087.25 120.716 1087.21 120.76 1087.18 120.812C1087.15 120.863 1087.14 120.922 1087.14 120.981C1087.14 121.131 1087.23 121.249 1087.36 121.321C1087.5 121.398 1087.64 121.451 1088.03 121.572C1088.39 121.693 1088.57 121.759 1088.72 121.864C1088.8 121.921 1088.87 121.998 1088.91 122.087C1088.96 122.175 1088.98 122.274 1088.99 122.375C1088.98 122.482 1088.96 122.587 1088.91 122.681C1088.86 122.776 1088.78 122.857 1088.7 122.917C1088.44 123.102 1088.13 123.197 1087.81 123.188C1087.15 123.188 1086.82 122.953 1086.68 122.643L1087.06 122.6C1087.17 122.783 1087.41 122.953 1087.82 122.953C1088.03 122.959 1088.24 122.894 1088.41 122.768C1088.47 122.727 1088.51 122.675 1088.54 122.614C1088.58 122.553 1088.59 122.486 1088.59 122.417C1088.59 122.344 1088.58 122.272 1088.54 122.208C1088.5 122.144 1088.45 122.092 1088.38 122.056C1088.26 121.986 1088.12 121.935 1087.73 121.803C1087.32 121.671 1087.17 121.602 1087.04 121.509C1086.95 121.455 1086.88 121.38 1086.83 121.291C1086.78 121.202 1086.76 121.101 1086.76 121C1086.76 120.905 1086.78 120.811 1086.83 120.728C1086.87 120.645 1086.94 120.576 1087.02 120.527C1087.21 120.397 1087.48 120.321 1087.85 120.321C1088.44 120.321 1088.76 120.547 1088.87 120.846L1088.49 120.878ZM1097.33 120.614H1096.42V123.134H1096.04V120.614H1095.13V120.376H1097.33V120.614ZM1103.7 122.295L1103.41 123.134H1103L1104.04 120.377H1104.54L1105.59 123.134H1105.17L1104.88 122.295H1103.7ZM1104.54 121.331C1104.46 121.093 1104.38 120.863 1104.3 120.599H1104.28C1104.2 120.86 1104.12 121.097 1104.04 121.329L1103.79 122.059H1104.78L1104.54 121.331ZM1113.87 120.614H1112.96V123.134H1112.58V120.614H1111.67V120.376H1113.87V120.614ZM1120.16 123.134V120.376H1120.54V123.134H1120.16ZM1129.13 122.804C1129.11 121.995 1129.1 121.185 1129.11 120.376H1129.47V123.133H1128.93C1128.22 121.935 1127.75 121.122 1127.53 120.707H1127.52C1127.53 121.124 1127.54 121.939 1127.54 123.133H1127.18V120.376H1127.72C1128.43 121.568 1128.9 122.385 1129.12 122.804H1129.13ZM1136.02 122.706H1136.38L1136.07 123.532H1135.86L1136.02 122.706ZM1144.5 122.772C1144.66 122.315 1144.96 121.558 1145.44 120.377H1146.02V123.134H1145.67C1145.67 121.911 1145.67 121.085 1145.68 120.643H1145.67C1145.5 121.083 1145.18 121.888 1144.67 123.134H1144.31C1143.98 122.306 1143.64 121.476 1143.32 120.643H1143.31C1143.32 121.085 1143.32 121.911 1143.32 123.134H1142.97V120.377H1143.56C1144.03 121.566 1144.33 122.317 1144.49 122.772H1144.5ZM1154.35 120.878C1154.26 120.719 1154.07 120.554 1153.68 120.554C1153.48 120.554 1153.28 120.603 1153.16 120.686C1153.11 120.716 1153.07 120.759 1153.04 120.811C1153.01 120.863 1152.99 120.922 1152.99 120.981C1152.99 121.131 1153.08 121.249 1153.21 121.321C1153.35 121.398 1153.49 121.451 1153.88 121.572C1154.24 121.693 1154.42 121.759 1154.57 121.864C1154.65 121.921 1154.72 121.998 1154.77 122.087C1154.81 122.176 1154.84 122.274 1154.84 122.375C1154.84 122.482 1154.81 122.586 1154.76 122.681C1154.71 122.775 1154.64 122.856 1154.55 122.917C1154.29 123.102 1153.98 123.197 1153.66 123.188C1153.01 123.188 1152.67 122.953 1152.53 122.643L1152.91 122.6C1153.02 122.783 1153.26 122.953 1153.67 122.953C1153.89 122.959 1154.1 122.894 1154.27 122.768C1154.32 122.727 1154.37 122.674 1154.4 122.614C1154.43 122.553 1154.45 122.486 1154.45 122.417C1154.45 122.241 1154.35 122.13 1154.24 122.056C1154.12 121.986 1153.98 121.935 1153.59 121.803C1153.18 121.671 1153.02 121.602 1152.89 121.509C1152.8 121.455 1152.73 121.38 1152.68 121.291C1152.63 121.202 1152.61 121.102 1152.61 121C1152.61 120.821 1152.69 120.649 1152.87 120.527C1153.06 120.397 1153.33 120.321 1153.7 120.321C1154.3 120.321 1154.61 120.547 1154.72 120.846L1154.35 120.878ZM1161.42 123.134V120.377H1162.36C1163.35 120.377 1163.8 120.821 1163.8 121.749C1163.8 122.647 1163.39 123.134 1162.37 123.134H1161.42ZM1162.35 122.898C1163.06 122.898 1163.41 122.538 1163.41 121.755C1163.41 121.016 1163.1 120.614 1162.34 120.614H1161.81V122.898H1162.35ZM1170.01 123.693C1170.14 123.512 1170.25 123.312 1170.33 123.099C1170.45 122.71 1170.47 122.338 1170.47 122.001C1170.47 121.563 1170.43 121.204 1170.33 120.903C1170.26 120.689 1170.15 120.488 1170 120.311L1170.14 120.152C1170.32 120.327 1170.48 120.514 1170.6 120.773C1170.76 121.09 1170.84 121.486 1170.85 121.999C1170.85 122.499 1170.77 122.897 1170.62 123.222C1170.49 123.458 1170.33 123.671 1170.14 123.852L1170.01 123.693ZM1176.88 102.44C1177.13 102.44 1177.37 102.487 1177.59 102.58C1177.82 102.673 1178.02 102.809 1178.19 102.981C1178.36 103.153 1178.5 103.356 1178.59 103.581C1178.69 103.805 1178.74 104.046 1178.74 104.289C1178.74 104.532 1178.69 104.772 1178.59 104.997C1178.5 105.221 1178.37 105.425 1178.19 105.597C1178.02 105.769 1177.82 105.905 1177.59 105.998C1177.37 106.092 1177.13 106.14 1176.89 106.14C1176.4 106.14 1175.93 105.945 1175.58 105.599C1175.23 105.252 1175.04 104.781 1175.04 104.291C1175.04 103.8 1175.23 103.33 1175.58 102.982C1175.92 102.635 1176.39 102.44 1176.88 102.44ZM1175.4 104.29C1175.4 104.682 1175.56 105.059 1175.84 105.336C1176.12 105.614 1176.49 105.77 1176.88 105.77C1177.28 105.77 1177.65 105.614 1177.93 105.336C1178.21 105.059 1178.36 104.682 1178.36 104.29C1178.36 103.897 1178.21 103.521 1177.93 103.243C1177.65 102.966 1177.28 102.81 1176.88 102.81C1176.49 102.81 1176.12 102.966 1175.84 103.243C1175.56 103.521 1175.4 103.897 1175.4 104.29Z" fill="white"/>
<path fill-rule="evenodd" clip-rule="evenodd" d="M1176.09 103.256H1177.12C1177.66 103.256 1177.76 103.656 1177.76 103.831C1177.76 104.056 1177.65 104.248 1177.45 104.316C1177.61 104.389 1177.7 104.452 1177.7 104.832C1177.7 105.13 1177.7 105.204 1177.8 105.239V105.292H1177.33C1177.29 105.158 1177.27 105.019 1177.28 104.88C1177.28 104.602 1177.26 104.495 1176.95 104.495H1176.51V105.291H1176.09V103.256H1176.09ZM1177.01 104.151C1177.23 104.151 1177.34 104.075 1177.34 103.874C1177.34 103.766 1177.29 103.607 1177.04 103.607H1176.51V104.151H1177.01Z" fill="white"/>
</g>
</g>
<defs>
<clipPath id="clip0_9_2">
<rect width="1248" height="200" fill="white"/>
</clipPath>
<clipPath id="clip1_9_2">
<rect width="86" height="86" fill="white" transform="translate(282 65)"/>
</clipPath>
<clipPath id="clip2_9_2">
<rect width="200" height="200" fill="white" transform="translate(443 8)"/>
</clipPath>
<clipPath id="clip3_9_2">
<rect width="210" height="210" fill="white" transform="translate(978 8)"/>
</clipPath>
</defs>
</svg>
