<svg width="150" height="229" viewBox="0 0 150 229" fill="none" xmlns="http://www.w3.org/2000/svg">
<path d="M16.189 187.256C15.1546 187.256 14.2794 187.119 13.5633 186.847C12.8586 186.562 12.2846 186.193 11.8413 185.738C11.4094 185.284 11.0855 184.789 10.8695 184.255C10.6649 183.709 10.5456 183.175 10.5115 182.652H13.1712C13.1939 183.062 13.319 183.454 13.5463 183.829C13.7736 184.204 14.1146 184.511 14.5693 184.749C15.0239 184.988 15.5922 185.108 16.2742 185.108C17.013 185.108 17.5586 184.96 17.911 184.664C18.2747 184.357 18.4566 183.96 18.4566 183.471C18.4566 183.005 18.2974 182.624 17.9792 182.328C17.6723 182.033 17.2631 181.8 16.7516 181.629L14.825 180.982C14.2112 180.777 13.6202 180.527 13.0519 180.231C12.4949 179.924 12.0346 179.527 11.6709 179.038C11.3071 178.538 11.1253 177.901 11.1253 177.128C11.1253 176.333 11.3242 175.662 11.722 175.116C12.1312 174.571 12.6881 174.156 13.3929 173.872C14.1089 173.588 14.9273 173.446 15.848 173.446C17.0301 173.446 17.9621 173.645 18.6441 174.042C19.3261 174.44 19.8205 174.946 20.1274 175.56C20.4457 176.162 20.6389 176.793 20.7071 177.452H18.0474C18.0246 177.134 17.9337 176.833 17.7746 176.549C17.6268 176.253 17.3881 176.014 17.0585 175.833C16.7289 175.651 16.2856 175.56 15.7286 175.56C15.1035 175.56 14.6375 175.69 14.3306 175.952C14.0351 176.213 13.8873 176.543 13.8873 176.941C13.8873 177.373 14.0407 177.719 14.3476 177.981C14.6659 178.242 15.0864 178.464 15.6093 178.646L17.5359 179.294C18.161 179.498 18.7521 179.754 19.309 180.061C19.866 180.368 20.3206 180.777 20.673 181.288C21.0367 181.789 21.2186 182.448 21.2186 183.266C21.2186 184.505 20.7753 185.483 19.8887 186.199C19.0135 186.903 17.7803 187.256 16.189 187.256ZM23.2238 187V173.701H26.0199V178.816H27.0429L30.862 173.701H34.0332V173.804L29.4298 179.805L34.7833 186.898V187H31.3734L27.0429 181.067H26.0199V187H23.2238ZM40.8556 187.239C39.4462 187.239 38.2698 186.96 37.3264 186.403C36.3943 185.835 35.6953 185.034 35.2293 183.999C34.7746 182.965 34.5473 181.749 34.5473 180.351C34.5473 178.941 34.7746 177.725 35.2293 176.702C35.6953 175.668 36.3943 174.872 37.3264 174.315C38.2698 173.747 39.4462 173.463 40.8556 173.463C42.2764 173.463 43.4528 173.747 44.3849 174.315C45.3169 174.872 46.0103 175.668 46.4649 176.702C46.9309 177.725 47.164 178.941 47.164 180.351C47.164 181.749 46.9309 182.965 46.4649 183.999C46.0103 185.034 45.3169 185.835 44.3849 186.403C43.4528 186.96 42.2764 187.239 40.8556 187.239ZM40.8556 185.09C42.0036 185.09 42.8447 184.681 43.379 183.863C43.9245 183.033 44.1973 181.862 44.1973 180.351C44.1973 178.828 43.9245 177.657 43.379 176.838C42.8447 176.02 42.0036 175.611 40.8556 175.611C39.7076 175.611 38.8608 176.02 38.3153 176.838C37.781 177.657 37.5139 178.828 37.5139 180.351C37.5139 181.862 37.781 183.033 38.3153 183.863C38.8608 184.681 39.7076 185.09 40.8556 185.09ZM48.9779 187V173.701H54.6213C55.7579 173.701 56.6786 173.866 57.3833 174.196C58.0994 174.514 58.6222 174.957 58.9518 175.526C59.2928 176.083 59.4633 176.731 59.4633 177.469C59.4633 178.31 59.2417 179.038 58.7984 179.652C58.3551 180.265 57.7015 180.703 56.8377 180.964L59.8214 186.898V187H56.7865L54.0757 181.374H51.8081V187H48.9779ZM51.8081 179.294H54.2121C54.9509 179.294 55.5249 179.169 55.9341 178.919C56.3546 178.668 56.5649 178.219 56.5649 177.572C56.5649 176.912 56.3546 176.463 55.9341 176.225C55.5135 175.975 54.9395 175.85 54.2121 175.85H51.8081V179.294ZM61.4253 187V173.701H66.9835C68.6884 173.701 69.9331 174.065 70.7173 174.793C71.5016 175.509 71.8937 176.475 71.8937 177.691C71.8937 178.907 71.5016 179.879 70.7173 180.606C69.9444 181.334 68.6998 181.698 66.9835 181.698H64.2556V187H61.4253ZM64.2556 179.549H66.5573C67.3302 179.549 67.9326 179.419 68.3645 179.157C68.8078 178.884 69.0294 178.401 69.0294 177.708C69.0294 177.026 68.8078 176.549 68.3645 176.276C67.9326 175.992 67.3302 175.85 66.5573 175.85H64.2556V179.549ZM73.693 187V173.701H76.5573V187H73.693ZM78.1246 187V186.898L82.0459 179.941L78.6872 173.804V173.701H81.7391L84.143 178.151H84.5522L86.888 173.701H89.8205V173.804L86.4788 179.941L90.3661 186.898V187H87.1949L84.3988 181.732H83.9896L81.1594 187H78.1246Z" fill="#C9FA49"/>
<path d="M0 60.6548L51.5813 32.3264L51.5813 40.6939L7.16407 66.0987L0 60.6548Z" fill="#C9FA49"/>
<path d="M26.7463 73.3567L51.6773 59.1421L51.6773 68.2152L33.9104 78.0949L26.7463 73.3567Z" fill="#C9FA49"/>
<path d="M7.54724 69.728L51.5298 45.9361L51.5298 54.8076L14.9979 74.8694L7.54724 69.728Z" fill="#C9FA49"/>
<path d="M100.967 72.2472L51.5823 40.6927L51.5823 32.3253L100.967 63.2748L100.967 72.2472Z" fill="#C9FA49"/>
<path d="M89.1208 76.482L51.1248 55.0089L51.1248 45.9357L89.1208 68.8202L89.1208 76.482Z" fill="#C9FA49"/>
<path d="M51.2948 142.917L11.7491 117.916L11.7491 110.052L51.2948 135.155L51.2948 142.917Z" fill="#C9FA49"/>
<path d="M51.2957 135.156L88.1668 113.582L93.707 117.211L51.2957 142.918L51.2957 135.156Z" fill="#C9FA49"/>
<path d="M51.2962 119.932L74.9854 104.91L82.8182 110.052L51.2962 129.307L51.2962 119.932Z" fill="#C9FA49"/>
<path d="M89.1223 89.8886L51.6781 68.2138L51.6781 59.1407L89.1223 81.6219L89.1223 89.8886Z" fill="#C9FA49"/>
<path d="M51.2955 129.308L11.7498 105.314L11.7498 95.0312L51.2955 119.932L51.2955 129.308Z" fill="#C9FA49"/>
<path d="M51.1035 155.822L-0.00023599 124.873L7.16384 120.034L51.1035 147.253L51.1035 155.822Z" fill="#C9FA49"/>
<path d="M51.1805 155.82L0.00109013 124.87L7.16516 120.031L51.1805 147.251L51.1805 155.82Z" fill="#C9FA49"/>
<path d="M51.1041 147.252L100.966 117.411L100.966 125.476L51.1041 155.821L51.1041 147.252Z" fill="#C9FA49"/>
<path d="M0 124.871L0 60.6536L7.16407 65.6943L7.16407 120.032L0 124.871Z" fill="#C9FA49"/>
<path d="M84.154 122.352L7.1641 69.627L15.1879 65.5945L93.7061 117.211L84.154 122.352Z" fill="#C9FA49"/>
<path d="M93.7069 129.912L93.7069 64.5855L100.967 63.2749V125.376L93.7069 129.912Z" fill="#C9FA49"/>
<path d="M82.3401 86.0593V72.6512L89.1221 69.6268V89.8902L82.3401 86.0593Z" fill="#C9FA49"/>
<path d="M11.75 117.915V94.4981L19.8693 100.125V123.056L11.75 117.915Z" fill="#C9FA49"/>
</svg>
