<svg width="89" height="100" viewBox="0 0 89 100" fill="none" xmlns="http://www.w3.org/2000/svg">
<path d="M10.4462 87.0581C10.4069 86.6254 10.2319 86.2891 9.92111 86.0492C9.61429 85.8053 9.1757 85.6833 8.60533 85.6833C8.22771 85.6833 7.91302 85.7325 7.66128 85.8309C7.40953 85.9292 7.22072 86.0649 7.09484 86.238C6.96897 86.4071 6.90406 86.6018 6.90013 86.8221C6.89226 87.0031 6.92767 87.1624 7.00634 87.3C7.08894 87.4377 7.20695 87.5597 7.36036 87.6659C7.5177 87.7681 7.70651 87.8586 7.92679 87.9373C8.14707 88.0159 8.39489 88.0848 8.67024 88.1438L9.7087 88.3798C10.3066 88.5096 10.8337 88.6827 11.29 88.899C11.7502 89.1154 12.1357 89.373 12.4465 89.672C12.7611 89.9709 12.9991 90.3151 13.1604 90.7045C13.3217 91.094 13.4043 91.5306 13.4082 92.0144C13.4043 92.7775 13.2115 93.4325 12.83 93.9792C12.4484 94.526 11.8997 94.9449 11.1838 95.236C10.4718 95.5271 9.61232 95.6726 8.60533 95.6726C7.59441 95.6726 6.71329 95.5212 5.96198 95.2183C5.21066 94.9154 4.62653 94.4552 4.20957 93.8376C3.79261 93.2201 3.57823 92.4392 3.56643 91.4952H6.3632C6.3868 91.8846 6.49104 92.2091 6.67592 92.4687C6.8608 92.7284 7.11451 92.925 7.43706 93.0588C7.76355 93.1925 8.14117 93.2594 8.56993 93.2594C8.96329 93.2594 9.29764 93.2063 9.57299 93.1001C9.85227 92.9939 10.0667 92.8464 10.2161 92.6576C10.3656 92.4687 10.4423 92.2524 10.4462 92.0085C10.4423 91.7804 10.3715 91.5857 10.2338 91.4244C10.0962 91.2592 9.88374 91.1176 9.59659 90.9996C9.31337 90.8776 8.95149 90.7655 8.51093 90.6632L7.24825 90.3682C6.20192 90.1283 5.37784 89.7408 4.77601 89.2059C4.17417 88.667 3.87522 87.9392 3.87915 87.0227C3.87522 86.2753 4.07583 85.6204 4.48099 85.0579C4.88615 84.4954 5.44668 84.0568 6.16259 83.7421C6.8785 83.4274 7.69471 83.2701 8.61123 83.2701C9.54742 83.2701 10.3597 83.4294 11.0481 83.748C11.7404 84.0627 12.2773 84.5052 12.6589 85.0756C13.0404 85.646 13.2351 86.3068 13.243 87.0581H10.4462ZM16.5448 95.5192V83.4353H19.4655V88.545H19.6248L23.6194 83.4353H27.0593L22.7756 88.8282L27.136 95.5192H23.643L20.6338 90.7694L19.4655 92.2445V95.5192H16.5448ZM40.5643 89.4773C40.5643 90.8068 40.3086 91.9338 39.7972 92.8582C39.2859 93.7826 38.5936 94.4847 37.7203 94.9646C36.851 95.4445 35.8755 95.6844 34.7937 95.6844C33.7081 95.6844 32.7306 95.4425 31.8613 94.9587C30.9919 94.4749 30.3016 93.7727 29.7902 92.8523C29.2828 91.9279 29.0291 90.8029 29.0291 89.4773C29.0291 88.1477 29.2828 87.0208 29.7902 86.0964C30.3016 85.172 30.9919 84.4698 31.8613 83.9899C32.7306 83.51 33.7081 83.2701 34.7937 83.2701C35.8755 83.2701 36.851 83.51 37.7203 83.9899C38.5936 84.4698 39.2859 85.172 39.7972 86.0964C40.3086 87.0208 40.5643 88.1477 40.5643 89.4773ZM37.5787 89.4773C37.5787 88.6906 37.4666 88.0258 37.2424 87.483C37.0221 86.9401 36.7035 86.5291 36.2865 86.2498C35.8735 85.9705 35.3759 85.8309 34.7937 85.8309C34.2155 85.8309 33.7179 85.9705 33.3009 86.2498C32.884 86.5291 32.5634 86.9401 32.3392 87.483C32.1189 88.0258 32.0088 88.6906 32.0088 89.4773C32.0088 90.264 32.1189 90.9288 32.3392 91.4716C32.5634 92.0144 32.884 92.4255 33.3009 92.7048C33.7179 92.984 34.2155 93.1237 34.7937 93.1237C35.3759 93.1237 35.8735 92.984 36.2865 92.7048C36.7035 92.4255 37.0221 92.0144 37.2424 91.4716C37.4666 90.9288 37.5787 90.264 37.5787 89.4773ZM43.931 95.5192V83.4353H48.9227C49.8274 83.4353 50.6082 83.5986 51.2652 83.925C51.926 84.2476 52.4354 84.7118 52.7933 85.3175C53.1513 85.9194 53.3303 86.6333 53.3303 87.4593C53.3303 88.2972 53.1474 89.0092 52.7815 89.5953C52.4157 90.1774 51.8965 90.6219 51.2239 90.9288C50.5512 91.2316 49.7547 91.3831 48.8342 91.3831H45.6775V89.0819H48.2914C48.7319 89.0819 49.0997 89.0249 49.3947 88.9108C49.6937 88.7928 49.9199 88.6158 50.0733 88.3798C50.2267 88.1399 50.3034 87.833 50.3034 87.4593C50.3034 87.0857 50.2267 86.7769 50.0733 86.533C49.9199 86.2852 49.6937 86.1003 49.3947 85.9784C49.0958 85.8525 48.728 85.7896 48.2914 85.7896H46.8517V95.5192H43.931ZM50.7341 89.9965L53.7433 95.5192H50.5571L47.6069 89.9965H50.7341ZM56.5938 95.5192V83.4353H61.5855C62.4902 83.4353 63.271 83.6123 63.9279 83.9663C64.5887 84.3164 65.0981 84.8062 65.4561 85.4355C65.814 86.061 65.993 86.7887 65.993 87.6187C65.993 88.4526 65.8101 89.1823 65.4443 89.8077C65.0824 90.4292 64.5651 90.9111 63.8925 91.2533C63.2198 91.5955 62.4213 91.7666 61.4969 91.7666H58.417V89.4655H60.9541C61.3947 89.4655 61.7625 89.3888 62.0575 89.2354C62.3564 89.0819 62.5826 88.8676 62.736 88.5922C62.8894 88.3129 62.9661 87.9884 62.9661 87.6187C62.9661 87.245 62.8894 86.9224 62.736 86.651C62.5826 86.3757 62.3564 86.1632 62.0575 86.0138C61.7585 85.8643 61.3907 85.7896 60.9541 85.7896H59.5144V95.5192H56.5938ZM72.0149 83.4353V95.5192H69.0942V83.4353H72.0149ZM78.4661 83.4353L80.6728 87.2528H80.7672L82.9975 83.4353H86.2663L82.6199 89.4773L86.3843 95.5192H83.0329L80.7672 91.6604H80.6728L78.4071 95.5192H75.0793L78.826 89.4773L75.1737 83.4353H78.4661Z" fill="#C9FA49"/>
<g clip-path="url(#clip0_1_6)">
<path d="M54.8877 61.9251C54.8981 61.9239 54.9087 61.9251 54.9186 61.9284C54.9286 61.9317 54.9377 61.9372 54.9454 61.9445C54.953 61.9518 54.959 61.9606 54.9629 61.9704C54.9668 61.9803 54.9686 61.9909 54.968 62.0014C54.9563 62.2072 54.9259 62.4027 54.8769 62.5882C54.641 63.4727 54.3885 64.3779 54.1193 65.3039C54.104 65.3574 54.122 65.3738 54.1733 65.3531C54.2206 65.3342 54.2827 65.2762 54.3164 65.2282C54.7641 64.6037 55.2766 63.9778 55.6837 63.3822C57.0787 61.3404 58.2765 59.0792 58.8666 56.6653C59.3163 54.8267 59.4412 52.9591 58.8443 51.1698C58.3271 49.6175 57.3488 48.4582 55.8316 47.7776C55.3657 47.5683 55.034 47.4396 54.8363 47.3914C53.2942 47.0115 51.752 47.0088 50.2099 47.3833C50.1806 47.3901 50.1808 47.3934 50.2105 47.3934C50.2659 47.3928 50.3206 47.3982 50.3746 47.388C51.0809 47.2561 51.7914 47.2188 52.5062 47.2759C52.7831 47.2982 53.0619 47.3772 53.3414 47.4393C54.9072 47.7844 56.0632 49.0011 56.4447 50.5291C57.3015 53.9659 55.2415 58.0583 53.305 60.7922C52.8418 61.4457 52.3881 62.1088 51.8337 62.6908C51.829 62.6955 51.826 62.7015 51.825 62.708C51.8241 62.7146 51.8253 62.7212 51.8284 62.7271C51.8316 62.733 51.8365 62.7377 51.8426 62.7407C51.8486 62.7436 51.8555 62.7446 51.8621 62.7435C52.3388 62.6591 52.8715 62.4815 53.2638 62.387C53.6212 62.3006 53.9773 62.2105 54.332 62.1169C54.4967 62.0737 54.6952 61.9474 54.8877 61.9251Z" stroke="#C9FA49" stroke-width="0.346154"/>
<path d="M53.2193 51.5946C53.2193 51.1021 53.0237 50.6298 52.6754 50.2816C52.3272 49.9334 51.8549 49.7378 51.3625 49.7378C50.87 49.7378 50.3977 49.9334 50.0495 50.2816C49.7013 50.6298 49.5057 51.1021 49.5057 51.5946C49.5057 52.087 49.7013 52.5593 50.0495 52.9075C50.3977 53.2557 50.87 53.4514 51.3625 53.4514C51.8549 53.4514 52.3272 53.2557 52.6754 52.9075C53.0237 52.5593 53.2193 52.087 53.2193 51.5946Z" stroke="#C9FA49" stroke-width="0.346154"/>
<path d="M33.531 57.2474C33.4937 57.1294 33.5196 57.0383 33.6087 56.9739C33.9301 56.7416 34.1434 56.6181 34.3082 56.2535C34.477 55.8794 34.587 55.5182 34.5033 55.1043C34.335 54.2742 33.8214 53.7329 32.9625 53.4804C31.6337 53.0895 29.6952 53.1462 28.783 54.2771C28.5055 54.6215 28.232 55.0381 28.2557 55.475C28.2563 55.4845 28.2604 55.4935 28.2672 55.5003C28.274 55.5071 28.2831 55.5113 28.2928 55.5121C28.65 55.5384 28.991 55.5593 29.3488 55.641C29.6707 55.7144 29.997 55.7837 30.3279 55.849C30.3335 55.8502 30.3393 55.8501 30.3449 55.8489C30.3505 55.8476 30.3557 55.8452 30.3604 55.8418C30.365 55.8384 30.3689 55.834 30.3718 55.8289C30.3747 55.8239 30.3765 55.8183 30.3772 55.8126C30.4467 55.1671 30.9545 54.4797 31.6952 54.7808C32.5358 55.1232 32.3271 56.084 31.6378 56.4243C31.4312 56.5262 31.1665 56.5127 30.9288 56.5269C30.9067 56.5283 30.8941 56.5397 30.891 56.5614C30.8145 57.066 30.7751 57.5735 30.7728 58.0839C30.7728 58.1393 30.7992 58.1584 30.8518 58.1413C31.2299 58.0205 31.708 57.9705 32.0625 58.1623C32.6701 58.4911 32.7667 59.3128 32.4696 59.8847C32.182 60.439 31.5007 60.6848 30.9612 60.3182C30.6047 60.0758 30.4582 59.7044 30.3738 59.2932C30.3712 59.2812 30.3641 59.2706 30.3541 59.2636C30.3441 59.2565 30.3318 59.2536 30.3198 59.2554L28.095 59.5701C28.0671 59.5741 28.0576 59.5896 28.0666 59.6166C28.2888 60.2898 28.679 60.9704 29.2766 61.3546C30.1969 61.9474 31.5581 62.0109 32.5857 61.8083C33.5499 61.6186 34.2535 61.1615 34.6674 60.2858C35.1326 59.3013 35.0057 57.4411 33.5742 57.2825C33.5522 57.2802 33.5378 57.2685 33.531 57.2474Z" stroke="#C9FA49" stroke-width="0.346154"/>
<path d="M37.1529 61.1737C37.6518 61.6301 38.1319 61.7111 38.7315 61.8286C40.1292 62.1034 41.6727 61.732 42.4066 60.4343C42.521 60.2326 42.6013 60.0047 42.6477 59.7503C42.911 58.304 42.4573 56.8422 40.961 56.3351C39.9977 56.0088 39.1366 56.1949 38.3777 56.8935C38.3702 56.9005 38.3609 56.9053 38.3509 56.9074C38.3408 56.9096 38.3304 56.9089 38.3207 56.9056C38.311 56.9023 38.3024 56.8964 38.2958 56.8886C38.2892 56.8807 38.2848 56.8712 38.2832 56.8611C38.2123 56.4297 38.404 55.4837 38.6788 55.1353C39.2622 54.396 40.1292 54.6782 40.2797 55.5445C40.2842 55.5688 40.2989 55.5803 40.3236 55.5789C41.0238 55.5479 41.6848 55.3494 42.491 55.3399C42.5216 55.3395 42.5381 55.3241 42.5403 55.294C42.5457 55.2269 42.5309 55.1472 42.4957 55.055C42.1685 54.1957 41.5777 53.6483 40.7233 53.4129C39.8766 53.1799 39.1798 53.2252 38.3385 53.4338C37.5701 53.6249 36.635 54.3122 36.348 55.0766C35.9227 56.2105 35.7881 57.3669 35.9443 58.5458C36.0867 59.6193 36.369 60.4579 37.1529 61.1737Z" stroke="#C9FA49" stroke-width="0.346154"/>
<path d="M44.7678 61.1379C45.6138 61.9522 47.0459 62.0426 48.1161 61.7834C48.9581 61.5795 49.5536 61.1426 49.931 60.3803C50.3611 59.51 50.4867 58.1447 50.4273 56.8969C50.4165 56.6759 50.3497 56.2769 50.2268 55.6998C50.0188 54.7194 49.4685 53.8301 48.478 53.5027C47.5665 53.2006 46.6513 53.1878 45.7326 53.4642C44.4302 53.8558 43.9001 54.9118 43.7232 56.1704C43.5688 57.2678 43.6078 58.3527 43.84 59.4249C44.0054 60.1872 44.2289 60.62 44.7678 61.1379Z" stroke="#C9FA49" stroke-width="0.346154"/>
<path d="M45.6253 65.4233C46.1621 65.9912 46.7299 66.476 47.1965 67.0405C47.2045 67.0501 47.2105 67.0612 47.2141 67.0732C47.2177 67.0852 47.2189 67.0978 47.2176 67.1103C47.2163 67.1227 47.2124 67.1348 47.2064 67.1458C47.2003 67.1568 47.1921 67.1664 47.1823 67.1741C45.3624 68.602 43.3674 69.7181 41.1973 70.5225C40.0715 70.9402 38.8568 71.1637 37.5532 71.1929C37.2136 71.2004 36.8659 71.1396 36.5262 71.089C34.4892 70.7818 33.0003 69.2855 32.8349 67.216C32.7755 66.4674 32.7771 65.7508 32.8396 65.0662C32.8464 64.9941 32.8419 64.9354 32.8261 64.8899C32.809 64.8391 32.7955 64.8402 32.7856 64.8933C32.7501 65.0905 32.7271 65.289 32.7167 65.4888C32.6749 66.3031 32.6047 67.1735 32.6573 67.9608C32.8092 70.2409 34.0881 72.4313 36.3196 73.2672C37.4209 73.6797 38.5167 73.8235 39.6869 73.7729C41.6328 73.6892 43.6132 73.0862 45.3633 72.255C46.9271 71.5116 48.3227 70.6082 49.7359 69.6177C49.7475 69.6096 49.7615 69.6058 49.7756 69.6071C49.7897 69.6083 49.8029 69.6145 49.8129 69.6245L51.5157 71.3287C51.5499 71.3624 51.5731 71.3561 51.5853 71.3098L53.7399 63.2917C53.7583 63.2233 53.7331 63.1981 53.6642 63.2161C51.3294 63.8391 49.0006 64.4657 46.6779 65.0959C46.3525 65.1843 45.9946 65.2491 45.655 65.3248C45.587 65.3396 45.5771 65.3725 45.6253 65.4233Z" stroke="#C9FA49" stroke-width="0.346154"/>
<path d="M52.2996 51.5945C52.2996 51.3458 52.2008 51.1073 52.0249 50.9314C51.849 50.7555 51.6105 50.6567 51.3617 50.6567C51.113 50.6567 50.8745 50.7555 50.6986 50.9314C50.5227 51.1073 50.4239 51.3458 50.4239 51.5945C50.4239 51.8433 50.5227 52.0818 50.6986 52.2577C50.8745 52.4336 51.113 52.5324 51.3617 52.5324C51.6105 52.5324 51.849 52.4336 52.0249 52.2577C52.2008 52.0818 52.2996 51.8433 52.2996 51.5945Z" stroke="#C9FA49" stroke-width="0.346154"/>
<path d="M39.5503 60.4524C39.7002 60.4409 39.8458 60.3925 39.9788 60.3101C40.1119 60.2277 40.2296 60.1128 40.3254 59.972C40.4213 59.8313 40.4933 59.6674 40.5373 59.4898C40.5814 59.3121 40.5966 59.1242 40.5822 58.9366C40.553 58.558 40.4048 58.204 40.1701 57.9527C39.9353 57.7014 39.6334 57.5733 39.3305 57.5966C39.1806 57.6082 39.035 57.6565 38.902 57.7389C38.769 57.8213 38.6512 57.9362 38.5554 58.077C38.4595 58.2177 38.3876 58.3816 38.3435 58.5592C38.2995 58.7369 38.2842 58.9248 38.2986 59.1124C38.3278 59.4911 38.476 59.845 38.7107 60.0963C38.9455 60.3476 39.2475 60.4757 39.5503 60.4524Z" stroke="#C9FA49" stroke-width="0.346154"/>
<path d="M46.5571 60.1588C47.1391 60.5727 47.738 60.096 47.9365 59.5268C48.0265 59.2676 48.0803 59.0492 48.0979 58.8719C48.1726 58.0976 48.1708 57.2651 48.0925 56.3743C48.0337 55.716 47.8102 54.8625 47.0088 54.8294C45.9683 54.7876 45.946 56.4661 45.9325 57.1481C45.917 57.955 45.8353 59.6463 46.5571 60.1588Z" stroke="#C9FA49" stroke-width="0.346154"/>
<path d="M54.8877 61.9251C54.6952 61.9474 54.4967 62.0737 54.332 62.1169C53.9773 62.2105 53.6212 62.3006 53.2638 62.387C52.8715 62.4815 52.3388 62.6591 51.8621 62.7435C51.8555 62.7446 51.8486 62.7436 51.8426 62.7407C51.8365 62.7377 51.8316 62.733 51.8284 62.7271C51.8253 62.7212 51.8241 62.7146 51.825 62.708C51.826 62.7015 51.829 62.6955 51.8337 62.6908C52.3881 62.1088 52.8418 61.4457 53.305 60.7922C55.2415 58.0583 57.3015 53.9659 56.4447 50.5291C56.0632 49.0011 54.9072 47.7844 53.3414 47.4393C53.0619 47.3772 52.7831 47.2982 52.5062 47.2759C51.7914 47.2188 51.0809 47.2561 50.3746 47.388C50.3206 47.3982 50.2659 47.3928 50.2105 47.3934C50.1808 47.3934 50.1806 47.3901 50.2099 47.3833C51.752 47.0088 53.2942 47.0115 54.8363 47.3914C55.034 47.4396 55.3657 47.5683 55.8316 47.7776C57.3488 48.4582 58.3271 49.6175 58.8443 51.1698C59.4412 52.9591 59.3163 54.8267 58.8666 56.6653C58.2765 59.0792 57.0787 61.3404 55.6837 63.3822C55.2766 63.9778 54.7641 64.6037 54.3164 65.2282C54.2827 65.2762 54.2206 65.3342 54.1733 65.3531C54.122 65.3738 54.104 65.3574 54.1193 65.3039C54.3885 64.3779 54.641 63.4727 54.8769 62.5882C54.9259 62.4027 54.9563 62.2072 54.968 62.0014C54.9686 61.9909 54.9668 61.9803 54.9629 61.9704C54.959 61.9606 54.953 61.9518 54.9454 61.9445C54.9377 61.9372 54.9286 61.9317 54.9186 61.9284C54.9087 61.9251 54.8981 61.9239 54.8877 61.9251Z" fill="#C9FA49"/>
<path d="M53.2192 51.5946C53.2192 52.087 53.0236 52.5593 52.6754 52.9075C52.3272 53.2557 51.8549 53.4514 51.3624 53.4514C50.87 53.4514 50.3977 53.2557 50.0495 52.9075C49.7012 52.5593 49.5056 52.087 49.5056 51.5946C49.5056 51.1021 49.7012 50.6298 50.0495 50.2816C50.3977 49.9334 50.87 49.7378 51.3624 49.7378C51.8549 49.7378 52.3272 49.9334 52.6754 50.2816C53.0236 50.6298 53.2192 51.1021 53.2192 51.5946ZM52.2996 51.5946C52.2996 51.3458 52.2008 51.1073 52.0249 50.9314C51.849 50.7555 51.6105 50.6567 51.3617 50.6567C51.113 50.6567 50.8745 50.7555 50.6986 50.9314C50.5227 51.1073 50.4239 51.3458 50.4239 51.5946C50.4239 51.8433 50.5227 52.0819 50.6986 52.2577C50.8745 52.4336 51.113 52.5324 51.3617 52.5324C51.6105 52.5324 51.849 52.4336 52.0249 52.2577C52.2008 52.0819 52.2996 51.8433 52.2996 51.5946Z" fill="#C9FA49"/>
<path d="M33.5743 57.2825C35.0057 57.4412 35.1326 59.3013 34.6674 60.2858C34.2535 61.1615 33.55 61.6186 32.5858 61.8084C31.5581 62.0109 30.1969 61.9475 29.2766 61.3546C28.679 60.9704 28.2888 60.2898 28.0666 59.6167C28.0576 59.5896 28.0671 59.5741 28.095 59.5701L30.3198 59.2554C30.3318 59.2536 30.3441 59.2565 30.3541 59.2636C30.3641 59.2706 30.3712 59.2812 30.3738 59.2932C30.4582 59.7044 30.6047 60.0758 30.9612 60.3182C31.5007 60.6848 32.182 60.4391 32.4696 59.8847C32.7667 59.3128 32.6702 58.4911 32.0625 58.1623C31.708 57.9705 31.23 58.0205 30.8518 58.1413C30.7992 58.1584 30.7728 58.1393 30.7728 58.0839C30.7751 57.5735 30.8145 57.066 30.891 56.5614C30.8942 56.5398 30.9068 56.5283 30.9288 56.5269C31.1665 56.5128 31.4312 56.5263 31.6378 56.4243C32.3272 56.084 32.5358 55.1232 31.6952 54.7809C30.9545 54.4797 30.4467 55.1671 30.3772 55.8126C30.3765 55.8183 30.3747 55.8239 30.3718 55.829C30.3689 55.834 30.365 55.8384 30.3604 55.8418C30.3558 55.8452 30.3505 55.8476 30.3449 55.8489C30.3393 55.8501 30.3335 55.8502 30.3279 55.849C29.997 55.7838 29.6707 55.7144 29.3488 55.6411C28.991 55.5594 28.65 55.5384 28.2928 55.5121C28.2831 55.5113 28.2741 55.5071 28.2672 55.5003C28.2604 55.4935 28.2563 55.4845 28.2557 55.475C28.2321 55.0381 28.5055 54.6215 28.783 54.2772C29.6952 53.1462 31.6337 53.0895 32.9625 53.4804C33.8214 53.7329 34.335 54.2742 34.5033 55.1043C34.5871 55.5182 34.477 55.8794 34.3082 56.2535C34.1435 56.6181 33.9301 56.7416 33.6087 56.9739C33.5196 57.0383 33.4937 57.1294 33.531 57.2474C33.5378 57.2685 33.5522 57.2802 33.5743 57.2825Z" fill="#C9FA49"/>
<path d="M37.1528 61.1737C36.3689 60.4579 36.0867 59.6193 35.9442 58.5458C35.788 57.3669 35.9226 56.2105 36.348 55.0766C36.6349 54.3122 37.5701 53.6249 38.3385 53.4338C39.1798 53.2252 39.8766 53.1799 40.7233 53.4129C41.5776 53.6483 42.1684 54.1957 42.4957 55.055C42.5308 55.1472 42.5457 55.2269 42.5403 55.294C42.538 55.3241 42.5216 55.3395 42.491 55.3399C41.6848 55.3494 41.0237 55.5479 40.3236 55.5789C40.2988 55.5803 40.2842 55.5688 40.2797 55.5445C40.1291 54.6782 39.2621 54.396 38.6788 55.1353C38.404 55.4837 38.2122 56.4297 38.2831 56.8611C38.2848 56.8712 38.2891 56.8807 38.2957 56.8886C38.3024 56.8964 38.311 56.9023 38.3207 56.9056C38.3304 56.9089 38.3408 56.9096 38.3508 56.9074C38.3608 56.9053 38.3701 56.9005 38.3776 56.8935C39.1366 56.1949 39.9977 56.0088 40.961 56.3351C42.4572 56.8422 42.9109 58.304 42.6476 59.7503C42.6012 60.0047 42.5209 60.2326 42.4066 60.4343C41.6726 61.732 40.1291 62.1034 38.7314 61.8286C38.1319 61.7111 37.6518 61.6301 37.1528 61.1737ZM39.5503 60.4524C39.7002 60.4408 39.8458 60.3925 39.9788 60.3101C40.1118 60.2276 40.2296 60.1128 40.3254 59.972C40.4213 59.8313 40.4932 59.6674 40.5373 59.4897C40.5813 59.3121 40.5966 59.1241 40.5822 58.9366C40.553 58.5579 40.4048 58.204 40.1701 57.9527C39.9353 57.7014 39.6333 57.5733 39.3305 57.5966C39.1806 57.6081 39.035 57.6565 38.902 57.7389C38.7689 57.8213 38.6512 57.9362 38.5554 58.0769C38.4595 58.2177 38.3875 58.3816 38.3435 58.5592C38.2994 58.7369 38.2842 58.9248 38.2986 59.1123C38.3278 59.491 38.476 59.845 38.7107 60.0963C38.9455 60.3476 39.2474 60.4757 39.5503 60.4524Z" fill="#C9FA49"/>
<path d="M44.7677 61.1379C44.2289 60.62 44.0054 60.1872 43.84 59.4249C43.6077 58.3527 43.5688 57.2678 43.7232 56.1704C43.9001 54.9118 44.4301 53.8558 45.7326 53.4642C46.6513 53.1878 47.5664 53.2006 48.4779 53.5027C49.4685 53.8301 50.0187 54.7194 50.2267 55.6998C50.3496 56.2769 50.4164 56.6759 50.4272 56.8969C50.4867 58.1447 50.3611 59.51 49.931 60.3803C49.5535 61.1426 48.958 61.5795 48.116 61.7834C47.0458 62.0426 45.6137 61.9522 44.7677 61.1379ZM46.557 60.1588C47.139 60.5727 47.7379 60.096 47.9364 59.5268C48.0264 59.2676 48.0802 59.0492 48.0978 58.8719C48.1725 58.0977 48.1707 57.2651 48.0924 56.3743C48.0336 55.716 47.8102 54.8625 47.0087 54.8295C45.9682 54.7876 45.9459 56.4661 45.9324 57.1481C45.9169 57.955 45.8352 59.6463 46.557 60.1588Z" fill="#C9FA49"/>
<path d="M45.6253 65.4234C45.5771 65.3725 45.587 65.3396 45.655 65.3248C45.9946 65.2492 46.3525 65.1844 46.6779 65.0959C49.0006 64.4657 51.3294 63.8391 53.6642 63.2161C53.7331 63.1981 53.7583 63.2233 53.7399 63.2918L51.5853 71.3098C51.5731 71.3562 51.55 71.3625 51.5158 71.3287L49.8129 69.6245C49.8029 69.6145 49.7897 69.6083 49.7756 69.6071C49.7616 69.6059 49.7475 69.6096 49.7359 69.6177C48.3227 70.6083 46.9271 71.5117 45.3633 72.2551C43.6132 73.0862 41.6328 73.6892 39.6869 73.7729C38.5168 73.8236 37.4209 73.6798 36.3196 73.2672C34.0881 72.4313 32.8093 70.2409 32.6573 67.9608C32.6047 67.1735 32.6749 66.3032 32.7168 65.4889C32.7271 65.289 32.7501 65.0905 32.7856 64.8933C32.7955 64.8402 32.809 64.8391 32.8261 64.89C32.8419 64.9354 32.8464 64.9942 32.8396 65.0662C32.7771 65.7508 32.7755 66.4675 32.8349 67.216C33.0003 69.2855 34.4892 70.7818 36.5263 71.089C36.8659 71.1396 37.2136 71.2004 37.5532 71.193C38.8568 71.1637 40.0715 70.9402 41.1973 70.5225C43.3674 69.7181 45.3624 68.602 47.1823 67.1742C47.1921 67.1664 47.2003 67.1568 47.2064 67.1458C47.2125 67.1348 47.2163 67.1228 47.2176 67.1103C47.2189 67.0979 47.2177 67.0853 47.2141 67.0733C47.2105 67.0613 47.2045 67.0501 47.1965 67.0405C46.7299 66.476 46.1621 65.9912 45.6253 65.4234Z" fill="#C9FA49"/>
</g>
<defs>
<clipPath id="clip0_1_6">
<rect width="51.9231" height="39.8369" fill="white" transform="translate(18 40)"/>
</clipPath>
</defs>
</svg>
