<svg width="134" height="176" viewBox="0 0 134 176" fill="none" xmlns="http://www.w3.org/2000/svg">
<g clip-path="url(#clip0_195_29)">
<path d="M22.7202 171.256C21.6859 171.256 20.8107 171.119 20.0946 170.847C19.3899 170.562 18.8159 170.193 18.3726 169.738C17.9407 169.284 17.6167 168.789 17.4008 168.255C17.1962 167.709 17.0768 167.175 17.0427 166.652H19.7025C19.7252 167.062 19.8502 167.454 20.0775 167.829C20.3049 168.204 20.6459 168.511 21.1005 168.749C21.5552 168.988 22.1235 169.108 22.8055 169.108C23.5443 169.108 24.0899 168.96 24.4422 168.664C24.806 168.357 24.9878 167.96 24.9878 167.471C24.9878 167.005 24.8287 166.624 24.5104 166.328C24.2035 166.033 23.7943 165.8 23.2829 165.629L21.3563 164.982C20.7425 164.777 20.1514 164.527 19.5831 164.231C19.0262 163.924 18.5658 163.527 18.2021 163.038C17.8384 162.538 17.6565 161.901 17.6565 161.128C17.6565 160.333 17.8554 159.662 18.2533 159.116C18.6624 158.571 19.2194 158.156 19.9241 157.872C20.6402 157.588 21.4586 157.446 22.3792 157.446C23.5613 157.446 24.4934 157.645 25.1754 158.042C25.8573 158.44 26.3518 158.946 26.6587 159.56C26.9769 160.162 27.1702 160.793 27.2383 161.452H24.5786C24.5559 161.134 24.465 160.833 24.3058 160.549C24.1581 160.253 23.9194 160.014 23.5898 159.833C23.2601 159.651 22.8168 159.56 22.2599 159.56C21.6347 159.56 21.1687 159.69 20.8618 159.952C20.5663 160.213 20.4185 160.543 20.4185 160.941C20.4185 161.373 20.572 161.719 20.8789 161.981C21.1971 162.242 21.6177 162.464 22.1405 162.646L24.0671 163.294C24.6923 163.498 25.2833 163.754 25.8403 164.061C26.3972 164.368 26.8519 164.777 27.2042 165.288C27.568 165.789 27.7498 166.448 27.7498 167.266C27.7498 168.505 27.3065 169.483 26.42 170.199C25.5448 170.903 24.3115 171.256 22.7202 171.256ZM29.755 171V157.701H32.5511V162.816H33.5741L37.3932 157.701H40.5644V157.804L35.961 163.805L41.3146 170.898V171H37.9047L33.5741 165.067H32.5511V171H29.755ZM47.3869 171.239C45.9775 171.239 44.801 170.96 43.8576 170.403C42.9256 169.835 42.2266 169.034 41.7605 167.999C41.3059 166.965 41.0786 165.749 41.0786 164.351C41.0786 162.941 41.3059 161.725 41.7605 160.702C42.2266 159.668 42.9256 158.872 43.8576 158.315C44.801 157.747 45.9775 157.463 47.3869 157.463C48.8077 157.463 49.9841 157.747 50.9161 158.315C51.8482 158.872 52.5415 159.668 52.9962 160.702C53.4622 161.725 53.6952 162.941 53.6952 164.351C53.6952 165.749 53.4622 166.965 52.9962 167.999C52.5415 169.034 51.8482 169.835 50.9161 170.403C49.9841 170.96 48.8077 171.239 47.3869 171.239ZM47.3869 169.09C48.5349 169.09 49.376 168.681 49.9102 167.863C50.4558 167.033 50.7286 165.862 50.7286 164.351C50.7286 162.828 50.4558 161.657 49.9102 160.838C49.376 160.02 48.5349 159.611 47.3869 159.611C46.2389 159.611 45.3921 160.02 44.8465 160.838C44.3123 161.657 44.0452 162.828 44.0452 164.351C44.0452 165.862 44.3123 167.033 44.8465 167.863C45.3921 168.681 46.2389 169.09 47.3869 169.09ZM55.5091 171V157.701H61.1525C62.2891 157.701 63.2098 157.866 63.9145 158.196C64.6306 158.514 65.1535 158.957 65.4831 159.526C65.8241 160.083 65.9946 160.731 65.9946 161.469C65.9946 162.31 65.7729 163.038 65.3296 163.652C64.8864 164.265 64.2328 164.703 63.3689 164.964L66.3526 170.898V171H63.3178L60.6069 165.374H58.3393V171H55.5091ZM58.3393 163.294H60.7433C61.4821 163.294 62.0561 163.169 62.4653 162.919C62.8859 162.668 63.0962 162.219 63.0962 161.572C63.0962 160.912 62.8859 160.463 62.4653 160.225C62.0448 159.975 61.4708 159.85 60.7433 159.85H58.3393V163.294ZM67.9566 171V157.701H73.5147C75.2197 157.701 76.4643 158.065 77.2486 158.793C78.0329 159.509 78.425 160.475 78.425 161.691C78.425 162.907 78.0329 163.879 77.2486 164.606C76.4757 165.334 75.2311 165.698 73.5147 165.698H70.7868V171H67.9566ZM70.7868 163.549H73.0885C73.8614 163.549 74.4638 163.419 74.8957 163.157C75.339 162.884 75.5607 162.401 75.5607 161.708C75.5607 161.026 75.339 160.549 74.8957 160.276C74.4638 159.992 73.8614 159.85 73.0885 159.85H70.7868V163.549ZM80.2243 171V157.701H83.0886V171H80.2243ZM84.6558 171V170.898L88.5772 163.941L85.2184 157.804V157.701H88.2703L90.6743 162.151H91.0835L93.4193 157.701H96.3518V157.804L93.0101 163.941L96.8974 170.898V171H93.7261L90.93 165.732H90.5208L87.6906 171H84.6558Z" fill="#C9FA49"/>
<path d="M4.65296 46.5932L56.6257 15.5578L56.6259 25.6648L13.3967 51.6975L13.3967 103.253L56.5276 129.082L99.4616 103.253L99.4617 51.6975L56.6259 25.6648L56.6257 15.5578L108.206 46.5931L108.206 108.153L56.5276 139.495L4.65319 108.153L4.65296 46.5932Z" fill="#C9FA49"/>
<path d="M13.3959 55.0666L56.6249 29.4719L97.0047 53.6373L97.0047 75.7908L56.6249 51.4935L38.1543 62.1824L29.9015 57.1339L56.6249 41.5908L86.7869 59.6606L86.7869 55.8833L56.6249 37.6093L26.8558 55.2708L99.9521 99.986L56.3301 125.508L16.2454 101.415L16.2454 79.3639L22.9259 83.4475L56.6249 103.457L74.8993 92.1747L83.5451 97.3912L56.6249 113.564L22.9259 93.4522L22.9259 97.1275L56.6249 117.035L86.4922 99.1693L13.3959 55.0666Z" fill="#C9FA49"/>
</g>
<defs>
<clipPath id="clip0_195_29">
<rect width="134" height="176" fill="white"/>
</clipPath>
</defs>
</svg>
