<svg width="86" height="100" viewBox="0 0 86 100" fill="none" xmlns="http://www.w3.org/2000/svg">
<path d="M10.3023 80.1114C10.2795 79.8614 10.1784 79.667 9.99886 79.5284C9.82159 79.3875 9.56818 79.317 9.23864 79.317C9.02045 79.317 8.83864 79.3455 8.69318 79.4023C8.54773 79.4591 8.43864 79.5375 8.36591 79.6375C8.29318 79.7352 8.25568 79.8477 8.25341 79.975C8.24886 80.0795 8.26932 80.1716 8.31477 80.2511C8.3625 80.3307 8.43068 80.4011 8.51932 80.4625C8.61023 80.5216 8.71932 80.5739 8.84659 80.6193C8.97386 80.6648 9.11705 80.7045 9.27614 80.7386L9.87614 80.875C10.2216 80.95 10.5261 81.05 10.7898 81.175C11.0557 81.3 11.2784 81.4489 11.458 81.6216C11.6398 81.7943 11.7773 81.9932 11.8705 82.2182C11.9636 82.4432 12.0114 82.6955 12.0136 82.975C12.0114 83.4159 11.9 83.7943 11.6795 84.1102C11.4591 84.4261 11.142 84.6682 10.7284 84.8364C10.317 85.0045 9.82045 85.0886 9.23864 85.0886C8.65455 85.0886 8.14545 85.0011 7.71136 84.8261C7.27727 84.6511 6.93977 84.3852 6.69886 84.0284C6.45795 83.6716 6.33409 83.2205 6.32727 82.675H7.94318C7.95682 82.9 8.01705 83.0875 8.12386 83.2375C8.23068 83.3875 8.37727 83.5011 8.56364 83.5784C8.75227 83.6557 8.97045 83.6943 9.21818 83.6943C9.44545 83.6943 9.63864 83.6636 9.79773 83.6023C9.95909 83.5409 10.083 83.4557 10.1693 83.3466C10.2557 83.2375 10.3 83.1125 10.3023 82.9716C10.3 82.8398 10.2591 82.7273 10.1795 82.6341C10.1 82.5386 9.97727 82.4568 9.81136 82.3886C9.64773 82.3182 9.43864 82.2534 9.18409 82.1943L8.45455 82.0239C7.85 81.8852 7.37386 81.6614 7.02614 81.3523C6.67841 81.0409 6.50568 80.6205 6.50795 80.0909C6.50568 79.6591 6.62159 79.2807 6.85568 78.9557C7.08977 78.6307 7.41364 78.3773 7.82727 78.1955C8.24091 78.0136 8.7125 77.9227 9.24205 77.9227C9.78295 77.9227 10.2523 78.0148 10.65 78.1989C11.05 78.3807 11.3602 78.6364 11.5807 78.9659C11.8011 79.2955 11.9136 79.6773 11.9182 80.1114H10.3023ZM13.8259 85V78.0182H15.5134V80.9705H15.6055L17.9134 78.0182H19.9009L17.4259 81.1341L19.9452 85H17.927L16.1884 82.2557L15.5134 83.108V85H13.8259ZM27.7038 81.5091C27.7038 82.2773 27.5561 82.9284 27.2606 83.4625C26.9652 83.9966 26.5652 84.4023 26.0606 84.6795C25.5584 84.9568 24.9947 85.0955 24.3697 85.0955C23.7424 85.0955 23.1777 84.9557 22.6754 84.6761C22.1731 84.3966 21.7743 83.9909 21.4788 83.4591C21.1856 82.925 21.039 82.275 21.039 81.5091C21.039 80.7409 21.1856 80.0898 21.4788 79.5557C21.7743 79.0216 22.1731 78.6159 22.6754 78.3386C23.1777 78.0614 23.7424 77.9227 24.3697 77.9227C24.9947 77.9227 25.5584 78.0614 26.0606 78.3386C26.5652 78.6159 26.9652 79.0216 27.2606 79.5557C27.5561 80.0898 27.7038 80.7409 27.7038 81.5091ZM25.9788 81.5091C25.9788 81.0545 25.914 80.6705 25.7845 80.3568C25.6572 80.0432 25.4731 79.8057 25.2322 79.6443C24.9936 79.483 24.7061 79.4023 24.3697 79.4023C24.0356 79.4023 23.7481 79.483 23.5072 79.6443C23.2663 79.8057 23.0811 80.0432 22.9515 80.3568C22.8243 80.6705 22.7606 81.0545 22.7606 81.5091C22.7606 81.9636 22.8243 82.3477 22.9515 82.6614C23.0811 82.975 23.2663 83.2125 23.5072 83.3739C23.7481 83.5352 24.0356 83.6159 24.3697 83.6159C24.7061 83.6159 24.9936 83.5352 25.2322 83.3739C25.4731 83.2125 25.6572 82.975 25.7845 82.6614C25.914 82.3477 25.9788 81.9636 25.9788 81.5091ZM29.649 85V78.0182H32.5331C33.0559 78.0182 33.507 78.1125 33.8865 78.3011C34.2684 78.4875 34.5627 78.7557 34.7695 79.1057C34.9763 79.4534 35.0797 79.8659 35.0797 80.3432C35.0797 80.8273 34.974 81.2386 34.7627 81.5773C34.5513 81.9136 34.2513 82.1705 33.8627 82.3477C33.474 82.5227 33.0138 82.6102 32.482 82.6102H30.6581V81.2807H32.1684C32.4229 81.2807 32.6354 81.2477 32.8059 81.1818C32.9786 81.1136 33.1093 81.0114 33.1979 80.875C33.2865 80.7364 33.3309 80.5591 33.3309 80.3432C33.3309 80.1273 33.2865 79.9489 33.1979 79.808C33.1093 79.6648 32.9786 79.558 32.8059 79.4875C32.6331 79.4148 32.4206 79.3784 32.1684 79.3784H31.3365V85H29.649ZM33.5797 81.8091L35.3184 85H33.4774L31.7729 81.8091H33.5797ZM36.9653 85V78.0182H39.8494C40.3721 78.0182 40.8232 78.1205 41.2028 78.325C41.5846 78.5273 41.8789 78.8102 42.0857 79.1739C42.2926 79.5352 42.396 79.9557 42.396 80.4352C42.396 80.917 42.2903 81.3386 42.0789 81.7C41.8698 82.0591 41.571 82.3375 41.1823 82.5352C40.7937 82.733 40.3323 82.8318 39.7982 82.8318H38.0187V81.5023H39.4846C39.7391 81.5023 39.9516 81.458 40.1221 81.3693C40.2948 81.2807 40.4255 81.1568 40.5141 80.9977C40.6028 80.8364 40.6471 80.6489 40.6471 80.4352C40.6471 80.2193 40.6028 80.033 40.5141 79.8761C40.4255 79.717 40.2948 79.5943 40.1221 79.508C39.9494 79.4216 39.7369 79.3784 39.4846 79.3784H38.6528V85H36.9653ZM45.8753 78.0182V85H44.1878V78.0182H45.8753ZM49.6026 78.0182L50.8776 80.2239H50.9322L52.2208 78.0182H54.1094L52.0026 81.5091L54.1776 85H52.2413L50.9322 82.7705H50.8776L49.5685 85H47.6458L49.8106 81.5091L47.7003 78.0182H49.6026Z" fill="#C9FA49"/>
<path d="M75.3129 83.1679C75.3189 83.1672 75.325 83.1678 75.3308 83.1698C75.3365 83.1717 75.3418 83.1749 75.3462 83.1791C75.3506 83.1833 75.3541 83.1884 75.3563 83.1941C75.3586 83.1997 75.3596 83.2058 75.3593 83.212C75.3525 83.3308 75.335 83.4438 75.3066 83.551C75.1704 84.062 75.0245 84.585 74.8689 85.12C74.8601 85.151 74.8705 85.1605 74.9001 85.1485C74.9274 85.1376 74.9633 85.104 74.9828 85.0763C75.2415 84.7155 75.5376 84.3538 75.7728 84.0097C76.5788 82.83 77.2709 81.5235 77.6118 80.1289C77.8717 79.0666 77.9438 77.9875 77.599 76.9537C77.3001 76.0568 76.7349 75.387 75.8583 74.9938C75.5891 74.8728 75.3974 74.7984 75.2832 74.7706C74.3922 74.5511 73.5012 74.5495 72.6101 74.7659C72.5932 74.7698 72.5934 74.7718 72.6105 74.7718C72.6425 74.7714 72.6741 74.7745 72.7053 74.7687C73.1134 74.6925 73.5239 74.6709 73.9369 74.7039C74.0969 74.7168 74.258 74.7624 74.4195 74.7983C75.3242 74.9977 75.9921 75.7006 76.2125 76.5835C76.7075 78.5692 75.5173 80.9337 74.3984 82.5133C74.1308 82.8909 73.8687 83.274 73.5484 83.6103C73.5457 83.613 73.5439 83.6164 73.5434 83.6202C73.5428 83.624 73.5435 83.6278 73.5453 83.6312C73.5471 83.6346 73.55 83.6374 73.5535 83.6391C73.557 83.6408 73.5609 83.6413 73.5648 83.6407C73.8402 83.5919 74.148 83.4893 74.3746 83.4347C74.5811 83.3848 74.7869 83.3328 74.9918 83.2787C75.087 83.2537 75.2017 83.1807 75.3129 83.1679Z" stroke="#C9FA49" stroke-width="0.2"/>
<path d="M74.3489 77.1991C74.3489 76.9146 74.2359 76.6417 74.0347 76.4405C73.8335 76.2393 73.5606 76.1263 73.2761 76.1263C72.9916 76.1263 72.7187 76.2393 72.5175 76.4405C72.3163 76.6417 72.2033 76.9146 72.2033 77.1991C72.2033 77.4836 72.3163 77.7565 72.5175 77.9577C72.7187 78.1589 72.9916 78.2719 73.2761 78.2719C73.5606 78.2719 73.8335 78.1589 74.0347 77.9577C74.2359 77.7565 74.3489 77.4836 74.3489 77.1991Z" stroke="#C9FA49" stroke-width="0.2"/>
<path d="M62.9735 80.4652C62.9519 80.397 62.9668 80.3443 63.0183 80.3072C63.204 80.173 63.3273 80.1016 63.4225 79.8909C63.52 79.6748 63.5836 79.4661 63.5353 79.2269C63.438 78.7473 63.1412 78.4346 62.645 78.2887C61.8773 78.0628 60.7572 78.0956 60.2302 78.749C60.0698 78.948 59.9118 79.1887 59.9255 79.4411C59.9259 79.4466 59.9282 79.4518 59.9322 79.4557C59.9361 79.4597 59.9414 79.4621 59.947 79.4626C60.1533 79.4778 60.3503 79.4899 60.5571 79.5371C60.7431 79.5795 60.9316 79.6195 61.1228 79.6572C61.126 79.6579 61.1293 79.6579 61.1326 79.6571C61.1358 79.6564 61.1389 79.655 61.1415 79.653C61.1442 79.6511 61.1465 79.6485 61.1481 79.6456C61.1498 79.6427 61.1509 79.6395 61.1512 79.6362C61.1914 79.2632 61.4848 78.8661 61.9128 79.0401C62.3984 79.2378 62.2779 79.793 61.8796 79.9896C61.7602 80.0485 61.6073 80.0407 61.47 80.0489C61.4572 80.0497 61.4499 80.0563 61.4481 80.0688C61.4039 80.3603 61.3812 80.6536 61.3799 80.9485C61.3799 80.9805 61.3951 80.9916 61.4255 80.9817C61.644 80.9118 61.9202 80.883 62.125 80.9938C62.4761 81.1837 62.5319 81.6585 62.3602 81.989C62.194 82.3092 61.8004 82.4512 61.4887 82.2394C61.2827 82.0994 61.1981 81.8848 61.1493 81.6472C61.1478 81.6402 61.1437 81.6341 61.1379 81.6301C61.1321 81.626 61.125 81.6243 61.1181 81.6254L59.8326 81.8072C59.8165 81.8095 59.8111 81.8185 59.8163 81.8341C59.9446 82.223 60.1701 82.6163 60.5154 82.8382C61.0471 83.1808 61.8336 83.2174 62.4273 83.1004C62.9844 82.9908 63.3909 82.7267 63.63 82.2207C63.8988 81.6519 63.8255 80.5771 62.9984 80.4854C62.9857 80.4841 62.9774 80.4774 62.9735 80.4652Z" stroke="#C9FA49" stroke-width="0.2"/>
<path d="M65.0661 82.7337C65.3544 82.9974 65.6318 83.0442 65.9782 83.1121C66.7857 83.2709 67.6775 83.0563 68.1016 82.3065C68.1676 82.19 68.2141 82.0583 68.2409 81.9113C68.393 81.0757 68.1308 80.2311 67.2663 79.9381C66.7098 79.7495 66.2123 79.8571 65.7738 80.2607C65.7694 80.2648 65.7641 80.2675 65.7583 80.2688C65.7525 80.27 65.7465 80.2696 65.7409 80.2677C65.7352 80.2658 65.7303 80.2624 65.7265 80.2579C65.7226 80.2533 65.7201 80.2479 65.7191 80.242C65.6782 79.9927 65.789 79.4462 65.9478 79.2449C66.2848 78.8177 66.7857 78.9808 66.8727 79.4813C66.8753 79.4953 66.8838 79.502 66.8981 79.5012C67.3026 79.4832 67.6846 79.3685 68.1504 79.3631C68.168 79.3628 68.1775 79.354 68.1788 79.3365C68.182 79.2978 68.1734 79.2518 68.1531 79.1984C67.964 78.702 67.6227 78.3857 67.129 78.2497C66.6398 78.1151 66.2372 78.1412 65.7511 78.2618C65.3072 78.3722 64.7669 78.7693 64.6011 79.2109C64.3553 79.8661 64.2775 80.5342 64.3678 81.2153C64.4501 81.8356 64.6132 82.3202 65.0661 82.7337Z" stroke="#C9FA49" stroke-width="0.2"/>
<path d="M69.4658 82.713C69.9546 83.1835 70.7821 83.2358 71.4004 83.086C71.8869 82.9681 72.231 82.7157 72.449 82.2753C72.6975 81.7724 72.7701 80.9836 72.7358 80.2627C72.7295 80.135 72.6909 79.9044 72.6199 79.571C72.4998 79.0046 72.1818 78.4908 71.6095 78.3016C71.0828 78.127 70.5541 78.1196 70.0233 78.2793C69.2708 78.5056 68.9645 79.1157 68.8623 79.8429C68.7731 80.477 68.7956 81.1038 68.9298 81.7233C69.0254 82.1637 69.1545 82.4138 69.4658 82.713Z" stroke="#C9FA49" stroke-width="0.2"/>
<path d="M69.9613 85.1891C70.2714 85.5172 70.5995 85.7973 70.8691 86.1234C70.8737 86.129 70.8771 86.1354 70.8792 86.1423C70.8813 86.1493 70.882 86.1565 70.8813 86.1637C70.8805 86.1709 70.8783 86.1779 70.8748 86.1843C70.8713 86.1906 70.8666 86.1962 70.8609 86.2006C69.8094 87.0256 68.6567 87.6705 67.4029 88.1352C66.7524 88.3766 66.0506 88.5057 65.2974 88.5226C65.1012 88.5269 64.9003 88.4918 64.704 88.4625C63.5271 88.285 62.6669 87.4205 62.5713 86.2248C62.5369 85.7923 62.5379 85.3783 62.574 84.9827C62.5779 84.9411 62.5753 84.9071 62.5662 84.8809C62.5563 84.8515 62.5485 84.8521 62.5428 84.8828C62.5222 84.9967 62.509 85.1114 62.503 85.2269C62.4788 85.6974 62.4382 86.2002 62.4687 86.6551C62.5564 87.9726 63.2953 89.2381 64.5847 89.7211C65.2209 89.9594 65.8541 90.0425 66.5302 90.0133C67.6545 89.9649 68.7987 89.6165 69.8099 89.1363C70.7134 88.7068 71.5198 88.1848 72.3363 87.6125C72.343 87.6078 72.3511 87.6056 72.3592 87.6063C72.3674 87.607 72.375 87.6106 72.3808 87.6164L73.3646 88.601C73.3844 88.6205 73.3978 88.6169 73.4048 88.5901L74.6497 83.9575C74.6603 83.9179 74.6458 83.9034 74.606 83.9138C73.257 84.2737 71.9115 84.6357 70.5694 84.9999C70.3814 85.051 70.1747 85.0884 69.9784 85.1321C69.9391 85.1407 69.9334 85.1597 69.9613 85.1891Z" stroke="#C9FA49" stroke-width="0.2"/>
<path d="M73.8175 77.1991C73.8175 77.0554 73.7605 76.9175 73.6588 76.8159C73.5572 76.7143 73.4194 76.6572 73.2757 76.6572C73.132 76.6572 72.9941 76.7143 72.8925 76.8159C72.7909 76.9175 72.7338 77.0554 72.7338 77.1991C72.7338 77.3428 72.7909 77.4806 72.8925 77.5822C72.9941 77.6839 73.132 77.741 73.2757 77.741C73.4194 77.741 73.5572 77.6839 73.6588 77.5822C73.7605 77.4806 73.8175 77.3428 73.8175 77.1991Z" stroke="#C9FA49" stroke-width="0.2"/>
<path d="M66.4513 82.3169C66.5379 82.3103 66.6221 82.2823 66.6989 82.2347C66.7757 82.1871 66.8438 82.1207 66.8992 82.0394C66.9545 81.9581 66.9961 81.8634 67.0216 81.7608C67.047 81.6581 67.0558 81.5495 67.0475 81.4412C67.0307 81.2224 66.945 81.0179 66.8094 80.8727C66.6738 80.7275 66.4993 80.6535 66.3243 80.6669C66.2377 80.6736 66.1535 80.7015 66.0767 80.7492C65.9999 80.7968 65.9318 80.8631 65.8764 80.9445C65.8211 81.0258 65.7795 81.1205 65.754 81.2231C65.7286 81.3258 65.7198 81.4344 65.7281 81.5427C65.745 81.7615 65.8306 81.966 65.9662 82.1112C66.1018 82.2564 66.2763 82.3304 66.4513 82.3169Z" stroke="#C9FA49" stroke-width="0.2"/>
<path d="M70.4996 82.1473C70.8359 82.3865 71.1819 82.111 71.2966 81.7822C71.3487 81.6324 71.3797 81.5062 71.3899 81.4038C71.4331 80.9564 71.432 80.4754 71.3868 79.9607C71.3528 79.5804 71.2237 79.0872 70.7606 79.0681C70.1595 79.0439 70.1466 80.0138 70.1388 80.4078C70.1298 80.874 70.0826 81.8512 70.4996 82.1473Z" stroke="#C9FA49" stroke-width="0.2"/>
<path d="M75.3129 83.1679C75.2017 83.1807 75.087 83.2537 74.9918 83.2787C74.7869 83.3328 74.5811 83.3848 74.3746 83.4347C74.148 83.4893 73.8402 83.5919 73.5648 83.6407C73.5609 83.6413 73.557 83.6408 73.5535 83.6391C73.55 83.6374 73.5471 83.6346 73.5453 83.6312C73.5435 83.6278 73.5428 83.624 73.5434 83.6202C73.5439 83.6164 73.5457 83.613 73.5484 83.6103C73.8687 83.274 74.1308 82.8909 74.3984 82.5133C75.5173 80.9337 76.7075 78.5692 76.2125 76.5835C75.9921 75.7006 75.3242 74.9977 74.4195 74.7983C74.258 74.7624 74.0969 74.7168 73.9369 74.7039C73.5239 74.6709 73.1134 74.6925 72.7053 74.7687C72.6741 74.7745 72.6425 74.7714 72.6105 74.7718C72.5934 74.7718 72.5932 74.7698 72.6101 74.7659C73.5012 74.5495 74.3922 74.5511 75.2832 74.7706C75.3974 74.7984 75.5891 74.8728 75.8583 74.9938C76.7349 75.387 77.3001 76.0568 77.599 76.9537C77.9438 77.9875 77.8717 79.0666 77.6118 80.1289C77.2709 81.5235 76.5788 82.83 75.7728 84.0097C75.5376 84.3538 75.2415 84.7155 74.9828 85.0763C74.9633 85.104 74.9274 85.1376 74.9001 85.1485C74.8705 85.1605 74.8601 85.151 74.8689 85.12C75.0245 84.585 75.1704 84.062 75.3066 83.551C75.335 83.4438 75.3525 83.3308 75.3593 83.212C75.3596 83.2058 75.3586 83.1997 75.3563 83.1941C75.3541 83.1884 75.3506 83.1833 75.3462 83.1791C75.3418 83.1749 75.3365 83.1717 75.3308 83.1698C75.325 83.1678 75.3189 83.1672 75.3129 83.1679Z" fill="#C9FA49"/>
<path d="M74.3489 77.1991C74.3489 77.4836 74.2359 77.7565 74.0347 77.9577C73.8335 78.1589 73.5606 78.2719 73.2761 78.2719C72.9915 78.2719 72.7187 78.1589 72.5175 77.9577C72.3163 77.7565 72.2032 77.4836 72.2032 77.1991C72.2032 76.9146 72.3163 76.6417 72.5175 76.4405C72.7187 76.2393 72.9915 76.1263 73.2761 76.1263C73.5606 76.1263 73.8335 76.2393 74.0347 76.4405C74.2359 76.6417 74.3489 76.9146 74.3489 77.1991ZM73.8176 77.1991C73.8176 77.0554 73.7605 76.9175 73.6588 76.8159C73.5572 76.7143 73.4194 76.6572 73.2757 76.6572C73.132 76.6572 72.9941 76.7143 72.8925 76.8159C72.7909 76.9175 72.7338 77.0554 72.7338 77.1991C72.7338 77.3428 72.7909 77.4806 72.8925 77.5822C72.9941 77.6839 73.132 77.741 73.2757 77.741C73.4194 77.741 73.5572 77.6839 73.6588 77.5822C73.7605 77.4806 73.8176 77.3428 73.8176 77.1991Z" fill="#C9FA49"/>
<path d="M62.9984 80.4854C63.8255 80.5771 63.8988 81.6519 63.63 82.2207C63.3909 82.7267 62.9844 82.9908 62.4273 83.1004C61.8336 83.2174 61.0471 83.1808 60.5154 82.8382C60.1701 82.6163 59.9446 82.223 59.8163 81.8341C59.8111 81.8185 59.8165 81.8095 59.8326 81.8072L61.1181 81.6254C61.125 81.6243 61.1321 81.626 61.1379 81.6301C61.1437 81.6341 61.1478 81.6402 61.1493 81.6472C61.1981 81.8848 61.2827 82.0994 61.4887 82.2394C61.8004 82.4512 62.194 82.3092 62.3602 81.989C62.5319 81.6585 62.4761 81.1837 62.125 80.9938C61.9202 80.883 61.644 80.9118 61.4255 80.9817C61.3951 80.9916 61.3799 80.9805 61.3799 80.9485C61.3812 80.6536 61.4039 80.3603 61.4481 80.0688C61.4499 80.0563 61.4572 80.0497 61.47 80.0489C61.6073 80.0407 61.7602 80.0485 61.8796 79.9896C62.2779 79.793 62.3984 79.2378 61.9128 79.0401C61.4848 78.8661 61.1914 79.2632 61.1512 79.6362C61.1509 79.6395 61.1498 79.6427 61.1481 79.6456C61.1465 79.6485 61.1442 79.6511 61.1415 79.653C61.1389 79.655 61.1358 79.6564 61.1326 79.6571C61.1293 79.6579 61.126 79.6579 61.1228 79.6572C60.9316 79.6195 60.7431 79.5795 60.5571 79.5371C60.3503 79.4899 60.1533 79.4778 59.947 79.4626C59.9414 79.4621 59.9361 79.4597 59.9322 79.4557C59.9282 79.4518 59.9259 79.4466 59.9255 79.4411C59.9118 79.1887 60.0698 78.948 60.2302 78.749C60.7572 78.0956 61.8773 78.0628 62.645 78.2887C63.1412 78.4346 63.438 78.7473 63.5353 79.2269C63.5836 79.4661 63.52 79.6748 63.4225 79.8909C63.3273 80.1016 63.204 80.173 63.0183 80.3072C62.9668 80.3443 62.9519 80.397 62.9735 80.4652C62.9774 80.4774 62.9857 80.4841 62.9984 80.4854Z" fill="#C9FA49"/>
<path d="M65.0661 82.7337C64.6131 82.3202 64.4501 81.8356 64.3677 81.2153C64.2775 80.5342 64.3553 79.8661 64.601 79.2109C64.7668 78.7693 65.3071 78.3722 65.7511 78.2618C66.2372 78.1412 66.6398 78.1151 67.129 78.2497C67.6226 78.3857 67.964 78.702 68.1531 79.1984C68.1733 79.2518 68.1819 79.2978 68.1788 79.3365C68.1775 79.354 68.168 79.3628 68.1503 79.3631C67.6845 79.3685 67.3026 79.4832 66.898 79.5012C66.8837 79.502 66.8753 79.4953 66.8727 79.4813C66.7857 78.9808 66.2848 78.8177 65.9477 79.2449C65.7889 79.4462 65.6782 79.9927 65.7191 80.242C65.7201 80.2479 65.7226 80.2533 65.7264 80.2579C65.7302 80.2624 65.7352 80.2658 65.7408 80.2677C65.7464 80.2696 65.7524 80.27 65.7582 80.2688C65.764 80.2675 65.7694 80.2648 65.7737 80.2607C66.2122 79.8571 66.7097 79.7495 67.2663 79.9381C68.1308 80.2311 68.393 81.0757 68.2408 81.9113C68.214 82.0583 68.1676 82.19 68.1016 82.3065C67.6775 83.0563 66.7857 83.2709 65.9782 83.1121C65.6317 83.0442 65.3544 82.9974 65.0661 82.7337ZM66.4513 82.3169C66.5379 82.3103 66.622 82.2823 66.6989 82.2347C66.7757 82.1871 66.8438 82.1207 66.8991 82.0394C66.9545 81.9581 66.9961 81.8634 67.0215 81.7608C67.047 81.6581 67.0558 81.5495 67.0475 81.4412C67.0306 81.2224 66.945 81.0179 66.8094 80.8727C66.6737 80.7275 66.4993 80.6535 66.3243 80.6669C66.2377 80.6736 66.1535 80.7015 66.0767 80.7492C65.9998 80.7968 65.9318 80.8631 65.8764 80.9445C65.8211 81.0258 65.7795 81.1205 65.754 81.2231C65.7286 81.3258 65.7197 81.4344 65.7281 81.5427C65.7449 81.7615 65.8306 81.966 65.9662 82.1112C66.1018 82.2564 66.2763 82.3304 66.4513 82.3169Z" fill="#C9FA49"/>
<path d="M69.4658 82.713C69.1545 82.4138 69.0253 82.1637 68.9298 81.7233C68.7956 81.1038 68.7731 80.477 68.8623 79.8429C68.9645 79.1157 69.2707 78.5056 70.0233 78.2793C70.5541 78.1196 71.0828 78.127 71.6095 78.3016C72.1818 78.4908 72.4997 79.0046 72.6199 79.571C72.6909 79.9044 72.7295 80.135 72.7357 80.2627C72.7701 80.9836 72.6975 81.7724 72.449 82.2753C72.2309 82.7157 71.8868 82.9681 71.4004 83.086C70.782 83.2358 69.9546 83.1835 69.4658 82.713ZM70.4996 82.1473C70.8359 82.3865 71.1819 82.1111 71.2966 81.7822C71.3486 81.6324 71.3797 81.5062 71.3898 81.4038C71.433 80.9564 71.432 80.4754 71.3867 79.9607C71.3528 79.5804 71.2236 79.0873 70.7606 79.0681C70.1594 79.044 70.1465 80.0138 70.1387 80.4078C70.1298 80.874 70.0826 81.8512 70.4996 82.1473Z" fill="#C9FA49"/>
<path d="M69.9613 85.1891C69.9334 85.1597 69.9391 85.1407 69.9784 85.1321C70.1747 85.0884 70.3814 85.051 70.5694 84.9999C71.9115 84.6357 73.257 84.2737 74.606 83.9138C74.6458 83.9034 74.6603 83.9179 74.6497 83.9575L73.4048 88.5901C73.3978 88.6169 73.3844 88.6205 73.3646 88.601L72.3808 87.6164C72.375 87.6106 72.3674 87.607 72.3592 87.6063C72.3511 87.6056 72.343 87.6078 72.3363 87.6125C71.5198 88.1848 70.7134 88.7068 69.8099 89.1363C68.7987 89.6165 67.6545 89.9649 66.5302 90.0133C65.8541 90.0425 65.2209 89.9594 64.5847 89.7211C63.2953 89.2381 62.5564 87.9726 62.4687 86.6551C62.4382 86.2002 62.4788 85.6974 62.503 85.2269C62.509 85.1114 62.5222 84.9967 62.5428 84.8828C62.5485 84.8521 62.5563 84.8515 62.5662 84.8809C62.5753 84.9071 62.5779 84.9411 62.574 84.9827C62.5379 85.3783 62.5369 85.7923 62.5713 86.2248C62.6669 87.4205 63.5271 88.285 64.704 88.4625C64.9003 88.4918 65.1012 88.5269 65.2974 88.5226C66.0506 88.5057 66.7524 88.3766 67.4029 88.1352C68.6567 87.6705 69.8094 87.0256 70.8609 86.2006C70.8666 86.1962 70.8713 86.1906 70.8748 86.1843C70.8783 86.1779 70.8805 86.1709 70.8813 86.1637C70.882 86.1565 70.8813 86.1493 70.8792 86.1423C70.8771 86.1354 70.8737 86.129 70.8691 86.1234C70.5995 85.7973 70.2714 85.5172 69.9613 85.1891Z" fill="#C9FA49"/>
</svg>
