<svg width="1024" height="1024" viewBox="0 0 1024 1024" fill="none" xmlns="http://www.w3.org/2000/svg">
<g clip-path="url(#clip0_2740_2586)">
<path d="M512.006 1009.83C786.946 1009.83 1009.83 786.946 1009.83 512.006C1009.83 237.065 786.946 14.1824 512.006 14.1824C237.065 14.1824 14.1824 237.065 14.1824 512.006C14.1824 786.946 237.065 1009.83 512.006 1009.83Z" stroke="white" stroke-width="30" stroke-miterlimit="10"/>
<path d="M883.606 691.01C881.904 681.286 880.032 671.54 878.16 661.828C873.372 636.878 868.573 611.929 863.785 586.979C858.906 561.576 854.027 536.172 849.148 510.769C845.495 491.742 842.795 472.216 838.256 453.416C831.222 424.279 815.633 413.694 812.671 411.027C798.137 397.968 782.276 393.384 777.011 392.046C770.34 390.355 762.591 389.913 747.387 389.084C733.386 388.324 721.791 388.075 713.69 387.995C713.758 387.496 714.847 377.432 707.597 371.839C705.521 370.239 702.764 369.116 699.076 368.889H678.767C676.668 358.643 674.581 348.409 672.482 338.164C669.112 321.712 665.754 305.261 662.384 288.798C661.351 283.726 660.671 278.689 658.47 273.935C655.803 268.194 651.719 263.122 646.715 259.242C635.869 250.835 622.038 249.666 608.922 247.601C580.705 243.176 552.193 240.669 523.624 240.363C494.964 240.033 466.055 241.645 437.69 245.888C421.59 248.305 405.332 251.152 393.963 263.894C389.992 268.341 386.917 273.583 384.909 279.199C383.014 284.498 382.776 289.933 381.619 295.345C379.837 303.684 378.453 312.103 376.921 320.499C373.018 341.829 371.6 350.474 368.423 365.746C368.276 366.472 368.151 367.062 368.06 367.459C364.827 367.539 360.277 367.675 354.82 367.947C342.385 368.56 340.093 369.104 337.926 370.5C336.201 371.612 331.719 375.072 330.245 384.818C314.27 386.055 302.844 386.656 294.006 386.929C288.106 387.11 278.417 387.417 265.652 390.23C264.484 390.491 263.417 390.752 262.373 391.036C251.867 393.816 241.747 398.104 232.602 403.993C220.416 411.856 207.675 422.918 203.931 437.509C199.2 455.957 195.331 474.689 190.974 493.228C185.403 516.907 179.832 540.597 174.273 564.276C168.486 588.885 162.7 613.495 156.913 638.104C152.33 657.607 147.746 677.111 143.162 696.603C139.123 713.769 133.144 731.934 137.671 749.611C142.447 768.23 158.309 779.723 176.746 782.707C178.561 783.002 180.377 783.229 182.203 783.411C193.095 784.466 204.203 783.671 215.118 783.671H759.698C776.206 783.671 792.725 783.671 809.234 783.671C814.725 783.671 820.216 783.671 825.708 783.671C831.687 783.671 837.7 783.671 843.578 782.616C847.844 781.845 852.053 780.495 855.808 778.282C859.53 776.092 863.24 773.619 866.564 770.828C873.258 765.212 878.534 758.064 882.052 750.065C890.663 730.55 887.146 711.103 883.606 690.976V691.01ZM642.438 369.638C641.451 370.806 624.477 369.32 621.38 369.524C620.983 369.547 620.597 369.592 620.155 369.66C618.158 369.967 613.721 370.647 610.181 373.938C604.838 378.907 605.212 386.384 605.303 387.643C594.116 387.689 582.917 387.666 571.73 387.666H454.244C453.812 387.666 438.45 387.666 438.019 387.666C437.826 384.013 436.839 375.356 430.78 371.668C427.626 369.751 423.712 369.547 420.059 369.354C407.26 368.684 404.072 368.56 402.688 367.209C401.644 366.188 402.813 338.232 407.17 318.831C409.688 307.61 413.455 295.98 420.717 286.869C423.224 283.726 427.025 279.426 430.973 278.156C432.573 277.645 434.445 277.917 436.113 277.838C438.825 277.725 440.924 277.668 442.081 277.656C450.488 277.52 454.732 277.475 456.717 278.53C458.6 279.529 458.748 280.266 461.392 281.514C463.661 282.581 465.748 283.068 467.462 283.341C479.874 285.258 498.288 284.373 498.288 284.373C509.691 283.829 508.897 284.248 532.848 283.488C538.464 283.318 540.382 283.227 544.534 283.159C551.557 283.034 555.074 282.898 556.323 282.91C561.088 282.955 560.339 282.887 569.404 282.785C579.559 282.671 584.642 282.581 587.093 280.572C587.864 279.937 589.01 278.768 591.12 277.747C592.822 276.919 594.297 276.601 594.921 276.476C596.271 276.215 596.782 276.329 600.447 276.408C601.683 276.442 603.907 276.488 606.505 276.476C608.06 276.476 609.138 276.442 611.1 276.476C613.302 276.522 614.153 276.601 615.094 276.805C615.094 276.805 616.864 277.203 618.441 278.156C618.441 278.156 618.521 278.201 618.555 278.224C618.589 278.246 618.6 278.258 618.6 278.258C618.736 278.349 618.941 278.519 619.224 278.848C622.809 283.08 625.941 287.561 628.63 292.406C632.51 299.599 635.392 307.315 637.491 315.211C640.52 326.591 641.916 338.368 642.188 350.123C642.188 350.123 642.982 369.025 642.461 369.649L642.438 369.638Z" fill="white"/>
</g>
<defs>
<clipPath id="clip0_2740_2586">
<rect width="1024" height="1024" fill="white"/>
</clipPath>
</defs>
</svg>
