<svg width="86" height="25" viewBox="0 0 86 25" fill="none" xmlns="http://www.w3.org/2000/svg">
<path d="M10.0001 6.25519L18.8427 1.39887L18.8427 2.8333L11.2283 7.18843L10.0001 6.25519Z" fill="#C9FA49"/>
<path d="M14.5852 8.43268L18.8591 5.99588L18.8591 7.55128L15.8133 9.24494L14.5852 8.43268Z" fill="#C9FA49"/>
<path d="M11.2938 7.81061L18.8337 3.73199L18.8337 5.25283L12.5711 8.692L11.2938 7.81061Z" fill="#C9FA49"/>
<path d="M27.3087 8.24243L18.8428 2.83308L18.8428 1.39865L27.3087 6.70431L27.3087 8.24243Z" fill="#C9FA49"/>
<path d="M25.278 8.96843L18.7644 5.28731L18.7644 3.7319L25.278 7.65498L25.278 8.96843Z" fill="#C9FA49"/>
<path d="M18.7936 20.3574L12.0143 16.0714L12.0143 14.7234L18.7936 19.0267L18.7936 20.3574Z" fill="#C9FA49"/>
<path d="M18.7937 19.0268L25.1144 15.3284L26.0642 15.9506L18.7937 20.3576L18.7937 19.0268Z" fill="#C9FA49"/>
<path d="M18.7937 16.4169L22.8547 13.8419L24.1975 14.7233L18.7937 18.0242L18.7937 16.4169Z" fill="#C9FA49"/>
<path d="M25.2783 11.2667L18.8592 7.55102L18.8592 5.99562L25.2783 9.84956L25.2783 11.2667Z" fill="#C9FA49"/>
<path d="M18.7936 18.0243L12.0144 13.9111L12.0144 12.1483L18.7936 16.417L18.7936 18.0243Z" fill="#C9FA49"/>
<path d="M18.7608 22.5697L10.0001 17.264L11.2282 16.4344L18.7608 21.1007L18.7608 22.5697Z" fill="#C9FA49"/>
<path d="M18.7739 22.5693L10.0003 17.2636L11.2284 16.4341L18.7739 21.1003L18.7739 22.5693Z" fill="#C9FA49"/>
<path d="M18.7608 21.1005L27.3086 15.9849L27.3086 17.3675L18.7608 22.5695L18.7608 21.1005Z" fill="#C9FA49"/>
<path d="M10.0001 17.2638L10.0001 6.25498L11.2283 7.1191L11.2283 16.4342L10.0001 17.2638Z" fill="#C9FA49"/>
<path d="M24.4266 16.8319L11.2283 7.7933L12.6038 7.10201L26.0641 15.9505L24.4266 16.8319Z" fill="#C9FA49"/>
<path d="M26.0642 18.1279L26.0642 6.92901L27.3087 6.70434V17.3502L26.0642 18.1279Z" fill="#C9FA49"/>
<path d="M24.1156 10.6102V8.3117L25.2782 7.79323V11.267L24.1156 10.6102Z" fill="#C9FA49"/>
<path d="M12.0144 16.0712V12.0569L13.4063 13.0216V16.9526L12.0144 16.0712Z" fill="#C9FA49"/>
<path d="M32.7231 16.1538C32.1009 16.1538 31.5744 16.0718 31.1436 15.9077C30.7197 15.7368 30.3744 15.5145 30.1077 15.241C29.8479 14.9675 29.653 14.6701 29.5231 14.3487C29.4 14.0205 29.3282 13.6991 29.3077 13.3846H30.9077C30.9214 13.6308 30.9966 13.8667 31.1333 14.0923C31.2701 14.3179 31.4752 14.5026 31.7487 14.6462C32.0222 14.7897 32.3641 14.8615 32.7744 14.8615C33.2188 14.8615 33.547 14.7726 33.759 14.5949C33.9778 14.4103 34.0872 14.1709 34.0872 13.8769C34.0872 13.5966 33.9915 13.3675 33.8 13.1897C33.6154 13.012 33.3692 12.8718 33.0615 12.7692L31.9026 12.3795C31.5333 12.2564 31.1778 12.106 30.8359 11.9282C30.5009 11.7436 30.2239 11.5043 30.0051 11.2103C29.7863 10.9094 29.6769 10.5265 29.6769 10.0615C29.6769 9.58291 29.7966 9.17949 30.0359 8.85128C30.2821 8.52308 30.6171 8.2735 31.041 8.10256C31.4718 7.93162 31.9641 7.84615 32.5179 7.84615C33.2291 7.84615 33.7897 7.96581 34.2 8.20513C34.6103 8.44444 34.9077 8.74872 35.0923 9.11795C35.2838 9.48034 35.4 9.85983 35.441 10.2564H33.841C33.8274 10.065 33.7726 9.88376 33.6769 9.71282C33.588 9.53504 33.4444 9.39145 33.2462 9.28205C33.0479 9.17265 32.7812 9.11795 32.4462 9.11795C32.0701 9.11795 31.7897 9.19658 31.6051 9.35385C31.4274 9.51111 31.3385 9.7094 31.3385 9.94872C31.3385 10.2085 31.4308 10.4171 31.6154 10.5744C31.8068 10.7316 32.0598 10.865 32.3744 10.9744L33.5333 11.3641C33.9094 11.4872 34.265 11.641 34.6 11.8256C34.935 12.0103 35.2085 12.2564 35.4205 12.5641C35.6393 12.865 35.7487 13.2615 35.7487 13.7538C35.7487 14.4991 35.4821 15.0872 34.9487 15.5179C34.4222 15.9419 33.6803 16.1538 32.7231 16.1538ZM36.955 16V8H38.637V11.0769H39.2524L41.5498 8H43.4575V8.06154L40.6883 11.6718L43.9088 15.9385V16H41.8575L39.2524 12.4308H38.637V16H36.955ZM47.5617 16.1436C46.7138 16.1436 46.0061 15.9761 45.4386 15.641C44.8779 15.2991 44.4574 14.8171 44.1771 14.1949C43.9036 13.5726 43.7668 12.841 43.7668 12C43.7668 11.1521 43.9036 10.4205 44.1771 9.80513C44.4574 9.18291 44.8779 8.70427 45.4386 8.36923C46.0061 8.02735 46.7138 7.85641 47.5617 7.85641C48.4164 7.85641 49.1241 8.02735 49.6848 8.36923C50.2455 8.70427 50.6626 9.18291 50.9361 9.80513C51.2164 10.4205 51.3566 11.1521 51.3566 12C51.3566 12.841 51.2164 13.5726 50.9361 14.1949C50.6626 14.8171 50.2455 15.2991 49.6848 15.641C49.1241 15.9761 48.4164 16.1436 47.5617 16.1436ZM47.5617 14.8513C48.2523 14.8513 48.7583 14.6051 49.0796 14.1128C49.4079 13.6137 49.572 12.9094 49.572 12C49.572 11.0838 49.4079 10.3795 49.0796 9.88718C48.7583 9.39487 48.2523 9.14872 47.5617 9.14872C46.8711 9.14872 46.3617 9.39487 46.0335 9.88718C45.7121 10.3795 45.5514 11.0838 45.5514 12C45.5514 12.9094 45.7121 13.6137 46.0335 14.1128C46.3617 14.6051 46.8711 14.8513 47.5617 14.8513ZM52.4478 16V8H55.8426C56.5264 8 57.0802 8.09914 57.5042 8.29744C57.9349 8.48889 58.2495 8.75556 58.4478 9.09744C58.6529 9.43248 58.7554 9.82222 58.7554 10.2667C58.7554 10.7726 58.6221 11.2103 58.3554 11.5795C58.0888 11.9487 57.6956 12.212 57.176 12.3692L58.9708 15.9385V16H57.1452L55.5144 12.6154H54.1503V16H52.4478ZM54.1503 11.3641H55.5965C56.0409 11.3641 56.3862 11.2889 56.6324 11.1385C56.8854 10.988 57.0119 10.7179 57.0119 10.3282C57.0119 9.93162 56.8854 9.66154 56.6324 9.51795C56.3794 9.36752 56.0341 9.29231 55.5965 9.29231H54.1503V11.3641ZM59.9357 16V8H63.2793C64.305 8 65.0537 8.2188 65.5255 8.65641C65.9973 9.08718 66.2332 9.66838 66.2332 10.4C66.2332 11.1316 65.9973 11.7162 65.5255 12.1538C65.0605 12.5915 64.3118 12.8103 63.2793 12.8103H61.6383V16H59.9357ZM61.6383 11.5179H63.0229C63.4879 11.5179 63.8503 11.4393 64.1101 11.2821C64.3768 11.1179 64.5101 10.8274 64.5101 10.4103C64.5101 10 64.3768 9.71282 64.1101 9.54872C63.8503 9.37778 63.4879 9.29231 63.0229 9.29231H61.6383V11.5179ZM67.3155 16V8H69.0386V16H67.3155ZM69.9814 16V15.9385L72.3404 11.7538L70.3199 8.06154V8H72.1558L73.6019 10.6769H73.8481L75.2532 8H77.0173V8.06154L75.0071 11.7538L77.3455 15.9385V16H75.4378L73.7558 12.8308H73.5096L71.8071 16H69.9814Z" fill="#C9FA49"/>
<path d="M30.5697 19.718L30.8947 17.768H31.5797C31.7797 17.768 31.9272 17.8096 32.0222 17.893C32.1172 17.9746 32.1647 18.0805 32.1647 18.2105C32.1647 18.3155 32.1347 18.4055 32.0747 18.4805C32.0147 18.5538 31.9297 18.6055 31.8197 18.6355L31.8097 18.6955C31.9063 18.7205 31.9813 18.7655 32.0347 18.8305C32.0897 18.8938 32.1172 18.9846 32.1172 19.103C32.1172 19.2213 32.0872 19.3271 32.0272 19.4205C31.9688 19.5138 31.8805 19.5871 31.7622 19.6405C31.6455 19.6921 31.5005 19.718 31.3272 19.718H30.5697ZM30.9572 19.4555H31.3372C31.4722 19.4555 31.5772 19.4246 31.6522 19.363C31.7288 19.2996 31.7672 19.213 31.7672 19.103C31.7672 19.0113 31.7388 18.9405 31.6822 18.8905C31.6272 18.8405 31.5397 18.8155 31.4197 18.8155H31.0622L30.9572 19.4555ZM31.1072 18.558H31.4422C31.4872 18.558 31.5313 18.553 31.5747 18.543C31.6197 18.5313 31.6605 18.5146 31.6972 18.493C31.7338 18.4696 31.7622 18.4396 31.7822 18.403C31.8038 18.3646 31.8147 18.3188 31.8147 18.2655C31.8147 18.2088 31.8022 18.1638 31.7772 18.1305C31.7522 18.0955 31.7163 18.0705 31.6697 18.0555C31.6247 18.0388 31.5713 18.0305 31.5097 18.0305H31.1947L31.1072 18.558ZM32.2995 19.718L32.4895 18.578C32.5028 18.503 32.5137 18.4321 32.522 18.3655C32.5303 18.2971 32.5345 18.248 32.5345 18.218H32.832C32.832 18.2513 32.8295 18.2905 32.8245 18.3355C32.8212 18.3805 32.8153 18.4263 32.807 18.473H32.867C32.887 18.4246 32.9128 18.3796 32.9445 18.338C32.9762 18.2963 33.0178 18.2638 33.0695 18.2405C33.1228 18.2155 33.1903 18.203 33.272 18.203H33.3495L33.297 18.513H33.1995C33.1145 18.513 33.0428 18.5288 32.9845 18.5605C32.9262 18.5905 32.8787 18.6413 32.842 18.713C32.8053 18.783 32.777 18.878 32.757 18.998L32.637 19.718H32.2995ZM33.363 19.718L33.613 18.218H33.9505L33.7005 19.718H33.363ZM33.8305 18.028C33.7738 18.028 33.7305 18.013 33.7005 17.983C33.6705 17.953 33.6555 17.913 33.6555 17.863C33.6555 17.8013 33.6738 17.7521 33.7105 17.7155C33.7488 17.6771 33.8005 17.658 33.8655 17.658C33.9205 17.658 33.963 17.673 33.993 17.703C34.0246 17.733 34.0405 17.7721 34.0405 17.8205C34.0405 17.8821 34.0213 17.9321 33.983 17.9705C33.9446 18.0088 33.8938 18.028 33.8305 18.028ZM34.1012 19.718L34.2912 18.578C34.3046 18.503 34.3154 18.4321 34.3237 18.3655C34.3321 18.2971 34.3362 18.248 34.3362 18.218H34.6362C34.6362 18.2513 34.6337 18.2871 34.6287 18.3255C34.6254 18.3621 34.6204 18.4013 34.6137 18.443H34.6737C34.7187 18.368 34.7729 18.3063 34.8362 18.258C34.8996 18.2096 34.9829 18.1855 35.0862 18.1855C35.1962 18.1855 35.2846 18.2105 35.3512 18.2605C35.4179 18.3105 35.4629 18.378 35.4862 18.463C35.5096 18.5463 35.5129 18.6413 35.4962 18.748L35.3337 19.718H34.9962L35.1487 18.7955C35.1671 18.6921 35.1621 18.6088 35.1337 18.5455C35.1071 18.4821 35.0521 18.4505 34.9687 18.4505C34.8987 18.4505 34.8354 18.4755 34.7787 18.5255C34.7237 18.5738 34.6779 18.6396 34.6412 18.723C34.6046 18.8046 34.5771 18.8963 34.5587 18.998L34.4387 19.718H34.1012ZM36.2251 20.2555C36.0767 20.2555 35.9526 20.2271 35.8526 20.1705C35.7526 20.1155 35.6717 20.053 35.6101 19.983L35.8051 19.7505C35.8584 19.8221 35.9217 19.8805 35.9951 19.9255C36.0684 19.9705 36.1517 19.993 36.2451 19.993C36.3551 19.993 36.4376 19.9605 36.4926 19.8955C36.5492 19.8321 36.5884 19.7455 36.6101 19.6355L36.6526 19.4255H36.5926C36.5542 19.4955 36.5026 19.5546 36.4376 19.603C36.3742 19.6496 36.2926 19.673 36.1926 19.673C36.0526 19.673 35.9409 19.623 35.8576 19.523C35.7759 19.4213 35.7351 19.2805 35.7351 19.1005C35.7351 18.9871 35.7517 18.8763 35.7851 18.768C35.8184 18.658 35.8659 18.5596 35.9276 18.473C35.9892 18.3863 36.0634 18.3171 36.1501 18.2655C36.2367 18.2138 36.3342 18.188 36.4426 18.188C36.5342 18.188 36.6051 18.2055 36.6551 18.2405C36.7051 18.2738 36.7434 18.3163 36.7701 18.368H36.8301L36.8551 18.218H37.1501L36.9076 19.673C36.8759 19.868 36.7992 20.0138 36.6776 20.1105C36.5559 20.2071 36.4051 20.2555 36.2251 20.2555ZM36.2951 19.423C36.3734 19.423 36.4401 19.3921 36.4951 19.3305C36.5517 19.2688 36.5984 19.1896 36.6351 19.093C36.6717 18.9946 36.6992 18.8896 36.7176 18.778L36.7576 18.538C36.7226 18.5063 36.6817 18.4813 36.6351 18.463C36.5901 18.4446 36.5459 18.4355 36.5026 18.4355C36.4176 18.4355 36.3426 18.4646 36.2776 18.523C36.2142 18.5796 36.1642 18.6571 36.1276 18.7555C36.0926 18.8538 36.0751 18.963 36.0751 19.083C36.0751 19.2013 36.0951 19.288 36.1351 19.343C36.1767 19.3963 36.2301 19.423 36.2951 19.423ZM37.3005 19.718L37.5505 18.218H37.888L37.638 19.718H37.3005ZM37.768 18.028C37.7113 18.028 37.668 18.013 37.638 17.983C37.608 17.953 37.593 17.913 37.593 17.863C37.593 17.8013 37.6113 17.7521 37.648 17.7155C37.6863 17.6771 37.738 17.658 37.803 17.658C37.858 17.658 37.9005 17.673 37.9305 17.703C37.9621 17.733 37.978 17.7721 37.978 17.8205C37.978 17.8821 37.9588 17.9321 37.9205 17.9705C37.8821 18.0088 37.8313 18.028 37.768 18.028ZM38.0387 19.718L38.2287 18.578C38.2421 18.503 38.2529 18.4321 38.2612 18.3655C38.2696 18.2971 38.2737 18.248 38.2737 18.218H38.5737C38.5737 18.2513 38.5712 18.2871 38.5662 18.3255C38.5629 18.3621 38.5579 18.4013 38.5512 18.443H38.6112C38.6562 18.368 38.7104 18.3063 38.7737 18.258C38.8371 18.2096 38.9204 18.1855 39.0237 18.1855C39.1337 18.1855 39.2221 18.2105 39.2887 18.2605C39.3554 18.3105 39.4004 18.378 39.4237 18.463C39.4471 18.5463 39.4504 18.6413 39.4337 18.748L39.2712 19.718H38.9337L39.0862 18.7955C39.1046 18.6921 39.0996 18.6088 39.0712 18.5455C39.0446 18.4821 38.9896 18.4505 38.9062 18.4505C38.8362 18.4505 38.7729 18.4755 38.7162 18.5255C38.6612 18.5738 38.6154 18.6396 38.5787 18.723C38.5421 18.8046 38.5146 18.8963 38.4962 18.998L38.3762 19.718H38.0387ZM40.1626 20.2555C40.0142 20.2555 39.8901 20.2271 39.7901 20.1705C39.6901 20.1155 39.6092 20.053 39.5476 19.983L39.7426 19.7505C39.7959 19.8221 39.8592 19.8805 39.9326 19.9255C40.0059 19.9705 40.0892 19.993 40.1826 19.993C40.2926 19.993 40.3751 19.9605 40.4301 19.8955C40.4867 19.8321 40.5259 19.7455 40.5476 19.6355L40.5901 19.4255H40.5301C40.4917 19.4955 40.4401 19.5546 40.3751 19.603C40.3117 19.6496 40.2301 19.673 40.1301 19.673C39.9901 19.673 39.8784 19.623 39.7951 19.523C39.7134 19.4213 39.6726 19.2805 39.6726 19.1005C39.6726 18.9871 39.6892 18.8763 39.7226 18.768C39.7559 18.658 39.8034 18.5596 39.8651 18.473C39.9267 18.3863 40.0009 18.3171 40.0876 18.2655C40.1742 18.2138 40.2717 18.188 40.3801 18.188C40.4717 18.188 40.5426 18.2055 40.5926 18.2405C40.6426 18.2738 40.6809 18.3163 40.7076 18.368H40.7676L40.7926 18.218H41.0876L40.8451 19.673C40.8134 19.868 40.7367 20.0138 40.6151 20.1105C40.4934 20.2071 40.3426 20.2555 40.1626 20.2555ZM40.2326 19.423C40.3109 19.423 40.3776 19.3921 40.4326 19.3305C40.4892 19.2688 40.5359 19.1896 40.5726 19.093C40.6092 18.9946 40.6367 18.8896 40.6551 18.778L40.6951 18.538C40.6601 18.5063 40.6192 18.4813 40.5726 18.463C40.5276 18.4446 40.4834 18.4355 40.4401 18.4355C40.3551 18.4355 40.2801 18.4646 40.2151 18.523C40.1517 18.5796 40.1017 18.6571 40.0651 18.7555C40.0301 18.8538 40.0126 18.963 40.0126 19.083C40.0126 19.2013 40.0326 19.288 40.0726 19.343C40.1142 19.3963 40.1676 19.423 40.2326 19.423ZM42.0135 19.718C41.9902 19.6646 41.9744 19.6055 41.966 19.5405C41.9594 19.4755 41.9652 19.3855 41.9835 19.2705L42.116 18.4655H41.921L41.9635 18.218H42.166L42.2285 17.843H42.551L42.4885 18.218H42.726L42.686 18.4655H42.456L42.3285 19.228C42.3102 19.343 42.306 19.438 42.316 19.513C42.3277 19.5863 42.3469 19.6496 42.3735 19.703V19.718H42.0135ZM42.7497 19.718L43.0822 17.718H43.4197L43.2922 18.4055H43.3522C43.3772 18.3671 43.4055 18.3313 43.4372 18.298C43.4705 18.2646 43.5113 18.238 43.5597 18.218C43.608 18.1963 43.6663 18.1855 43.7347 18.1855C43.8447 18.1855 43.933 18.2105 43.9997 18.2605C44.0663 18.3105 44.1113 18.378 44.1347 18.463C44.158 18.5463 44.1613 18.6413 44.1447 18.748L43.9822 19.718H43.6447L43.7972 18.7955C43.8155 18.6921 43.8105 18.6088 43.7822 18.5455C43.7555 18.4821 43.7005 18.4505 43.6172 18.4505C43.5472 18.4505 43.4838 18.4755 43.4272 18.5255C43.3722 18.5738 43.3263 18.6396 43.2897 18.723C43.253 18.8046 43.2255 18.8963 43.2072 18.998L43.0872 19.718H42.7497ZM44.9535 19.7555C44.7752 19.7555 44.6327 19.7013 44.526 19.593C44.421 19.483 44.3685 19.3255 44.3685 19.1205C44.3685 19.0055 44.3827 18.893 44.411 18.783C44.441 18.6713 44.4868 18.5705 44.5485 18.4805C44.6102 18.3888 44.6877 18.3163 44.781 18.263C44.8743 18.208 44.986 18.1805 45.116 18.1805C45.241 18.1805 45.3477 18.2088 45.436 18.2655C45.526 18.3221 45.5902 18.408 45.6285 18.523C45.6668 18.6363 45.671 18.7796 45.641 18.953L45.6285 19.0355H44.626L44.641 18.8105H45.331C45.351 18.6871 45.3393 18.5913 45.296 18.523C45.2527 18.4546 45.186 18.4205 45.096 18.4205C45.0227 18.4205 44.961 18.443 44.911 18.488C44.861 18.533 44.8202 18.5913 44.7885 18.663C44.7585 18.7346 44.736 18.8113 44.721 18.893C44.7077 18.973 44.701 19.0505 44.701 19.1255C44.701 19.2521 44.726 19.3471 44.776 19.4105C44.8277 19.4721 44.8927 19.503 44.971 19.503C45.0293 19.503 45.0793 19.4888 45.121 19.4605C45.1627 19.4321 45.1985 19.3963 45.2285 19.353C45.2602 19.308 45.286 19.2613 45.306 19.213L45.571 19.3855C45.536 19.4488 45.4902 19.5088 45.4335 19.5655C45.3785 19.6221 45.311 19.668 45.231 19.703C45.1527 19.738 45.0602 19.7555 44.9535 19.7555ZM46.3293 20.218L46.6018 18.578C46.6151 18.503 46.626 18.4321 46.6343 18.3655C46.6426 18.2971 46.6468 18.248 46.6468 18.218H46.9468C46.9468 18.2513 46.9443 18.2871 46.9393 18.3255C46.936 18.3621 46.931 18.4013 46.9243 18.443H46.9843C47.016 18.3813 47.0643 18.3238 47.1293 18.2705C47.196 18.2171 47.286 18.1905 47.3993 18.1905C47.5443 18.1905 47.6576 18.2421 47.7393 18.3455C47.8226 18.4471 47.8643 18.5938 47.8643 18.7855C47.8643 18.9055 47.8476 19.023 47.8143 19.138C47.7826 19.2513 47.736 19.3538 47.6743 19.4455C47.6126 19.5371 47.5376 19.6105 47.4493 19.6655C47.361 19.7205 47.261 19.748 47.1493 19.748C47.056 19.748 46.9818 19.7296 46.9268 19.693C46.8735 19.6563 46.8351 19.6146 46.8118 19.568H46.7518C46.7501 19.593 46.7468 19.6271 46.7418 19.6705C46.7385 19.7121 46.7301 19.778 46.7168 19.868L46.6668 20.218H46.3293ZM47.0693 19.498C47.161 19.498 47.2401 19.4663 47.3068 19.403C47.3751 19.338 47.4285 19.253 47.4668 19.148C47.5051 19.0413 47.5243 18.9255 47.5243 18.8005C47.5243 18.6738 47.5018 18.5838 47.4568 18.5305C47.4135 18.4755 47.3576 18.448 47.2893 18.448C47.206 18.448 47.1351 18.4805 47.0768 18.5455C47.0185 18.6105 46.9701 18.6946 46.9318 18.798C46.8951 18.9013 46.8676 19.0096 46.8493 19.123L46.8043 19.388C46.8376 19.4196 46.8768 19.4463 46.9218 19.468C46.9685 19.488 47.0176 19.498 47.0693 19.498ZM48.0231 19.718L48.3556 17.718H48.6931L48.5656 18.4055H48.6256C48.6506 18.3671 48.679 18.3313 48.7106 18.298C48.744 18.2646 48.7848 18.238 48.8331 18.218C48.8815 18.1963 48.9398 18.1855 49.0081 18.1855C49.1181 18.1855 49.2065 18.2105 49.2731 18.2605C49.3398 18.3105 49.3848 18.378 49.4081 18.463C49.4315 18.5463 49.4348 18.6413 49.4181 18.748L49.2556 19.718H48.9181L49.0706 18.7955C49.089 18.6921 49.084 18.6088 49.0556 18.5455C49.029 18.4821 48.974 18.4505 48.8906 18.4505C48.8206 18.4505 48.7573 18.4755 48.7006 18.5255C48.6456 18.5738 48.5998 18.6396 48.5631 18.723C48.5265 18.8046 48.499 18.8963 48.4806 18.998L48.3606 19.718H48.0231ZM49.6344 20.218V20.203C49.6944 20.1313 49.7561 20.0471 49.8194 19.9505C49.8828 19.8555 49.9386 19.7596 49.9869 19.663L49.7144 18.218H50.0419L50.1644 18.893C50.1728 18.9446 50.1811 18.998 50.1894 19.053C50.1994 19.108 50.2061 19.1713 50.2094 19.243H50.2694C50.2944 19.1663 50.3186 19.0996 50.3419 19.043C50.3653 18.9846 50.3878 18.9338 50.4094 18.8905L50.7294 18.218H51.0619L50.4444 19.4555C50.3544 19.6388 50.2703 19.7946 50.1919 19.923C50.1153 20.053 50.0519 20.1513 50.0019 20.218H49.6344ZM51.5591 19.7555C51.3891 19.7555 51.2516 19.7113 51.1466 19.623C51.0416 19.533 50.9849 19.4188 50.9766 19.2805L51.2766 19.2055C51.2816 19.2938 51.3107 19.3663 51.3641 19.423C51.4191 19.4796 51.4924 19.508 51.5841 19.508C51.6591 19.508 51.7157 19.4896 51.7541 19.453C51.7941 19.4163 51.8141 19.3738 51.8141 19.3255C51.8141 19.2771 51.7966 19.2363 51.7616 19.203C51.7282 19.1696 51.6824 19.1413 51.6241 19.118L51.4941 19.063C51.4424 19.0396 51.3891 19.0121 51.3341 18.9805C51.2807 18.9471 51.2349 18.9038 51.1966 18.8505C51.1599 18.7971 51.1416 18.7288 51.1416 18.6455C51.1416 18.5605 51.1632 18.483 51.2066 18.413C51.2499 18.343 51.3124 18.2871 51.3941 18.2455C51.4774 18.2021 51.5774 18.1805 51.6941 18.1805C51.8457 18.1805 51.9657 18.2188 52.0541 18.2955C52.1424 18.3705 52.1899 18.4738 52.1966 18.6055L51.8966 18.678C51.8966 18.6013 51.8774 18.5396 51.8391 18.493C51.8007 18.4446 51.7432 18.4205 51.6666 18.4205C51.5999 18.4205 51.5482 18.4388 51.5116 18.4755C51.4749 18.5105 51.4566 18.5521 51.4566 18.6005C51.4566 18.6455 51.4707 18.683 51.4991 18.713C51.5274 18.743 51.5649 18.768 51.6116 18.788L51.7366 18.8405C51.8016 18.8655 51.8641 18.8955 51.9241 18.9305C51.9841 18.9655 52.0332 19.0105 52.0716 19.0655C52.1099 19.1188 52.1291 19.188 52.1291 19.273C52.1291 19.3613 52.1066 19.4421 52.0616 19.5155C52.0166 19.5871 51.9516 19.6455 51.8666 19.6905C51.7816 19.7338 51.6791 19.7555 51.5591 19.7555ZM52.321 19.718L52.571 18.218H52.9085L52.6585 19.718H52.321ZM52.7885 18.028C52.7318 18.028 52.6885 18.013 52.6585 17.983C52.6285 17.953 52.6135 17.913 52.6135 17.863C52.6135 17.8013 52.6318 17.7521 52.6685 17.7155C52.7068 17.6771 52.7585 17.658 52.8235 17.658C52.8785 17.658 52.921 17.673 52.951 17.703C52.9826 17.733 52.9985 17.7721 52.9985 17.8205C52.9985 17.8821 52.9793 17.9321 52.941 17.9705C52.9026 18.0088 52.8518 18.028 52.7885 18.028ZM53.6543 19.7555C53.4793 19.7555 53.3376 19.7013 53.2293 19.593C53.1209 19.483 53.0668 19.3196 53.0668 19.103C53.0668 18.9946 53.0818 18.8863 53.1118 18.778C53.1434 18.6696 53.1901 18.5705 53.2518 18.4805C53.3151 18.3888 53.3943 18.3163 53.4893 18.263C53.5859 18.208 53.7001 18.1805 53.8318 18.1805C53.9868 18.1805 54.1134 18.2221 54.2118 18.3055C54.3118 18.3871 54.3718 18.5105 54.3918 18.6755L54.0768 18.7505C54.0651 18.6421 54.0376 18.5621 53.9943 18.5105C53.9509 18.4571 53.8926 18.4305 53.8193 18.4305C53.7593 18.4305 53.7068 18.4463 53.6618 18.478C53.6168 18.508 53.5784 18.5488 53.5468 18.6005C53.5151 18.6505 53.4893 18.7063 53.4693 18.768C53.4493 18.828 53.4343 18.8888 53.4243 18.9505C53.4159 19.0121 53.4118 19.0696 53.4118 19.123C53.4118 19.248 53.4359 19.343 53.4843 19.408C53.5326 19.4713 53.5959 19.503 53.6743 19.503C53.7359 19.503 53.7884 19.4863 53.8318 19.453C53.8751 19.418 53.9126 19.3746 53.9443 19.323C53.9759 19.2713 54.0009 19.2196 54.0193 19.168L54.3043 19.3105C54.2693 19.3838 54.2234 19.4546 54.1668 19.523C54.1118 19.5913 54.0426 19.6471 53.9593 19.6905C53.8759 19.7338 53.7743 19.7555 53.6543 19.7555ZM54.9581 19.748C54.8147 19.748 54.7014 19.6963 54.6181 19.593C54.5347 19.4896 54.4931 19.3421 54.4931 19.1505C54.4931 19.0305 54.5089 18.9138 54.5406 18.8005C54.5739 18.6855 54.6222 18.5821 54.6856 18.4905C54.7489 18.3988 54.8247 18.3255 54.9131 18.2705C55.0031 18.2155 55.1047 18.188 55.2181 18.188C55.3147 18.188 55.3897 18.2063 55.4431 18.243C55.4981 18.278 55.5372 18.3196 55.5606 18.368H55.6206L55.6456 18.218H55.9456L55.7631 19.323C55.7564 19.3646 55.7506 19.4096 55.7456 19.458C55.7406 19.5046 55.7364 19.5505 55.7331 19.5955C55.7314 19.6405 55.7306 19.6813 55.7306 19.718H55.4156C55.4172 19.6846 55.4206 19.6463 55.4256 19.603C55.4306 19.5596 55.4364 19.5188 55.4431 19.4805H55.3806C55.3472 19.5488 55.2964 19.6105 55.2281 19.6655C55.1614 19.7205 55.0714 19.748 54.9581 19.748ZM55.0706 19.4905C55.1539 19.4905 55.2239 19.458 55.2806 19.393C55.3389 19.3263 55.3864 19.2413 55.4231 19.138C55.4614 19.0346 55.4897 18.9263 55.5081 18.813L55.5531 18.5405C55.5197 18.5105 55.4806 18.4863 55.4356 18.468C55.3906 18.448 55.3414 18.438 55.2881 18.438C55.1981 18.438 55.1189 18.4705 55.0506 18.5355C54.9822 18.5988 54.9289 18.6838 54.8906 18.7905C54.8522 18.8955 54.8331 19.0105 54.8331 19.1355C54.8331 19.2605 54.8547 19.3513 54.8981 19.408C54.9431 19.463 55.0006 19.4905 55.0706 19.4905ZM56.1769 19.718C56.1602 19.6563 56.1502 19.5921 56.1469 19.5255C56.1452 19.4571 56.1527 19.3721 56.1694 19.2705L56.4269 17.718H56.7644L56.5144 19.2255C56.4961 19.3405 56.4894 19.4363 56.4944 19.513C56.5011 19.5896 56.5127 19.653 56.5294 19.703V19.718H56.1769ZM57.6083 19.718C57.5849 19.6646 57.5691 19.6055 57.5608 19.5405C57.5541 19.4755 57.5599 19.3855 57.5783 19.2705L57.7108 18.4655H57.5158L57.5583 18.218H57.7608L57.8233 17.843H58.1458L58.0833 18.218H58.3208L58.2808 18.4655H58.0508L57.9233 19.228C57.9049 19.343 57.9008 19.438 57.9108 19.513C57.9224 19.5863 57.9416 19.6496 57.9683 19.703V19.718H57.6083ZM58.9694 19.7555C58.7761 19.7555 58.6244 19.7005 58.5144 19.5905C58.4061 19.4788 58.3519 19.3205 58.3519 19.1155C58.3519 19.0021 58.3661 18.8905 58.3944 18.7805C58.4244 18.6705 58.4694 18.5705 58.5294 18.4805C58.5911 18.3888 58.6694 18.3163 58.7644 18.263C58.8611 18.208 58.9761 18.1805 59.1094 18.1805C59.3027 18.1805 59.4536 18.2363 59.5619 18.348C59.6702 18.458 59.7244 18.6155 59.7244 18.8205C59.7244 18.9321 59.7094 19.0438 59.6794 19.1555C59.6511 19.2655 59.6061 19.3655 59.5444 19.4555C59.4844 19.5455 59.4069 19.618 59.3119 19.673C59.2169 19.728 59.1027 19.7555 58.9694 19.7555ZM58.9694 19.513C59.0327 19.513 59.0869 19.4971 59.1319 19.4655C59.1786 19.4321 59.2177 19.3888 59.2494 19.3355C59.2811 19.2821 59.3061 19.2238 59.3244 19.1605C59.3444 19.0955 59.3586 19.0305 59.3669 18.9655C59.3752 18.9005 59.3794 18.8405 59.3794 18.7855C59.3794 18.6688 59.3569 18.5796 59.3119 18.518C59.2669 18.4546 59.1994 18.423 59.1094 18.423C59.0477 18.423 58.9936 18.4396 58.9469 18.473C58.9002 18.5046 58.8611 18.5471 58.8294 18.6005C58.7977 18.6538 58.7719 18.713 58.7519 18.778C58.7319 18.8413 58.7177 18.9055 58.7094 18.9705C58.7011 19.0338 58.6969 19.0921 58.6969 19.1455C58.6969 19.2588 58.7194 19.3488 58.7644 19.4155C58.8094 19.4805 58.8777 19.513 58.9694 19.513ZM60.9581 19.7455C60.8147 19.7455 60.7014 19.6946 60.6181 19.593C60.5347 19.4896 60.4931 19.3421 60.4931 19.1505C60.4931 19.0305 60.5089 18.9138 60.5406 18.8005C60.5739 18.6855 60.6214 18.5821 60.6831 18.4905C60.7447 18.3988 60.8197 18.3255 60.9081 18.2705C60.9964 18.2155 61.0964 18.188 61.2081 18.188C61.3031 18.188 61.3764 18.2055 61.4281 18.2405C61.4814 18.2755 61.5189 18.313 61.5406 18.353H61.6006L61.6906 17.718H62.0281L61.7631 19.323C61.7564 19.3646 61.7506 19.4096 61.7456 19.458C61.7406 19.5046 61.7364 19.5505 61.7331 19.5955C61.7314 19.6405 61.7306 19.6813 61.7306 19.718H61.4156C61.4172 19.6846 61.4206 19.6463 61.4256 19.603C61.4306 19.5596 61.4364 19.5188 61.4431 19.4805H61.3806C61.3472 19.5488 61.2964 19.6105 61.2281 19.6655C61.1614 19.7188 61.0714 19.7455 60.9581 19.7455ZM61.0706 19.488C61.1539 19.488 61.2239 19.4555 61.2806 19.3905C61.3389 19.3255 61.3864 19.2413 61.4231 19.138C61.4614 19.0346 61.4897 18.9263 61.5081 18.813L61.5531 18.548C61.5197 18.5163 61.4806 18.4905 61.4356 18.4705C61.3906 18.4488 61.3414 18.438 61.2881 18.438C61.1981 18.438 61.1189 18.4705 61.0506 18.5355C60.9822 18.5988 60.9289 18.6838 60.8906 18.7905C60.8522 18.8955 60.8331 19.0105 60.8331 19.1355C60.8331 19.2605 60.8547 19.3505 60.8981 19.4055C60.9431 19.4605 61.0006 19.488 61.0706 19.488ZM62.0944 19.718L62.3444 18.218H62.6819L62.4319 19.718H62.0944ZM62.5619 18.028C62.5052 18.028 62.4619 18.013 62.4319 17.983C62.4019 17.953 62.3869 17.913 62.3869 17.863C62.3869 17.8013 62.4052 17.7521 62.4419 17.7155C62.4802 17.6771 62.5319 17.658 62.5969 17.658C62.6519 17.658 62.6944 17.673 62.7244 17.703C62.7561 17.733 62.7719 17.7721 62.7719 17.8205C62.7719 17.8821 62.7527 17.9321 62.7144 17.9705C62.6761 18.0088 62.6252 18.028 62.5619 18.028ZM63.3452 20.2555C63.1969 20.2555 63.0727 20.2271 62.9727 20.1705C62.8727 20.1155 62.7919 20.053 62.7302 19.983L62.9252 19.7505C62.9785 19.8221 63.0419 19.8805 63.1152 19.9255C63.1885 19.9705 63.2719 19.993 63.3652 19.993C63.4752 19.993 63.5577 19.9605 63.6127 19.8955C63.6694 19.8321 63.7085 19.7455 63.7302 19.6355L63.7727 19.4255H63.7127C63.6744 19.4955 63.6227 19.5546 63.5577 19.603C63.4944 19.6496 63.4127 19.673 63.3127 19.673C63.1727 19.673 63.061 19.623 62.9777 19.523C62.896 19.4213 62.8552 19.2805 62.8552 19.1005C62.8552 18.9871 62.8719 18.8763 62.9052 18.768C62.9385 18.658 62.986 18.5596 63.0477 18.473C63.1094 18.3863 63.1835 18.3171 63.2702 18.2655C63.3569 18.2138 63.4544 18.188 63.5627 18.188C63.6544 18.188 63.7252 18.2055 63.7752 18.2405C63.8252 18.2738 63.8635 18.3163 63.8902 18.368H63.9502L63.9752 18.218H64.2702L64.0277 19.673C63.996 19.868 63.9194 20.0138 63.7977 20.1105C63.676 20.2071 63.5252 20.2555 63.3452 20.2555ZM63.4152 19.423C63.4935 19.423 63.5602 19.3921 63.6152 19.3305C63.6719 19.2688 63.7185 19.1896 63.7552 19.093C63.7919 18.9946 63.8194 18.8896 63.8377 18.778L63.8777 18.538C63.8427 18.5063 63.8019 18.4813 63.7552 18.463C63.7102 18.4446 63.666 18.4355 63.6227 18.4355C63.5377 18.4355 63.4627 18.4646 63.3977 18.523C63.3344 18.5796 63.2844 18.6571 63.2477 18.7555C63.2127 18.8538 63.1952 18.963 63.1952 19.083C63.1952 19.2013 63.2152 19.288 63.2552 19.343C63.2969 19.3963 63.3502 19.423 63.4152 19.423ZM64.4206 19.718L64.6706 18.218H65.0081L64.7581 19.718H64.4206ZM64.8881 18.028C64.8314 18.028 64.7881 18.013 64.7581 17.983C64.7281 17.953 64.7131 17.913 64.7131 17.863C64.7131 17.8013 64.7314 17.7521 64.7681 17.7155C64.8064 17.6771 64.8581 17.658 64.9231 17.658C64.9781 17.658 65.0206 17.673 65.0506 17.703C65.0822 17.733 65.0981 17.7721 65.0981 17.8205C65.0981 17.8821 65.0789 17.9321 65.0406 17.9705C65.0022 18.0088 64.9514 18.028 64.8881 18.028ZM65.3339 19.718C65.3105 19.6646 65.2947 19.6055 65.2864 19.5405C65.2797 19.4755 65.2855 19.3855 65.3039 19.2705L65.4364 18.4655H65.2414L65.2839 18.218H65.4864L65.5489 17.843H65.8714L65.8089 18.218H66.0464L66.0064 18.4655H65.7764L65.6489 19.228C65.6305 19.343 65.6264 19.438 65.6364 19.513C65.648 19.5863 65.6672 19.6496 65.6939 19.703V19.718H65.3339ZM66.545 19.748C66.4017 19.748 66.2883 19.6963 66.205 19.593C66.1217 19.4896 66.08 19.3421 66.08 19.1505C66.08 19.0305 66.0958 18.9138 66.1275 18.8005C66.1608 18.6855 66.2092 18.5821 66.2725 18.4905C66.3358 18.3988 66.4117 18.3255 66.5 18.2705C66.59 18.2155 66.6917 18.188 66.805 18.188C66.9017 18.188 66.9767 18.2063 67.03 18.243C67.085 18.278 67.1242 18.3196 67.1475 18.368H67.2075L67.2325 18.218H67.5325L67.35 19.323C67.3433 19.3646 67.3375 19.4096 67.3325 19.458C67.3275 19.5046 67.3233 19.5505 67.32 19.5955C67.3183 19.6405 67.3175 19.6813 67.3175 19.718H67.0025C67.0042 19.6846 67.0075 19.6463 67.0125 19.603C67.0175 19.5596 67.0233 19.5188 67.03 19.4805H66.9675C66.9342 19.5488 66.8833 19.6105 66.815 19.6655C66.7483 19.7205 66.6583 19.748 66.545 19.748ZM66.6575 19.4905C66.7408 19.4905 66.8108 19.458 66.8675 19.393C66.9258 19.3263 66.9733 19.2413 67.01 19.138C67.0483 19.0346 67.0767 18.9263 67.095 18.813L67.14 18.5405C67.1067 18.5105 67.0675 18.4863 67.0225 18.468C66.9775 18.448 66.9283 18.438 66.875 18.438C66.785 18.438 66.7058 18.4705 66.6375 18.5355C66.5692 18.5988 66.5158 18.6838 66.4775 18.7905C66.4392 18.8955 66.42 19.0105 66.42 19.1355C66.42 19.2605 66.4417 19.3513 66.485 19.408C66.53 19.463 66.5875 19.4905 66.6575 19.4905ZM67.7638 19.718C67.7472 19.6563 67.7372 19.5921 67.7338 19.5255C67.7322 19.4571 67.7397 19.3721 67.7563 19.2705L68.0138 17.718H68.3513L68.1013 19.2255C68.083 19.3405 68.0763 19.4363 68.0813 19.513C68.088 19.5896 68.0997 19.653 68.1163 19.703V19.718H67.7638ZM69.1677 19.718L69.1727 18.2205V18.218H69.4727L69.4627 19.453H69.5227L69.9527 18.218H70.4877L70.5127 19.453H70.5727L70.9677 18.218H71.2702V18.2205L70.7852 19.718H70.2377L70.2052 18.4705H70.1452L69.7127 19.718H69.1677ZM71.945 19.7555C71.7517 19.7555 71.6 19.7005 71.49 19.5905C71.3817 19.4788 71.3275 19.3205 71.3275 19.1155C71.3275 19.0021 71.3417 18.8905 71.37 18.7805C71.4 18.6705 71.445 18.5705 71.505 18.4805C71.5667 18.3888 71.645 18.3163 71.74 18.263C71.8367 18.208 71.9517 18.1805 72.085 18.1805C72.2783 18.1805 72.4292 18.2363 72.5375 18.348C72.6458 18.458 72.7 18.6155 72.7 18.8205C72.7 18.9321 72.685 19.0438 72.655 19.1555C72.6267 19.2655 72.5817 19.3655 72.52 19.4555C72.46 19.5455 72.3825 19.618 72.2875 19.673C72.1925 19.728 72.0783 19.7555 71.945 19.7555ZM71.945 19.513C72.0083 19.513 72.0625 19.4971 72.1075 19.4655C72.1542 19.4321 72.1933 19.3888 72.225 19.3355C72.2567 19.2821 72.2817 19.2238 72.3 19.1605C72.32 19.0955 72.3342 19.0305 72.3425 18.9655C72.3508 18.9005 72.355 18.8405 72.355 18.7855C72.355 18.6688 72.3325 18.5796 72.2875 18.518C72.2425 18.4546 72.175 18.423 72.085 18.423C72.0233 18.423 71.9692 18.4396 71.9225 18.473C71.8758 18.5046 71.8367 18.5471 71.805 18.6005C71.7733 18.6538 71.7475 18.713 71.7275 18.778C71.7075 18.8413 71.6933 18.9055 71.685 18.9705C71.6767 19.0338 71.6725 19.0921 71.6725 19.1455C71.6725 19.2588 71.695 19.3488 71.74 19.4155C71.785 19.4805 71.8533 19.513 71.945 19.513ZM72.8581 19.718L73.0481 18.578C73.0614 18.503 73.0722 18.4321 73.0806 18.3655C73.0889 18.2971 73.0931 18.248 73.0931 18.218H73.3906C73.3906 18.2513 73.3881 18.2905 73.3831 18.3355C73.3797 18.3805 73.3739 18.4263 73.3656 18.473H73.4256C73.4456 18.4246 73.4714 18.3796 73.5031 18.338C73.5347 18.2963 73.5764 18.2638 73.6281 18.2405C73.6814 18.2155 73.7489 18.203 73.8306 18.203H73.9081L73.8556 18.513H73.7581C73.6731 18.513 73.6014 18.5288 73.5431 18.5605C73.4847 18.5905 73.4372 18.6413 73.4006 18.713C73.3639 18.783 73.3356 18.878 73.3156 18.998L73.1956 19.718H72.8581ZM74.0041 19.718C73.9874 19.6563 73.9774 19.5921 73.9741 19.5255C73.9724 19.4571 73.9799 19.3721 73.9966 19.2705L74.2541 17.718H74.5916L74.3416 19.2255C74.3232 19.3405 74.3166 19.4363 74.3216 19.513C74.3282 19.5896 74.3399 19.653 74.3566 19.703V19.718H74.0041ZM75.1348 19.7455C74.9915 19.7455 74.8782 19.6946 74.7948 19.593C74.7115 19.4896 74.6698 19.3421 74.6698 19.1505C74.6698 19.0305 74.6857 18.9138 74.7173 18.8005C74.7507 18.6855 74.7982 18.5821 74.8598 18.4905C74.9215 18.3988 74.9965 18.3255 75.0848 18.2705C75.1732 18.2155 75.2732 18.188 75.3848 18.188C75.4798 18.188 75.5532 18.2055 75.6048 18.2405C75.6582 18.2755 75.6957 18.313 75.7173 18.353H75.7773L75.8673 17.718H76.2048L75.9398 19.323C75.9332 19.3646 75.9273 19.4096 75.9223 19.458C75.9173 19.5046 75.9132 19.5505 75.9098 19.5955C75.9082 19.6405 75.9073 19.6813 75.9073 19.718H75.5923C75.594 19.6846 75.5973 19.6463 75.6023 19.603C75.6073 19.5596 75.6132 19.5188 75.6198 19.4805H75.5573C75.524 19.5488 75.4732 19.6105 75.4048 19.6655C75.3382 19.7188 75.2482 19.7455 75.1348 19.7455ZM75.2473 19.488C75.3307 19.488 75.4007 19.4555 75.4573 19.3905C75.5157 19.3255 75.5632 19.2413 75.5998 19.138C75.6382 19.0346 75.6665 18.9263 75.6848 18.813L75.7298 18.548C75.6965 18.5163 75.6573 18.4905 75.6123 18.4705C75.5673 18.4488 75.5182 18.438 75.4648 18.438C75.3748 18.438 75.2957 18.4705 75.2273 18.5355C75.159 18.5988 75.1057 18.6838 75.0673 18.7905C75.029 18.8955 75.0098 19.0105 75.0098 19.1355C75.0098 19.2605 75.0315 19.3505 75.0748 19.4055C75.1198 19.4605 75.1773 19.488 75.2473 19.488Z" fill="#C9FA49"/>
</svg>
