<svg width="86" height="25" viewBox="0 0 86 25" fill="none" xmlns="http://www.w3.org/2000/svg">
<rect width="86" height="25" fill="#C9FA49"/>
<path d="M10.0023 11.1114C9.97956 10.8614 9.87842 10.667 9.69888 10.5284C9.5216 10.3875 9.26819 10.317 8.93865 10.317C8.72047 10.317 8.53865 10.3455 8.39319 10.4023C8.24774 10.4591 8.13865 10.5375 8.06592 10.6375C7.99319 10.7352 7.95569 10.8477 7.95342 10.975C7.94888 11.0795 7.96933 11.1716 8.01479 11.2511C8.06251 11.3307 8.13069 11.4011 8.21933 11.4625C8.31024 11.5216 8.41933 11.5739 8.5466 11.6193C8.67388 11.6648 8.81706 11.7045 8.97615 11.7386L9.57615 11.875C9.9216 11.95 10.2261 12.05 10.4898 12.175C10.7557 12.3 10.9784 12.4489 11.158 12.6216C11.3398 12.7943 11.4773 12.9932 11.5705 13.2182C11.6636 13.4432 11.7114 13.6955 11.7136 13.975C11.7114 14.4159 11.6 14.7943 11.3796 15.1102C11.1591 15.4261 10.8421 15.6682 10.4284 15.8364C10.0171 16.0045 9.52047 16.0886 8.93865 16.0886C8.35456 16.0886 7.84547 16.0011 7.41138 15.8261C6.97729 15.6511 6.63978 15.3852 6.39888 15.0284C6.15797 14.6716 6.0341 14.2205 6.02728 13.675H7.64319C7.65683 13.9 7.71706 14.0875 7.82388 14.2375C7.93069 14.3875 8.07729 14.5011 8.26365 14.5784C8.45229 14.6557 8.67047 14.6943 8.91819 14.6943C9.14547 14.6943 9.33865 14.6636 9.49774 14.6023C9.6591 14.5409 9.78297 14.4557 9.86933 14.3466C9.95569 14.2375 10 14.1125 10.0023 13.9716C10 13.8398 9.9591 13.7273 9.87956 13.6341C9.80001 13.5386 9.67729 13.4568 9.51138 13.3886C9.34774 13.3182 9.13865 13.2534 8.8841 13.1943L8.15456 13.0239C7.55001 12.8852 7.07388 12.6614 6.72615 12.3523C6.37842 12.0409 6.20569 11.6205 6.20797 11.0909C6.20569 10.6591 6.3216 10.2807 6.55569 9.95568C6.78979 9.63068 7.11365 9.37727 7.52729 9.19545C7.94092 9.01364 8.41251 8.92273 8.94206 8.92273C9.48297 8.92273 9.95229 9.01477 10.35 9.19886C10.75 9.38068 11.0602 9.63636 11.2807 9.96591C11.5011 10.2955 11.6136 10.6773 11.6182 11.1114H10.0023ZM13.5259 16V9.01818H15.2134V11.9705H15.3055L17.6134 9.01818H19.6009L17.1259 12.1341L19.6452 16H17.6271L15.8884 13.2557L15.2134 14.108V16H13.5259ZM27.4038 12.5091C27.4038 13.2773 27.2561 13.9284 26.9606 14.4625C26.6652 14.9966 26.2652 15.4023 25.7606 15.6795C25.2584 15.9568 24.6947 16.0955 24.0697 16.0955C23.4425 16.0955 22.8777 15.9557 22.3754 15.6761C21.8731 15.3966 21.4743 14.9909 21.1788 14.4591C20.8856 13.925 20.739 13.275 20.739 12.5091C20.739 11.7409 20.8856 11.0898 21.1788 10.5557C21.4743 10.0216 21.8731 9.61591 22.3754 9.33864C22.8777 9.06136 23.4425 8.92273 24.0697 8.92273C24.6947 8.92273 25.2584 9.06136 25.7606 9.33864C26.2652 9.61591 26.6652 10.0216 26.9606 10.5557C27.2561 11.0898 27.4038 11.7409 27.4038 12.5091ZM25.6788 12.5091C25.6788 12.0545 25.614 11.6705 25.4845 11.3568C25.3572 11.0432 25.1731 10.8057 24.9322 10.6443C24.6936 10.483 24.4061 10.4023 24.0697 10.4023C23.7356 10.4023 23.4481 10.483 23.2072 10.6443C22.9663 10.8057 22.7811 11.0432 22.6515 11.3568C22.5243 11.6705 22.4606 12.0545 22.4606 12.5091C22.4606 12.9636 22.5243 13.3477 22.6515 13.6614C22.7811 13.975 22.9663 14.2125 23.2072 14.3739C23.4481 14.5352 23.7356 14.6159 24.0697 14.6159C24.4061 14.6159 24.6936 14.5352 24.9322 14.3739C25.1731 14.2125 25.3572 13.975 25.4845 13.6614C25.614 13.3477 25.6788 12.9636 25.6788 12.5091ZM29.349 16V9.01818H32.2331C32.7559 9.01818 33.207 9.1125 33.5865 9.30114C33.9684 9.4875 34.2627 9.75568 34.4695 10.1057C34.6763 10.4534 34.7797 10.8659 34.7797 11.3432C34.7797 11.8273 34.674 12.2386 34.4627 12.5773C34.2513 12.9136 33.9513 13.1705 33.5627 13.3477C33.174 13.5227 32.7138 13.6102 32.182 13.6102H30.3581V12.2807H31.8684C32.1229 12.2807 32.3354 12.2477 32.5059 12.1818C32.6786 12.1136 32.8093 12.0114 32.8979 11.875C32.9865 11.7364 33.0309 11.5591 33.0309 11.3432C33.0309 11.1273 32.9865 10.9489 32.8979 10.808C32.8093 10.6648 32.6786 10.558 32.5059 10.4875C32.3331 10.4148 32.1206 10.3784 31.8684 10.3784H31.0365V16H29.349ZM33.2797 12.8091L35.0184 16H33.1775L31.4729 12.8091H33.2797ZM36.6653 16V9.01818H39.5494C40.0721 9.01818 40.5233 9.12045 40.9028 9.325C41.2846 9.52727 41.5789 9.81023 41.7858 10.1739C41.9926 10.5352 42.096 10.9557 42.096 11.4352C42.096 11.917 41.9903 12.3386 41.7789 12.7C41.5698 13.0591 41.271 13.3375 40.8823 13.5352C40.4937 13.733 40.0323 13.8318 39.4983 13.8318H37.7187V12.5023H39.1846C39.4392 12.5023 39.6517 12.458 39.8221 12.3693C39.9948 12.2807 40.1255 12.1568 40.2142 11.9977C40.3028 11.8364 40.3471 11.6489 40.3471 11.4352C40.3471 11.2193 40.3028 11.033 40.2142 10.8761C40.1255 10.717 39.9948 10.5943 39.8221 10.508C39.6494 10.4216 39.4369 10.3784 39.1846 10.3784H38.3528V16H36.6653ZM45.5753 9.01818V16H43.8878V9.01818H45.5753ZM49.3026 9.01818L50.5776 11.2239H50.6322L51.9208 9.01818H53.8094L51.7026 12.5091L53.8776 16H51.9413L50.6322 13.7705H50.5776L49.2685 16H47.3458L49.5106 12.5091L47.4004 9.01818H49.3026Z" fill="black"/>
<path d="M75.0129 14.1679C75.0189 14.1672 75.025 14.1678 75.0308 14.1698C75.0365 14.1717 75.0418 14.1749 75.0462 14.1791C75.0506 14.1833 75.0541 14.1884 75.0564 14.1941C75.0586 14.1997 75.0596 14.2058 75.0593 14.212C75.0526 14.3308 75.035 14.4438 75.0066 14.551C74.8704 15.062 74.7245 15.585 74.5689 16.12C74.5601 16.151 74.5705 16.1605 74.6001 16.1485C74.6275 16.1376 74.6633 16.104 74.6829 16.0763C74.9415 15.7155 75.2376 15.3538 75.4728 15.0097C76.2788 13.83 76.9709 12.5235 77.3118 11.1289C77.5717 10.0666 77.6438 8.98751 77.299 7.9537C77.0001 7.05682 76.4349 6.38699 75.5583 5.99375C75.2891 5.87282 75.0974 5.79843 74.9832 5.77061C74.0922 5.5511 73.2012 5.54954 72.3102 5.76592C72.2933 5.76983 72.2934 5.77178 72.3105 5.77178C72.3425 5.77139 72.3741 5.77451 72.4053 5.76865C72.8134 5.69245 73.2239 5.67087 73.6369 5.7039C73.7969 5.71677 73.958 5.76241 74.1195 5.7983C75.0242 5.99765 75.6921 6.70064 75.9125 7.58348C76.4076 9.56918 75.2173 11.9337 74.0985 13.5133C73.8308 13.8909 73.5687 14.274 73.2484 14.6103C73.2457 14.613 73.2439 14.6164 73.2434 14.6202C73.2428 14.624 73.2435 14.6278 73.2453 14.6312C73.2472 14.6346 73.25 14.6374 73.2535 14.6391C73.257 14.6408 73.261 14.6413 73.2648 14.6407C73.5402 14.5919 73.848 14.4893 74.0747 14.4347C74.2812 14.3848 74.4869 14.3328 74.6918 14.2787C74.787 14.2537 74.9017 14.1807 75.0129 14.1679Z" stroke="black" stroke-width="0.2"/>
<path d="M74.0489 8.19909C74.0489 7.91456 73.9359 7.64168 73.7347 7.44049C73.5335 7.2393 73.2606 7.12627 72.9761 7.12627C72.6916 7.12627 72.4187 7.2393 72.2175 7.44049C72.0163 7.64168 71.9033 7.91456 71.9033 8.19909C71.9033 8.48362 72.0163 8.75649 72.2175 8.95769C72.4187 9.15888 72.6916 9.27191 72.9761 9.27191C73.2606 9.27191 73.5335 9.15888 73.7347 8.95769C73.9359 8.75649 74.0489 8.48362 74.0489 8.19909Z" stroke="black" stroke-width="0.2"/>
<path d="M62.6735 11.4651C62.6519 11.397 62.6669 11.3443 62.7184 11.3071C62.9041 11.1729 63.0273 11.1016 63.1225 10.8909C63.22 10.6748 63.2836 10.4661 63.2353 10.2269C63.138 9.74733 62.8412 9.43459 62.345 9.28868C61.5773 9.06281 60.4572 9.09558 59.9302 9.74902C59.7699 9.94798 59.6119 10.1887 59.6255 10.4411C59.6259 10.4466 59.6282 10.4518 59.6322 10.4557C59.6361 10.4597 59.6414 10.4621 59.647 10.4625C59.8533 10.4778 60.0503 10.4899 60.2571 10.5371C60.4431 10.5795 60.6316 10.6195 60.8228 10.6572C60.826 10.6579 60.8294 10.6579 60.8326 10.6571C60.8358 10.6564 60.8389 10.655 60.8416 10.653C60.8442 10.6511 60.8465 10.6485 60.8482 10.6456C60.8498 10.6427 60.8509 10.6395 60.8513 10.6361C60.8914 10.2632 61.1848 9.86606 61.6128 10.04C62.0985 10.2378 61.9779 10.793 61.5796 10.9896C61.4602 11.0485 61.3073 11.0407 61.17 11.0489C61.1572 11.0497 61.15 11.0563 61.1481 11.0688C61.1039 11.3603 61.0812 11.6536 61.0799 11.9485C61.0799 11.9805 61.0951 11.9915 61.1255 11.9817C61.344 11.9118 61.6202 11.883 61.825 11.9938C62.1761 12.1837 62.2319 12.6585 62.0602 12.9889C61.894 13.3092 61.5004 13.4512 61.1887 13.2394C60.9827 13.0993 60.8981 12.8848 60.8493 12.6472C60.8478 12.6402 60.8437 12.6341 60.8379 12.6301C60.8321 12.626 60.825 12.6243 60.8181 12.6254L59.5327 12.8071C59.5165 12.8095 59.5111 12.8185 59.5163 12.8341C59.6446 13.223 59.8701 13.6163 60.2154 13.8382C60.7471 14.1808 61.5336 14.2174 62.1273 14.1004C62.6844 13.9908 63.0909 13.7267 63.3301 13.2207C63.5989 12.6519 63.5255 11.5771 62.6985 11.4854C62.6857 11.4841 62.6774 11.4774 62.6735 11.4651Z" stroke="black" stroke-width="0.2"/>
<path d="M64.7661 13.7337C65.0544 13.9974 65.3318 14.0442 65.6782 14.1121C66.4857 14.2709 67.3775 14.0563 67.8016 13.3065C67.8677 13.19 67.9141 13.0583 67.9409 12.9113C68.093 12.0757 67.8309 11.2311 66.9664 10.9381C66.4098 10.7495 65.9123 10.8571 65.4738 11.2607C65.4694 11.2648 65.4641 11.2675 65.4583 11.2688C65.4525 11.27 65.4465 11.2696 65.4409 11.2677C65.4353 11.2658 65.4303 11.2624 65.4265 11.2578C65.4226 11.2533 65.4201 11.2478 65.4192 11.242C65.3782 10.9927 65.489 10.4462 65.6478 10.2449C65.9848 9.81768 66.4857 9.98075 66.5727 10.4813C66.5753 10.4953 66.5838 10.5019 66.5981 10.5012C67.0026 10.4832 67.3846 10.3685 67.8504 10.3631C67.8681 10.3628 67.8775 10.354 67.8788 10.3365C67.882 10.2978 67.8734 10.2518 67.8531 10.1984C67.664 9.70195 67.3227 9.38569 66.829 9.24967C66.3398 9.11508 65.9372 9.14122 65.4511 9.26176C65.0072 9.37217 64.4669 9.76931 64.3011 10.2109C64.0553 10.8661 63.9775 11.5342 64.0678 12.2153C64.1501 12.8356 64.3132 13.3202 64.7661 13.7337Z" stroke="black" stroke-width="0.2"/>
<path d="M69.1658 13.713C69.6546 14.1835 70.4821 14.2358 71.1004 14.086C71.5869 13.9681 71.931 13.7157 72.149 13.2753C72.3976 12.7724 72.4701 11.9836 72.4358 11.2627C72.4295 11.135 72.3909 10.9044 72.3199 10.571C72.1998 10.0046 71.8818 9.49078 71.3095 9.30157C70.7829 9.12706 70.2541 9.11964 69.7233 9.27933C68.9708 9.5056 68.6645 10.1157 68.5623 10.8429C68.4731 11.477 68.4956 12.1038 68.6298 12.7233C68.7254 13.1637 68.8545 13.4138 69.1658 13.713Z" stroke="black" stroke-width="0.2"/>
<path d="M69.6613 16.1891C69.9714 16.5172 70.2995 16.7973 70.5691 17.1234C70.5737 17.129 70.5772 17.1354 70.5793 17.1423C70.5813 17.1493 70.582 17.1566 70.5813 17.1638C70.5805 17.171 70.5783 17.1779 70.5748 17.1843C70.5713 17.1906 70.5666 17.1962 70.5609 17.2006C69.5094 18.0256 68.3567 18.6705 67.1029 19.1352C66.4524 19.3766 65.7506 19.5057 64.9974 19.5226C64.8012 19.5269 64.6003 19.4918 64.4041 19.4625C63.2271 19.285 62.3669 18.4205 62.2713 17.2248C62.237 16.7923 62.2379 16.3783 62.274 15.9827C62.2779 15.9411 62.2753 15.9071 62.2662 15.8809C62.2563 15.8515 62.2485 15.8521 62.2428 15.8828C62.2223 15.9967 62.209 16.1114 62.203 16.2269C62.1788 16.6974 62.1383 17.2003 62.1687 17.6551C62.2565 18.9726 62.9953 20.2381 64.2847 20.7211C64.921 20.9594 65.5541 21.0425 66.2302 21.0133C67.3545 20.9649 68.4987 20.6165 69.5099 20.1363C70.4134 19.7068 71.2198 19.1848 72.0363 18.6125C72.043 18.6078 72.0511 18.6056 72.0592 18.6063C72.0674 18.607 72.075 18.6106 72.0808 18.6164L73.0647 19.601C73.0844 19.6205 73.0978 19.6169 73.1048 19.5901L74.3497 14.9575C74.3604 14.9179 74.3458 14.9034 74.306 14.9138C72.957 15.2737 71.6115 15.6358 70.2695 15.9999C70.0814 16.051 69.8747 16.0884 69.6784 16.1321C69.6392 16.1407 69.6334 16.1597 69.6613 16.1891Z" stroke="black" stroke-width="0.2"/>
<path d="M73.5176 8.19909C73.5176 8.05538 73.4605 7.91755 73.3588 7.81593C73.2572 7.71431 73.1194 7.65722 72.9757 7.65722C72.832 7.65722 72.6941 7.71431 72.5925 7.81593C72.4909 7.91755 72.4338 8.05538 72.4338 8.19909C72.4338 8.3428 72.4909 8.48063 72.5925 8.58225C72.6941 8.68387 72.832 8.74096 72.9757 8.74096C73.1194 8.74096 73.2572 8.68387 73.3588 8.58225C73.4605 8.48063 73.5176 8.3428 73.5176 8.19909Z" stroke="black" stroke-width="0.2"/>
<path d="M66.1513 13.3169C66.2379 13.3103 66.3221 13.2823 66.3989 13.2347C66.4758 13.1871 66.5438 13.1207 66.5992 13.0394C66.6545 12.9581 66.6961 12.8634 66.7216 12.7608C66.747 12.6581 66.7558 12.5495 66.7475 12.4412C66.7307 12.2224 66.645 12.0179 66.5094 11.8727C66.3738 11.7275 66.1993 11.6535 66.0243 11.6669C65.9377 11.6736 65.8536 11.7015 65.7767 11.7492C65.6999 11.7968 65.6318 11.8631 65.5765 11.9445C65.5211 12.0258 65.4795 12.1205 65.454 12.2231C65.4286 12.3258 65.4198 12.4344 65.4281 12.5427C65.445 12.7615 65.5306 12.966 65.6662 13.1112C65.8019 13.2564 65.9763 13.3304 66.1513 13.3169Z" stroke="black" stroke-width="0.2"/>
<path d="M70.1996 13.1473C70.5359 13.3865 70.882 13.111 70.9967 12.7822C71.0487 12.6324 71.0797 12.5062 71.0899 12.4038C71.1331 11.9564 71.132 11.4754 71.0868 10.9607C71.0528 10.5804 70.9237 10.0872 70.4606 10.0681C69.8595 10.0439 69.8466 11.0138 69.8388 11.4078C69.8298 11.874 69.7826 12.8512 70.1996 13.1473Z" stroke="black" stroke-width="0.2"/>
<path d="M75.0129 14.1679C74.9017 14.1807 74.787 14.2537 74.6918 14.2787C74.4869 14.3328 74.2812 14.3848 74.0747 14.4347C73.848 14.4893 73.5402 14.5919 73.2648 14.6407C73.261 14.6413 73.257 14.6408 73.2535 14.6391C73.25 14.6374 73.2472 14.6346 73.2453 14.6312C73.2435 14.6278 73.2428 14.624 73.2434 14.6202C73.2439 14.6164 73.2457 14.613 73.2484 14.6103C73.5687 14.274 73.8308 13.8909 74.0985 13.5133C75.2173 11.9337 76.4076 9.56918 75.9125 7.58348C75.6921 6.70064 75.0242 5.99765 74.1195 5.7983C73.958 5.76241 73.7969 5.71677 73.6369 5.7039C73.2239 5.67087 72.8134 5.69245 72.4053 5.76865C72.3741 5.77451 72.3425 5.77139 72.3105 5.77178C72.2934 5.77178 72.2933 5.76983 72.3102 5.76592C73.2012 5.54954 74.0922 5.5511 74.9832 5.77061C75.0974 5.79843 75.2891 5.87282 75.5583 5.99375C76.4349 6.38699 77.0001 7.05682 77.299 7.9537C77.6438 8.98751 77.5717 10.0666 77.3118 11.1289C76.9709 12.5235 76.2788 13.83 75.4728 15.0097C75.2376 15.3538 74.9415 15.7155 74.6829 16.0763C74.6633 16.104 74.6275 16.1376 74.6001 16.1485C74.5705 16.1605 74.5601 16.151 74.5689 16.12C74.7245 15.585 74.8704 15.062 75.0066 14.551C75.035 14.4438 75.0526 14.3308 75.0593 14.212C75.0596 14.2058 75.0586 14.1997 75.0564 14.1941C75.0541 14.1884 75.0506 14.1833 75.0462 14.1791C75.0418 14.1749 75.0365 14.1717 75.0308 14.1698C75.025 14.1678 75.0189 14.1672 75.0129 14.1679Z" fill="black"/>
<path d="M74.0489 8.19909C74.0489 8.48362 73.9359 8.75649 73.7347 8.95769C73.5335 9.15888 73.2606 9.27191 72.9761 9.27191C72.6916 9.27191 72.4187 9.15888 72.2175 8.95769C72.0163 8.75649 71.9033 8.48362 71.9033 8.19909C71.9033 7.91456 72.0163 7.64168 72.2175 7.44049C72.4187 7.2393 72.6916 7.12627 72.9761 7.12627C73.2606 7.12627 73.5335 7.2393 73.7347 7.44049C73.9359 7.64168 74.0489 7.91456 74.0489 8.19909ZM73.5176 8.19909C73.5176 8.05537 73.4605 7.91755 73.3589 7.81593C73.2572 7.71431 73.1194 7.65722 72.9757 7.65722C72.832 7.65722 72.6942 7.71431 72.5925 7.81593C72.4909 7.91755 72.4338 8.05537 72.4338 8.19909C72.4338 8.3428 72.4909 8.48063 72.5925 8.58225C72.6942 8.68387 72.832 8.74096 72.9757 8.74096C73.1194 8.74096 73.2572 8.68387 73.3589 8.58225C73.4605 8.48063 73.5176 8.3428 73.5176 8.19909Z" fill="black"/>
<path d="M62.6985 11.4854C63.5255 11.5771 63.5989 12.6519 63.3301 13.2207C63.0909 13.7267 62.6844 13.9908 62.1273 14.1004C61.5336 14.2174 60.7471 14.1808 60.2154 13.8382C59.8701 13.6163 59.6446 13.223 59.5163 12.8341C59.5111 12.8185 59.5165 12.8095 59.5327 12.8071L60.8181 12.6254C60.825 12.6243 60.8321 12.626 60.8379 12.6301C60.8437 12.6341 60.8478 12.6402 60.8493 12.6472C60.8981 12.8848 60.9827 13.0993 61.1887 13.2394C61.5004 13.4512 61.894 13.3092 62.0602 12.9889C62.2319 12.6585 62.1761 12.1837 61.825 11.9938C61.6202 11.883 61.344 11.9118 61.1255 11.9817C61.0951 11.9915 61.0799 11.9805 61.0799 11.9485C61.0812 11.6536 61.1039 11.3603 61.1481 11.0688C61.15 11.0563 61.1572 11.0497 61.17 11.0489C61.3073 11.0407 61.4602 11.0485 61.5796 10.9896C61.9779 10.793 62.0985 10.2378 61.6128 10.04C61.1848 9.86606 60.8914 10.2632 60.8513 10.6361C60.8509 10.6395 60.8498 10.6427 60.8482 10.6456C60.8465 10.6485 60.8442 10.6511 60.8416 10.653C60.8389 10.655 60.8358 10.6564 60.8326 10.6571C60.8294 10.6579 60.826 10.6579 60.8228 10.6572C60.6316 10.6195 60.4431 10.5795 60.2571 10.5371C60.0503 10.4899 59.8533 10.4778 59.647 10.4625C59.6414 10.4621 59.6361 10.4597 59.6322 10.4557C59.6282 10.4518 59.6259 10.4466 59.6255 10.4411C59.6119 10.1887 59.7699 9.94798 59.9302 9.74902C60.4572 9.09558 61.5773 9.06281 62.345 9.28868C62.8412 9.43459 63.138 9.74733 63.2353 10.2269C63.2836 10.4661 63.22 10.6748 63.1225 10.8909C63.0273 11.1016 62.9041 11.1729 62.7184 11.3071C62.6669 11.3443 62.6519 11.397 62.6735 11.4651C62.6774 11.4774 62.6857 11.4841 62.6985 11.4854Z" fill="black"/>
<path d="M64.7661 13.7337C64.3131 13.3202 64.1501 12.8356 64.0678 12.2153C63.9775 11.5342 64.0553 10.8661 64.301 10.2109C64.4668 9.76931 65.0072 9.37217 65.4511 9.26176C65.9372 9.14122 66.3398 9.11508 66.829 9.24967C67.3226 9.38569 67.664 9.70195 67.8531 10.1984C67.8734 10.2518 67.8819 10.2978 67.8788 10.3365C67.8775 10.354 67.868 10.3628 67.8503 10.3631C67.3845 10.3685 67.0026 10.4832 66.5981 10.5012C66.5838 10.5019 66.5753 10.4953 66.5727 10.4813C66.4857 9.98075 65.9848 9.81768 65.6477 10.2449C65.489 10.4462 65.3782 10.9927 65.4191 11.242C65.4201 11.2478 65.4226 11.2533 65.4264 11.2578C65.4303 11.2624 65.4352 11.2658 65.4408 11.2677C65.4464 11.2696 65.4525 11.27 65.4582 11.2688C65.464 11.2675 65.4694 11.2648 65.4737 11.2607C65.9122 10.8571 66.4098 10.7495 66.9663 10.9381C67.8308 11.2311 68.093 12.0757 67.9408 12.9113C67.9141 13.0583 67.8676 13.19 67.8016 13.3065C67.3775 14.0563 66.4857 14.2709 65.6782 14.1121C65.3317 14.0442 65.0544 13.9974 64.7661 13.7337ZM66.1513 13.3169C66.2379 13.3103 66.322 13.2823 66.3989 13.2347C66.4757 13.1871 66.5438 13.1207 66.5991 13.0394C66.6545 12.9581 66.6961 12.8634 66.7216 12.7607C66.747 12.6581 66.7558 12.5495 66.7475 12.4412C66.7306 12.2224 66.645 12.0179 66.5094 11.8727C66.3737 11.7275 66.1993 11.6535 66.0243 11.6669C65.9377 11.6736 65.8535 11.7015 65.7767 11.7492C65.6998 11.7968 65.6318 11.8631 65.5764 11.9445C65.5211 12.0258 65.4795 12.1205 65.454 12.2231C65.4286 12.3258 65.4198 12.4344 65.4281 12.5427C65.4449 12.7615 65.5306 12.966 65.6662 13.1112C65.8018 13.2564 65.9763 13.3304 66.1513 13.3169Z" fill="black"/>
<path d="M69.1658 13.713C68.8545 13.4138 68.7253 13.1637 68.6298 12.7233C68.4956 12.1038 68.4731 11.477 68.5623 10.8429C68.6645 10.1157 68.9707 9.50559 69.7233 9.27932C70.2541 9.11964 70.7828 9.12705 71.3095 9.30156C71.8818 9.49077 72.1997 10.0046 72.3199 10.571C72.3909 10.9044 72.4295 11.135 72.4358 11.2627C72.4701 11.9836 72.3975 12.7724 72.149 13.2753C71.9309 13.7157 71.5869 13.9681 71.1004 14.086C70.482 14.2358 69.6546 14.1835 69.1658 13.713ZM70.1996 13.1473C70.5359 13.3865 70.8819 13.1111 70.9966 12.7822C71.0486 12.6324 71.0797 12.5062 71.0898 12.4038C71.133 11.9564 71.132 11.4754 71.0867 10.9607C71.0528 10.5804 70.9237 10.0873 70.4606 10.0681C69.8594 10.044 69.8465 11.0138 69.8387 11.4078C69.8298 11.874 69.7826 12.8512 70.1996 13.1473Z" fill="black"/>
<path d="M69.6613 16.1891C69.6334 16.1597 69.6392 16.1407 69.6784 16.1321C69.8747 16.0884 70.0814 16.051 70.2695 15.9999C71.6115 15.6358 72.957 15.2737 74.306 14.9138C74.3458 14.9034 74.3604 14.9179 74.3497 14.9575L73.1048 19.5901C73.0978 19.6169 73.0844 19.6205 73.0647 19.601L72.0808 18.6164C72.075 18.6106 72.0674 18.607 72.0592 18.6063C72.0511 18.6056 72.043 18.6078 72.0363 18.6125C71.2198 19.1848 70.4134 19.7068 69.5099 20.1363C68.4987 20.6165 67.3545 20.9649 66.2302 21.0133C65.5541 21.0425 64.921 20.9594 64.2847 20.7211C62.9953 20.2381 62.2565 18.9726 62.1687 17.6551C62.1383 17.2003 62.1788 16.6974 62.203 16.2269C62.209 16.1114 62.2223 15.9967 62.2428 15.8828C62.2485 15.8521 62.2563 15.8515 62.2662 15.8809C62.2753 15.9071 62.2779 15.9411 62.274 15.9827C62.2379 16.3783 62.237 16.7923 62.2713 17.2248C62.3669 18.4205 63.2271 19.285 64.4041 19.4625C64.6003 19.4918 64.8012 19.5269 64.9974 19.5226C65.7506 19.5057 66.4524 19.3766 67.1029 19.1352C68.3567 18.6705 69.5094 18.0256 70.5609 17.2006C70.5666 17.1962 70.5713 17.1906 70.5748 17.1843C70.5783 17.1779 70.5805 17.171 70.5813 17.1638C70.582 17.1566 70.5813 17.1493 70.5793 17.1423C70.5772 17.1354 70.5737 17.129 70.5691 17.1234C70.2995 16.7973 69.9714 16.5172 69.6613 16.1891Z" fill="black"/>
</svg>
