<svg width="86" height="25" viewBox="0 0 86 25" fill="none" xmlns="http://www.w3.org/2000/svg">
<path d="M9.00012 6.25519L17.8427 1.39887L17.8427 2.8333L10.2283 7.18843L9.00012 6.25519Z" fill="#C9FA49"/>
<path d="M13.5852 8.43268L17.8591 5.99588L17.8591 7.55128L14.8133 9.24494L13.5852 8.43268Z" fill="#C9FA49"/>
<path d="M10.2938 7.81061L17.8337 3.73199L17.8337 5.25283L11.5711 8.692L10.2938 7.81061Z" fill="#C9FA49"/>
<path d="M26.3087 8.24243L17.8428 2.83308L17.8428 1.39865L26.3087 6.70431L26.3087 8.24243Z" fill="#C9FA49"/>
<path d="M24.278 8.96843L17.7644 5.28731L17.7644 3.7319L24.278 7.65498L24.278 8.96843Z" fill="#C9FA49"/>
<path d="M17.7936 20.3574L11.0143 16.0714L11.0143 14.7234L17.7936 19.0267L17.7936 20.3574Z" fill="#C9FA49"/>
<path d="M17.7937 19.0268L24.1144 15.3284L25.0642 15.9506L17.7937 20.3576L17.7937 19.0268Z" fill="#C9FA49"/>
<path d="M17.7937 16.4169L21.8547 13.8419L23.1975 14.7233L17.7937 18.0242L17.7937 16.4169Z" fill="#C9FA49"/>
<path d="M24.2783 11.2667L17.8592 7.55102L17.8592 5.99562L24.2783 9.84956L24.2783 11.2667Z" fill="#C9FA49"/>
<path d="M17.7936 18.0243L11.0144 13.9111L11.0144 12.1483L17.7936 16.417L17.7936 18.0243Z" fill="#C9FA49"/>
<path d="M17.7608 22.5697L9.00011 17.264L10.2282 16.4344L17.7608 21.1007L17.7608 22.5697Z" fill="#C9FA49"/>
<path d="M17.7739 22.5693L9.00027 17.2636L10.2284 16.4341L17.7739 21.1003L17.7739 22.5693Z" fill="#C9FA49"/>
<path d="M17.7608 21.1005L26.3086 15.9849L26.3086 17.3675L17.7608 22.5695L17.7608 21.1005Z" fill="#C9FA49"/>
<path d="M9.00012 17.2638L9.00012 6.25498L10.2283 7.1191L10.2283 16.4342L9.00012 17.2638Z" fill="#C9FA49"/>
<path d="M23.4266 16.8319L10.2283 7.7933L11.6038 7.10201L25.0641 15.9505L23.4266 16.8319Z" fill="#C9FA49"/>
<path d="M25.0642 18.1279L25.0642 6.92901L26.3087 6.70434V17.3502L25.0642 18.1279Z" fill="#C9FA49"/>
<path d="M23.1156 10.6102V8.3117L24.2782 7.79323V11.267L23.1156 10.6102Z" fill="#C9FA49"/>
<path d="M11.0144 16.0712V12.0569L12.4063 13.0216V16.9526L11.0144 16.0712Z" fill="#C9FA49"/>
<path d="M34.6615 16.1538C34.1419 16.1538 33.6838 16.0821 33.2872 15.9385C32.8974 15.7949 32.5658 15.5966 32.2923 15.3436C32.0256 15.0838 31.8171 14.7829 31.6667 14.441C31.5231 14.0991 31.4376 13.7299 31.4103 13.3333H32.5179C32.5385 13.6479 32.6308 13.9521 32.7949 14.2462C32.959 14.5333 33.1983 14.7692 33.5128 14.9538C33.8342 15.1385 34.2342 15.2308 34.7128 15.2308C35.2325 15.2308 35.6393 15.1179 35.9333 14.8923C36.2274 14.6598 36.3744 14.3453 36.3744 13.9487C36.3744 13.5521 36.2308 13.2479 35.9436 13.0359C35.6632 12.8239 35.3077 12.6462 34.8769 12.5026L34.1077 12.2462C33.7179 12.1162 33.3453 11.9658 32.9897 11.7949C32.6342 11.6171 32.3436 11.3846 32.1179 11.0974C31.8923 10.8103 31.7795 10.4342 31.7795 9.96923C31.7795 9.51795 31.8889 9.13504 32.1077 8.82051C32.3265 8.50598 32.6308 8.26667 33.0205 8.10256C33.4103 7.93162 33.8615 7.84615 34.3744 7.84615C34.9966 7.84615 35.5094 7.95897 35.9128 8.18462C36.3162 8.40342 36.6205 8.69402 36.8256 9.05641C37.0308 9.4188 37.147 9.8188 37.1744 10.2564H36.0667C36.0462 10.0034 35.9744 9.7641 35.8513 9.53846C35.735 9.31282 35.5538 9.1282 35.3077 8.98462C35.0615 8.84103 34.7368 8.76923 34.3333 8.76923C33.8957 8.76923 33.5436 8.86838 33.2769 9.06667C33.0171 9.25812 32.8872 9.52479 32.8872 9.86667C32.8872 10.2496 33.0376 10.5436 33.3385 10.7487C33.6462 10.9538 34.012 11.1248 34.4359 11.2615L35.2154 11.5179C35.6051 11.641 35.9709 11.7915 36.3128 11.9692C36.6615 12.147 36.9419 12.3829 37.1538 12.6769C37.3726 12.9641 37.4821 13.3504 37.4821 13.8359C37.4821 14.5744 37.2256 15.1453 36.7128 15.5487C36.2 15.9521 35.5162 16.1538 34.6615 16.1538ZM38.8942 16V8H40.0224V11.3846H40.6378L43.325 8H44.6071V8.06154L41.5404 11.8256L44.8635 15.9385V16H43.4686L40.6378 12.4103H40.0224V16H38.8942ZM48.5849 16.1436C47.7713 16.1436 47.0943 15.9761 46.5542 15.641C46.0208 15.2991 45.6208 14.8171 45.3542 14.1949C45.0943 13.5726 44.9644 12.841 44.9644 12C44.9644 11.1521 45.0943 10.4205 45.3542 9.80513C45.6208 9.18291 46.0208 8.70427 46.5542 8.36923C47.0943 8.02735 47.7713 7.85641 48.5849 7.85641C49.4054 7.85641 50.0824 8.02735 50.6157 8.36923C51.149 8.70427 51.5456 9.18291 51.8054 9.80513C52.0721 10.4205 52.2054 11.1521 52.2054 12C52.2054 12.841 52.0721 13.5726 51.8054 14.1949C51.5456 14.8171 51.149 15.2991 50.6157 15.641C50.0824 15.9761 49.4054 16.1436 48.5849 16.1436ZM48.5849 15.2205C49.4191 15.2205 50.0345 14.9402 50.4311 14.3795C50.8345 13.812 51.0362 13.0188 51.0362 12C51.0362 10.9812 50.8345 10.1915 50.4311 9.63077C50.0345 9.06325 49.4191 8.77949 48.5849 8.77949C47.7507 8.77949 47.1319 9.06325 46.7285 9.63077C46.3319 10.1915 46.1337 10.9812 46.1337 12C46.1337 13.0188 46.3319 13.812 46.7285 14.3795C47.1319 14.9402 47.7507 15.2205 48.5849 15.2205ZM53.5577 16V8H56.5423C57.2192 8 57.7628 8.09573 58.1731 8.28718C58.5833 8.47863 58.8808 8.73504 59.0654 9.05641C59.25 9.37778 59.3423 9.73675 59.3423 10.1333C59.3423 10.653 59.1953 11.0906 58.9013 11.4462C58.6141 11.8017 58.1868 12.0479 57.6192 12.1846L59.5679 15.9385V16H58.3577L56.4808 12.3385H54.6859V16H53.5577ZM54.6859 11.4564H56.4705C57.0859 11.4564 57.5235 11.347 57.7833 11.1282C58.0432 10.9026 58.1731 10.588 58.1731 10.1846C58.1731 9.77436 58.0432 9.46325 57.7833 9.25128C57.5235 9.03248 57.0859 8.92308 56.4705 8.92308H54.6859V11.4564ZM60.7332 16V8H63.5845C64.6033 8 65.3451 8.21197 65.8101 8.6359C66.2819 9.05299 66.5178 9.61367 66.5178 10.3179C66.5178 11.0222 66.2819 11.5863 65.8101 12.0103C65.3451 12.4274 64.6033 12.6359 63.5845 12.6359H61.8819V16H60.7332ZM61.8819 11.7128H63.5332C64.1759 11.7128 64.6374 11.6 64.9178 11.3744C65.205 11.1487 65.3486 10.7966 65.3486 10.3179C65.3486 9.83932 65.205 9.48718 64.9178 9.26154C64.6374 9.0359 64.1759 8.92308 63.5332 8.92308H61.8819V11.7128ZM67.8535 16V8H69.0022V16H67.8535ZM70.151 16V15.9385L72.7561 11.7231L70.5407 8.06154V8H71.751L73.5253 10.9538H73.7304L75.4843 8H76.674V8.06154L74.4587 11.7231L77.0638 15.9385V16H75.7715L73.6894 12.4718H73.4843L71.4228 16H70.151Z" fill="#C9FA49"/>
</svg>
