<svg width="32" height="32" viewBox="0 0 32 32" fill="none" xmlns="http://www.w3.org/2000/svg">
<g clip-path="url(#clip0_335_37)">
<path d="M5.29609 10.1589L16.0259 4.05837L16.026 6.04508L7.10125 11.1623L7.10125 21.2964L16.0057 26.3735L24.8695 21.2964L24.8695 11.1623L16.026 6.04508L16.0259 4.05837L26.6748 10.1589L26.6748 22.2597L16.0057 28.4204L5.29614 22.2596L5.29609 10.1589Z" fill="#C9FA49"/>
<path d="M7.10093 11.8245L16.0256 6.79338L24.3621 11.5435L24.3621 15.8982L16.0256 11.1221L12.2123 13.2232L10.5085 12.2308L16.0256 9.17555L22.2526 12.7275L22.2526 11.985L16.0256 8.39291L9.87976 11.8646L24.9706 20.6542L15.9648 25.6711L7.68923 20.9351L7.68923 16.6005L9.06843 17.4032L16.0256 21.3365L19.7984 19.1187L21.5834 20.1441L16.0256 23.3232L9.06843 19.3698L9.06843 20.0923L16.0256 24.0054L22.1918 20.4936L7.10093 11.8245Z" fill="#C9FA49"/>
</g>
<defs>
<clipPath id="clip0_335_37">
<rect width="32" height="32" fill="white"/>
</clipPath>
</defs>
</svg>
