<svg width="32" height="32" viewBox="0 0 32 32" fill="none" xmlns="http://www.w3.org/2000/svg">
<g clip-path="url(#clip0_195_30)">
<path d="M3.28911 8.42279L16.0308 0.814125L16.0309 3.29196L5.43273 9.67419L5.43273 22.3135L16.0068 28.6458L26.5325 22.3135L26.5325 9.67418L16.0309 3.29196L16.0308 0.814125L28.6763 8.42279L28.6763 23.5149L16.0068 31.1987L3.28917 23.5149L3.28911 8.42279Z" fill="white"/>
<path d="M5.43266 10.5002L16.0307 4.2254L25.9303 10.1498L25.9303 15.581L16.0307 9.62422L11.5025 12.2447L9.4792 11.007L16.0307 7.19646L23.4253 11.6265L23.4253 10.7004L16.0307 6.22036L8.73252 10.5503L26.6529 21.5127L15.9585 27.7698L6.13126 21.8631L6.13127 16.457L7.76906 17.4581L16.0307 22.3637L20.5109 19.5977L22.6305 20.8766L16.0307 24.8415L7.76906 19.9109L7.76906 20.8119L16.0307 25.6925L23.353 21.3125L5.43266 10.5002Z" fill="white"/>
</g>
<defs>
<clipPath id="clip0_195_30">
<rect width="32" height="32" fill="white"/>
</clipPath>
</defs>
</svg>
