<svg width="256" height="256" viewBox="0 0 256 256" fill="none" xmlns="http://www.w3.org/2000/svg">
<rect width="256" height="256" fill="#C9FA49"/>
<path d="M91.2599 109.8C90.9522 106.414 89.5826 103.783 87.1513 101.906C84.7507 99.9974 81.3191 99.0433 76.8565 99.0433C73.902 99.0433 71.4399 99.428 69.4702 100.197C67.5005 100.967 66.0232 102.029 65.0384 103.383C64.0535 104.706 63.5457 106.23 63.5149 107.953C63.4534 109.369 63.7304 110.615 64.3459 111.692C64.9922 112.77 65.9155 113.724 67.1158 114.555C68.3468 115.355 69.8241 116.063 71.5476 116.678C73.2711 117.294 75.21 117.832 77.3643 118.294L85.4893 120.141C90.1674 121.156 94.2914 122.51 97.8615 124.203C101.462 125.896 104.478 127.912 106.91 130.251C109.372 132.59 111.234 135.283 112.496 138.33C113.758 141.376 114.404 144.793 114.435 148.578C114.404 154.549 112.896 159.673 109.911 163.951C106.925 168.229 102.632 171.507 97.0305 173.784C91.46 176.062 84.7353 177.2 76.8565 177.2C68.947 177.2 62.053 176.015 56.1747 173.646C50.2964 171.276 45.7261 167.675 42.4638 162.843C39.2015 158.011 37.5241 151.902 37.4318 144.516H59.3139C59.4986 147.562 60.3142 150.102 61.7607 152.133C63.2072 154.164 65.1922 155.703 67.7159 156.749C70.2704 157.796 73.2249 158.319 76.5795 158.319C79.6572 158.319 82.2732 157.903 84.4276 157.072C86.6127 156.241 88.29 155.087 89.4595 153.61C90.629 152.133 91.2292 150.44 91.2599 148.532C91.2292 146.747 90.6752 145.223 89.598 143.962C88.5208 142.669 86.8589 141.561 84.6122 140.638C82.3963 139.684 79.5649 138.807 76.1179 138.006L66.2386 135.698C58.0521 133.821 51.6044 130.789 46.8956 126.604C42.1868 122.387 39.8478 116.694 39.8786 109.523C39.8478 103.675 41.4174 98.5509 44.5874 94.1499C47.7573 89.7488 52.143 86.3172 57.7443 83.8551C63.3456 81.393 69.7318 80.1619 76.9027 80.1619C84.2275 80.1619 90.5829 81.4084 95.9688 83.9013C101.385 86.3634 105.586 89.8258 108.572 94.2884C111.557 98.7509 113.08 103.921 113.142 109.8H91.2599ZM138.976 176V81.4545H178.031C185.11 81.4545 191.219 82.8395 196.359 85.6094C201.529 88.3485 205.515 92.1802 208.315 97.1044C211.116 101.998 212.516 107.692 212.516 114.185C212.516 120.71 211.085 126.419 208.223 131.312C205.392 136.175 201.344 139.945 196.082 142.623C190.819 145.3 184.571 146.639 177.339 146.639H153.241V128.635H173.092C176.539 128.635 179.416 128.035 181.724 126.835C184.063 125.634 185.833 123.957 187.033 121.803C188.234 119.617 188.834 117.078 188.834 114.185C188.834 111.262 188.234 108.738 187.033 106.614C185.833 104.46 184.063 102.798 181.724 101.629C179.385 100.459 176.508 99.8743 173.092 99.8743H161.827V176H138.976Z" fill="black"/>
</svg>
