<svg width="16" height="16" viewBox="0 0 16 16" fill="none" xmlns="http://www.w3.org/2000/svg">
<g clip-path="url(#clip0_335_36)">
<path d="M2.64805 4.57922L8.01297 1.52894L8.01299 2.5223L3.55062 5.0809L3.55062 10.1479L8.00285 12.6865L12.4348 10.1479L12.4348 5.0809L8.01299 2.5223L8.01297 1.52894L13.3374 4.57922L13.3374 10.6296L8.00285 13.7099L2.64807 10.6296L2.64805 4.57922Z" fill="white"/>
<path d="M3.55047 5.41199L8.01281 2.89644L12.1811 5.27151L12.1811 7.44884L8.01281 5.06081L6.10617 6.11136L5.25427 5.61517L8.01282 4.08753L11.1263 5.86351L11.1263 5.49226L8.01281 3.69621L4.93988 5.43205L12.4853 9.82685L7.98239 12.3353L3.84462 9.96732L3.84462 7.80002L4.53421 8.20137L8.01281 10.168L9.89921 9.05912L10.7917 9.57182L8.01281 11.1613L4.53421 9.18468L4.53421 9.5459L8.01281 11.5025L11.0959 9.74657L3.55047 5.41199Z" fill="white"/>
</g>
<defs>
<clipPath id="clip0_335_36">
<rect width="16" height="16" fill="white"/>
</clipPath>
</defs>
</svg>
