<svg width="32" height="32" viewBox="0 0 32 32" fill="none" xmlns="http://www.w3.org/2000/svg">
<path d="M2.87524 7.6637L15.7706 0.581568L15.7706 2.67344L4.66627 9.02468L2.87524 7.6637Z" fill="url(#paint0_linear_102_146)"/>
<path d="M9.56189 10.8392L15.7947 7.28556L15.7947 9.55386L11.3529 12.0238L9.56189 10.8392Z" fill="url(#paint1_linear_102_146)"/>
<path d="M4.76196 9.93201L15.7576 3.98402L15.7576 6.20191L6.62463 11.2174L4.76196 9.93201Z" fill="url(#paint2_linear_102_146)"/>
<path d="M28.1167 10.5619L15.7706 2.67325L15.7706 0.581372L28.1167 8.31879L28.1167 10.5619Z" fill="url(#paint3_linear_102_146)"/>
<path d="M25.1553 11.6207L15.6562 6.25239L15.6562 3.9841L25.1553 9.70525L25.1553 11.6207Z" fill="url(#paint4_linear_102_146)"/>
<path d="M15.699 28.2296L5.81251 21.9792L5.81251 20.0133L15.699 26.289L15.699 28.2296Z" fill="url(#paint5_linear_102_146)"/>
<path d="M15.6992 26.289L24.917 20.8955L26.302 21.8028L15.6992 28.2297L15.6992 26.289Z" fill="url(#paint6_linear_102_146)"/>
<path d="M15.6989 22.4831L21.6213 18.7278L23.5795 20.0132L15.6989 24.827L15.6989 22.4831Z" fill="url(#paint7_linear_102_146)"/>
<path d="M25.1558 14.9724L15.7947 9.55369L15.7947 7.28539L25.1558 12.9057L25.1558 14.9724Z" fill="url(#paint8_linear_102_146)"/>
<path d="M15.6992 24.827L5.81273 18.8286L5.81273 16.2579L15.6992 22.4831L15.6992 24.827Z" fill="url(#paint9_linear_102_146)"/>
<path d="M15.6512 31.4556L2.8752 23.7182L4.66622 22.5084L15.6512 29.3133L15.6512 31.4556Z" fill="url(#paint10_linear_102_146)"/>
<path d="M15.6699 31.4553L2.87504 23.7179L4.66607 22.5081L15.6699 29.313L15.6699 31.4553Z" fill="url(#paint11_linear_102_146)"/>
<path d="M15.6513 29.3132L28.1168 21.853L28.1168 23.8693L15.6513 31.4555L15.6513 29.3132Z" fill="url(#paint12_linear_102_146)"/>
<path d="M2.87524 23.7181L2.87524 7.66363L4.66627 8.92379L4.66627 22.5084L2.87524 23.7181Z" fill="url(#paint13_linear_102_146)"/>
<path d="M23.9138 23.0882L4.66629 9.90683L6.67224 8.8987L26.3019 21.8028L23.9138 23.0882Z" fill="url(#paint14_linear_102_146)"/>
<path d="M26.3019 24.9781L26.3019 8.64639L28.1168 8.31875V23.844L26.3019 24.9781Z" fill="url(#paint15_linear_102_146)"/>
<path d="M23.46 14.0149V10.6629L25.1555 9.90679V14.9727L23.46 14.0149Z" fill="url(#paint16_linear_102_146)"/>
<path d="M5.81274 21.9789V16.1247L7.84257 17.5315V23.2643L5.81274 21.9789Z" fill="url(#paint17_linear_102_146)"/>
<defs>
<linearGradient id="paint0_linear_102_146" x1="9.16385" y1="3.83183" x2="10.438" y2="5.92282" gradientUnits="userSpaceOnUse">
<stop stop-color="white"/>
<stop offset="0.213542" stop-color="white"/>
<stop offset="0.505208" stop-color="white"/>
<stop offset="0.796875" stop-color="white"/>
<stop offset="1" stop-color="white"/>
</linearGradient>
<linearGradient id="paint1_linear_102_146" x1="12.6282" y1="8.97083" x2="13.7446" y2="10.803" gradientUnits="userSpaceOnUse">
<stop stop-color="white"/>
<stop offset="0.213542" stop-color="white"/>
<stop offset="0.505208" stop-color="white"/>
<stop offset="0.796875" stop-color="white"/>
<stop offset="1" stop-color="white"/>
</linearGradient>
<linearGradient id="paint2_linear_102_146" x1="10.1055" y1="6.67599" x2="11.4252" y2="8.84181" gradientUnits="userSpaceOnUse">
<stop stop-color="white"/>
<stop offset="0.213542" stop-color="white"/>
<stop offset="0.505208" stop-color="white"/>
<stop offset="0.796875" stop-color="white"/>
<stop offset="1" stop-color="white"/>
</linearGradient>
<linearGradient id="paint3_linear_102_146" x1="21.4395" y1="6.49322" x2="22.5315" y2="4.70106" gradientUnits="userSpaceOnUse">
<stop stop-color="white"/>
<stop offset="0.213542" stop-color="white"/>
<stop offset="0.505208" stop-color="white"/>
<stop offset="0.796875" stop-color="white"/>
<stop offset="1" stop-color="white"/>
</linearGradient>
<linearGradient id="paint4_linear_102_146" x1="19.8543" y1="8.81043" x2="20.892" y2="7.10747" gradientUnits="userSpaceOnUse">
<stop stop-color="white"/>
<stop offset="0.213542" stop-color="white"/>
<stop offset="0.505208" stop-color="white"/>
<stop offset="0.796875" stop-color="white"/>
<stop offset="1" stop-color="white"/>
</linearGradient>
<linearGradient id="paint5_linear_102_146" x1="10.306" y1="24.9435" x2="11.2801" y2="23.3449" gradientUnits="userSpaceOnUse">
<stop stop-color="white"/>
<stop offset="0.213542" stop-color="white"/>
<stop offset="0.505208" stop-color="white"/>
<stop offset="0.796875" stop-color="white"/>
<stop offset="1" stop-color="white"/>
</linearGradient>
<linearGradient id="paint6_linear_102_146" x1="20.1974" y1="23.5481" x2="21.0748" y2="24.988" gradientUnits="userSpaceOnUse">
<stop stop-color="white"/>
<stop offset="0.213542" stop-color="white"/>
<stop offset="0.505208" stop-color="white"/>
<stop offset="0.796875" stop-color="white"/>
<stop offset="1" stop-color="white"/>
</linearGradient>
<linearGradient id="paint7_linear_102_146" x1="18.6198" y1="20.5567" x2="19.7265" y2="22.3729" gradientUnits="userSpaceOnUse">
<stop stop-color="white"/>
<stop offset="0.213542" stop-color="white"/>
<stop offset="0.505208" stop-color="white"/>
<stop offset="0.796875" stop-color="white"/>
<stop offset="1" stop-color="white"/>
</linearGradient>
<linearGradient id="paint8_linear_102_146" x1="19.9514" y1="12.0865" x2="20.9965" y2="10.3713" gradientUnits="userSpaceOnUse">
<stop stop-color="white"/>
<stop offset="0.213542" stop-color="white"/>
<stop offset="0.505208" stop-color="white"/>
<stop offset="0.796875" stop-color="white"/>
<stop offset="1" stop-color="white"/>
</linearGradient>
<linearGradient id="paint9_linear_102_146" x1="10.2233" y1="21.5161" x2="11.3656" y2="19.6414" gradientUnits="userSpaceOnUse">
<stop stop-color="white"/>
<stop offset="0.213542" stop-color="white"/>
<stop offset="0.505208" stop-color="white"/>
<stop offset="0.796875" stop-color="white"/>
<stop offset="1" stop-color="white"/>
</linearGradient>
<linearGradient id="paint10_linear_102_146" x1="9.25346" y1="27.6047" x2="10.276" y2="25.9267" gradientUnits="userSpaceOnUse">
<stop stop-color="white"/>
<stop offset="0.213542" stop-color="white"/>
<stop offset="0.505208" stop-color="white"/>
<stop offset="0.796875" stop-color="white"/>
<stop offset="1" stop-color="white"/>
</linearGradient>
<linearGradient id="paint11_linear_102_146" x1="9.2604" y1="27.6087" x2="10.2829" y2="25.9306" gradientUnits="userSpaceOnUse">
<stop stop-color="white"/>
<stop offset="0.213542" stop-color="white"/>
<stop offset="0.505208" stop-color="white"/>
<stop offset="0.796875" stop-color="white"/>
<stop offset="1" stop-color="white"/>
</linearGradient>
<linearGradient id="paint12_linear_102_146" x1="21.4168" y1="25.8001" x2="22.3729" y2="27.3692" gradientUnits="userSpaceOnUse">
<stop stop-color="white"/>
<stop offset="0.213542" stop-color="white"/>
<stop offset="0.505208" stop-color="white"/>
<stop offset="0.796875" stop-color="white"/>
<stop offset="1" stop-color="white"/>
</linearGradient>
<linearGradient id="paint13_linear_102_146" x1="2.87524" y1="15.6909" x2="4.66627" y2="15.6909" gradientUnits="userSpaceOnUse">
<stop stop-color="white"/>
<stop offset="0.213542" stop-color="white"/>
<stop offset="0.505208" stop-color="white"/>
<stop offset="0.796875" stop-color="white"/>
<stop offset="1" stop-color="white"/>
</linearGradient>
<linearGradient id="paint14_linear_102_146" x1="14.6238" y1="17.4274" x2="16.2606" y2="14.7412" gradientUnits="userSpaceOnUse">
<stop stop-color="white"/>
<stop offset="0.213542" stop-color="white"/>
<stop offset="0.505208" stop-color="white"/>
<stop offset="0.796875" stop-color="white"/>
<stop offset="1" stop-color="white"/>
</linearGradient>
<linearGradient id="paint15_linear_102_146" x1="26.3019" y1="16.6484" x2="28.1168" y2="16.6484" gradientUnits="userSpaceOnUse">
<stop stop-color="white"/>
<stop offset="0.213542" stop-color="white"/>
<stop offset="0.505208" stop-color="white"/>
<stop offset="0.796875" stop-color="white"/>
<stop offset="1" stop-color="white"/>
</linearGradient>
<linearGradient id="paint16_linear_102_146" x1="23.46" y1="12.4397" x2="25.1555" y2="12.4397" gradientUnits="userSpaceOnUse">
<stop stop-color="white"/>
<stop offset="0.213542" stop-color="white"/>
<stop offset="0.505208" stop-color="white"/>
<stop offset="0.796875" stop-color="white"/>
<stop offset="1" stop-color="white"/>
</linearGradient>
<linearGradient id="paint17_linear_102_146" x1="5.81274" y1="19.6945" x2="7.84257" y2="19.6945" gradientUnits="userSpaceOnUse">
<stop stop-color="white"/>
<stop offset="0.213542" stop-color="white"/>
<stop offset="0.505208" stop-color="white"/>
<stop offset="0.796875" stop-color="white"/>
<stop offset="1" stop-color="white"/>
</linearGradient>
</defs>
</svg>
