<svg width="16" height="16" viewBox="0 0 16 16" fill="none" xmlns="http://www.w3.org/2000/svg">
<g clip-path="url(#clip0_328_7)">
<rect width="16" height="16" fill="black"/>
<path d="M-0.0100516 -0.0671358L7.78628 -0.0671309L7.79824 1.92705L2.53561 4.97529L2.53562 11.012L7.78629 14.0364L13.013 11.0121L13.013 4.97531L7.79824 1.92705L7.78628 -0.0671309L16.01 -0.0671865L16.0101 16.0666L7.79825 16.0666L-0.0100776 16.0666L-0.0100516 -0.0671358Z" fill="#C9FA49"/>
<path d="M2.53569 5.36953L7.79829 2.37259L12.714 5.20218L12.714 7.79618L7.79829 4.95114L5.54973 6.20274L4.54505 5.6116L7.7983 3.79161L11.4702 5.90746L11.4702 5.46516L7.7983 3.32541L4.17427 5.39344L13.0729 10.6293L7.76241 13.6177L2.88259 10.7966L2.88259 8.21456L3.69586 8.69272L7.79829 11.0357L10.023 9.71462L11.0755 10.3254L7.79829 12.2191L3.69586 9.86421L3.69586 10.2946L7.79829 12.6256L11.4343 10.5336L2.53569 5.36953Z" fill="#C9FA49"/>
</g>
<defs>
<clipPath id="clip0_328_7">
<rect width="16" height="16" fill="white"/>
</clipPath>
</defs>
</svg>
