<svg width="256" height="256" viewBox="0 0 256 256" fill="none" xmlns="http://www.w3.org/2000/svg">
<path d="M23.0018 61.3099L126.165 4.65291L126.165 21.3879L37.33 72.1978L23.0018 61.3099Z" fill="url(#paint0_linear_102_66)"/>
<path d="M76.4949 86.714L126.357 58.2846L126.357 76.431L90.8231 96.1904L76.4949 86.714Z" fill="url(#paint1_linear_102_66)"/>
<path d="M38.0961 79.4565L126.061 31.8727L126.061 49.6158L52.9974 89.7395L38.0961 79.4565Z" fill="url(#paint2_linear_102_66)"/>
<path d="M224.934 84.495L126.164 21.3858L126.164 4.65085L224.934 66.5502L224.934 84.495Z" fill="url(#paint3_linear_102_66)"/>
<path d="M201.243 92.9656L125.25 50.0191L125.25 31.8728L201.243 77.642L201.243 92.9656Z" fill="url(#paint4_linear_102_66)"/>
<path d="M125.592 225.837L46.5 175.833L46.4999 160.106L125.592 210.312L125.592 225.837Z" fill="url(#paint5_linear_102_66)"/>
<path d="M125.593 210.312L199.336 167.164L210.416 174.423L125.594 225.837L125.593 210.312Z" fill="url(#paint6_linear_102_66)"/>
<path d="M125.591 179.864L172.97 149.822L188.635 160.105L125.591 198.616L125.591 179.864Z" fill="url(#paint7_linear_102_66)"/>
<path d="M201.246 119.779L126.357 76.4294L126.357 58.283L201.246 103.246L201.246 119.779Z" fill="url(#paint8_linear_102_66)"/>
<path d="M125.593 198.616L46.5015 150.629L46.5015 130.063L125.593 179.865L125.593 198.616Z" fill="url(#paint9_linear_102_66)"/>
<path d="M125.209 251.645L23.0016 189.745L37.3298 180.067L125.209 234.507L125.209 251.645Z" fill="url(#paint10_linear_102_66)"/>
<path d="M125.359 251.643L23.0001 189.743L37.3283 180.065L125.359 234.504L125.359 251.643Z" fill="url(#paint11_linear_102_66)"/>
<path d="M125.21 234.505L224.935 174.824L224.935 190.954L125.21 251.643L125.21 234.505Z" fill="url(#paint12_linear_102_66)"/>
<path d="M23.0018 189.745L23.0018 61.3089L37.33 71.3902L37.33 180.067L23.0018 189.745Z" fill="url(#paint13_linear_102_66)"/>
<path d="M191.311 184.705L37.3302 79.2547L53.3778 71.1897L210.415 174.422L191.311 184.705Z" fill="url(#paint14_linear_102_66)"/>
<path d="M210.415 199.825L210.415 69.1711L224.935 66.55V190.752L210.415 199.825Z" fill="url(#paint15_linear_102_66)"/>
<path d="M187.68 112.12V85.3035L201.244 79.2547V119.782L187.68 112.12Z" fill="url(#paint16_linear_102_66)"/>
<path d="M46.5016 175.831V128.998L62.7402 140.252V186.114L46.5016 175.831Z" fill="url(#paint17_linear_102_66)"/>
<defs>
<linearGradient id="paint0_linear_102_66" x1="73.3106" y1="30.655" x2="83.5036" y2="47.3829" gradientUnits="userSpaceOnUse">
<stop stop-color="white"/>
<stop offset="0.213542" stop-color="white"/>
<stop offset="0.505208" stop-color="white"/>
<stop offset="0.796875" stop-color="white"/>
<stop offset="1" stop-color="white"/>
</linearGradient>
<linearGradient id="paint1_linear_102_66" x1="101.025" y1="71.7668" x2="109.957" y2="86.4244" gradientUnits="userSpaceOnUse">
<stop stop-color="white"/>
<stop offset="0.213542" stop-color="white"/>
<stop offset="0.505208" stop-color="white"/>
<stop offset="0.796875" stop-color="white"/>
<stop offset="1" stop-color="white"/>
</linearGradient>
<linearGradient id="paint2_linear_102_66" x1="80.8445" y1="53.4084" x2="91.4022" y2="70.7349" gradientUnits="userSpaceOnUse">
<stop stop-color="white"/>
<stop offset="0.213542" stop-color="white"/>
<stop offset="0.505208" stop-color="white"/>
<stop offset="0.796875" stop-color="white"/>
<stop offset="1" stop-color="white"/>
</linearGradient>
<linearGradient id="paint3_linear_102_66" x1="171.516" y1="51.9456" x2="180.252" y2="37.6084" gradientUnits="userSpaceOnUse">
<stop stop-color="white"/>
<stop offset="0.213542" stop-color="white"/>
<stop offset="0.505208" stop-color="white"/>
<stop offset="0.796875" stop-color="white"/>
<stop offset="1" stop-color="white"/>
</linearGradient>
<linearGradient id="paint4_linear_102_66" x1="158.835" y1="70.4835" x2="167.136" y2="56.8598" gradientUnits="userSpaceOnUse">
<stop stop-color="white"/>
<stop offset="0.213542" stop-color="white"/>
<stop offset="0.505208" stop-color="white"/>
<stop offset="0.796875" stop-color="white"/>
<stop offset="1" stop-color="white"/>
</linearGradient>
<linearGradient id="paint5_linear_102_66" x1="82.4483" y1="199.548" x2="90.2408" y2="186.759" gradientUnits="userSpaceOnUse">
<stop stop-color="white"/>
<stop offset="0.213542" stop-color="white"/>
<stop offset="0.505208" stop-color="white"/>
<stop offset="0.796875" stop-color="white"/>
<stop offset="1" stop-color="white"/>
</linearGradient>
<linearGradient id="paint6_linear_102_66" x1="161.58" y1="188.384" x2="168.599" y2="199.904" gradientUnits="userSpaceOnUse">
<stop stop-color="white"/>
<stop offset="0.213542" stop-color="white"/>
<stop offset="0.505208" stop-color="white"/>
<stop offset="0.796875" stop-color="white"/>
<stop offset="1" stop-color="white"/>
</linearGradient>
<linearGradient id="paint7_linear_102_66" x1="148.958" y1="164.453" x2="157.812" y2="178.983" gradientUnits="userSpaceOnUse">
<stop stop-color="white"/>
<stop offset="0.213542" stop-color="white"/>
<stop offset="0.505208" stop-color="white"/>
<stop offset="0.796875" stop-color="white"/>
<stop offset="1" stop-color="white"/>
</linearGradient>
<linearGradient id="paint8_linear_102_66" x1="159.611" y1="96.6919" x2="167.972" y2="82.9705" gradientUnits="userSpaceOnUse">
<stop stop-color="white"/>
<stop offset="0.213542" stop-color="white"/>
<stop offset="0.505208" stop-color="white"/>
<stop offset="0.796875" stop-color="white"/>
<stop offset="1" stop-color="white"/>
</linearGradient>
<linearGradient id="paint9_linear_102_66" x1="81.786" y1="172.129" x2="90.9245" y2="157.132" gradientUnits="userSpaceOnUse">
<stop stop-color="white"/>
<stop offset="0.213542" stop-color="white"/>
<stop offset="0.505208" stop-color="white"/>
<stop offset="0.796875" stop-color="white"/>
<stop offset="1" stop-color="white"/>
</linearGradient>
<linearGradient id="paint10_linear_102_66" x1="74.0277" y1="220.837" x2="82.2076" y2="207.413" gradientUnits="userSpaceOnUse">
<stop stop-color="white"/>
<stop offset="0.213542" stop-color="white"/>
<stop offset="0.505208" stop-color="white"/>
<stop offset="0.796875" stop-color="white"/>
<stop offset="1" stop-color="white"/>
</linearGradient>
<linearGradient id="paint11_linear_102_66" x1="74.0829" y1="220.87" x2="82.2629" y2="207.446" gradientUnits="userSpaceOnUse">
<stop stop-color="white"/>
<stop offset="0.213542" stop-color="white"/>
<stop offset="0.505208" stop-color="white"/>
<stop offset="0.796875" stop-color="white"/>
<stop offset="1" stop-color="white"/>
</linearGradient>
<linearGradient id="paint12_linear_102_66" x1="171.334" y1="206.4" x2="178.984" y2="218.954" gradientUnits="userSpaceOnUse">
<stop stop-color="white"/>
<stop offset="0.213542" stop-color="white"/>
<stop offset="0.505208" stop-color="white"/>
<stop offset="0.796875" stop-color="white"/>
<stop offset="1" stop-color="white"/>
</linearGradient>
<linearGradient id="paint13_linear_102_66" x1="23.0018" y1="125.527" x2="37.33" y2="125.527" gradientUnits="userSpaceOnUse">
<stop stop-color="white"/>
<stop offset="0.213542" stop-color="white"/>
<stop offset="0.505208" stop-color="white"/>
<stop offset="0.796875" stop-color="white"/>
<stop offset="1" stop-color="white"/>
</linearGradient>
<linearGradient id="paint14_linear_102_66" x1="116.99" y1="139.419" x2="130.085" y2="117.93" gradientUnits="userSpaceOnUse">
<stop stop-color="white"/>
<stop offset="0.213542" stop-color="white"/>
<stop offset="0.505208" stop-color="white"/>
<stop offset="0.796875" stop-color="white"/>
<stop offset="1" stop-color="white"/>
</linearGradient>
<linearGradient id="paint15_linear_102_66" x1="210.415" y1="133.188" x2="224.935" y2="133.188" gradientUnits="userSpaceOnUse">
<stop stop-color="white"/>
<stop offset="0.213542" stop-color="white"/>
<stop offset="0.505208" stop-color="white"/>
<stop offset="0.796875" stop-color="white"/>
<stop offset="1" stop-color="white"/>
</linearGradient>
<linearGradient id="paint16_linear_102_66" x1="187.68" y1="99.5181" x2="201.244" y2="99.5181" gradientUnits="userSpaceOnUse">
<stop stop-color="white"/>
<stop offset="0.213542" stop-color="white"/>
<stop offset="0.505208" stop-color="white"/>
<stop offset="0.796875" stop-color="white"/>
<stop offset="1" stop-color="white"/>
</linearGradient>
<linearGradient id="paint17_linear_102_66" x1="46.5016" y1="157.556" x2="62.7402" y2="157.556" gradientUnits="userSpaceOnUse">
<stop stop-color="white"/>
<stop offset="0.213542" stop-color="white"/>
<stop offset="0.505208" stop-color="white"/>
<stop offset="0.796875" stop-color="white"/>
<stop offset="1" stop-color="white"/>
</linearGradient>
</defs>
</svg>
