<svg width="256" height="256" viewBox="0 0 256 256" fill="none" xmlns="http://www.w3.org/2000/svg">
<rect width="256" height="256" rx="128" fill="white"/>
<g clip-path="url(#clip0_5_65)">
<path d="M184.187 138.477C184.237 138.471 184.287 138.477 184.335 138.494C184.382 138.512 184.426 138.54 184.462 138.578C184.499 138.616 184.527 138.662 184.546 138.714C184.565 138.765 184.573 138.82 184.571 138.876C184.515 139.95 184.37 140.971 184.135 141.939C183.009 146.557 181.802 151.284 180.517 156.118C180.444 156.398 180.53 156.484 180.775 156.376C181.001 156.277 181.297 155.974 181.458 155.724C183.597 152.462 186.044 149.194 187.989 146.085C194.652 135.424 200.373 123.617 203.192 111.014C205.339 101.414 205.936 91.663 203.085 82.3206C200.615 74.2157 195.942 68.1625 188.695 64.6089C186.47 63.516 184.886 62.8439 183.942 62.5924C176.576 60.6087 169.21 60.5946 161.844 62.5501C161.705 62.5853 161.706 62.603 161.847 62.603C162.112 62.5994 162.373 62.6276 162.631 62.5747C166.004 61.8861 169.398 61.691 172.812 61.9895C174.135 62.1059 175.467 62.5183 176.802 62.8427C184.28 64.6442 189.801 70.997 191.624 78.975C195.716 96.9194 185.877 118.287 176.627 132.561C174.415 135.974 172.248 139.436 169.6 142.475C169.578 142.499 169.563 142.531 169.559 142.565C169.554 142.599 169.56 142.634 169.575 142.664C169.59 142.695 169.614 142.72 169.643 142.735C169.672 142.751 169.704 142.756 169.736 142.75C172.013 142.309 174.557 141.382 176.431 140.889C178.138 140.437 179.838 139.967 181.533 139.478C182.32 139.253 183.268 138.593 184.187 138.477Z" stroke="#011A35" stroke-width="2.76923"/>
<path d="M176.218 84.5389C176.218 81.9677 175.283 79.5017 173.62 77.6836C171.957 75.8654 169.701 74.844 167.349 74.844C164.997 74.844 162.741 75.8654 161.078 77.6836C159.415 79.5017 158.48 81.9677 158.48 84.5389C158.48 87.1102 159.415 89.5761 161.078 91.3942C162.741 93.2124 164.997 94.2338 167.349 94.2338C169.701 94.2338 171.957 93.2124 173.62 91.3942C175.283 89.5761 176.218 87.1102 176.218 84.5389Z" stroke="#011A35" stroke-width="2.76923"/>
<path d="M82.1818 114.053C82.0034 113.437 82.127 112.961 82.5527 112.625C84.0878 111.412 85.1068 110.767 85.8937 108.863C86.7 106.91 87.2256 105.024 86.8258 102.863C86.0217 98.529 83.5685 95.7028 79.4664 94.3843C73.1196 92.3431 63.8608 92.6392 59.5038 98.5443C58.1784 100.342 56.8723 102.517 56.9851 104.798C56.9881 104.848 57.0077 104.895 57.0403 104.931C57.0728 104.966 57.1162 104.988 57.1625 104.992C58.8685 105.13 60.4971 105.239 62.2064 105.666C63.7436 106.049 65.3023 106.411 66.8826 106.751C66.9093 106.757 66.937 106.757 66.9637 106.751C66.9904 106.744 67.0157 106.732 67.0378 106.714C67.06 106.696 67.0785 106.673 67.0923 106.647C67.1061 106.62 67.1149 106.591 67.118 106.561C67.4501 103.191 69.8753 99.6019 73.4131 101.174C77.4282 102.962 76.4317 107.978 73.139 109.755C72.1521 110.287 70.888 110.217 69.7528 110.291C69.6474 110.298 69.5872 110.358 69.5722 110.471C69.2067 113.105 69.0186 115.755 69.0078 118.421C69.0078 118.71 69.1336 118.81 69.3851 118.72C71.1911 118.089 73.4744 117.828 75.1675 118.83C78.07 120.546 78.5311 124.837 77.1122 127.823C75.7383 130.717 72.4843 132.001 69.9076 130.086C68.2048 128.821 67.505 126.882 67.1019 124.735C67.0893 124.672 67.0557 124.616 67.0078 124.58C66.9599 124.543 66.9013 124.528 66.8439 124.537L56.2176 126.18C56.0843 126.201 56.0391 126.282 56.0821 126.423C57.1432 129.938 59.0072 133.492 61.8613 135.498C66.2569 138.593 72.7584 138.924 77.6668 137.867C82.2721 136.876 85.6325 134.489 87.6094 129.917C89.8314 124.777 89.2251 115.064 82.3882 114.236C82.2828 114.224 82.214 114.163 82.1818 114.053Z" stroke="#011A35" stroke-width="2.76923"/>
<path d="M99.4817 134.553C101.865 136.936 104.158 137.359 107.022 137.972C113.697 139.407 121.07 137.468 124.575 130.692C125.121 129.639 125.505 128.449 125.726 127.121C126.984 119.57 124.817 111.937 117.671 109.289C113.07 107.585 108.957 108.557 105.332 112.205C105.296 112.241 105.252 112.266 105.204 112.277C105.156 112.289 105.106 112.285 105.06 112.268C105.013 112.251 104.972 112.22 104.941 112.179C104.909 112.138 104.888 112.088 104.88 112.036C104.542 109.783 105.458 104.844 106.77 103.025C109.556 99.1644 113.697 100.638 114.417 105.161C114.438 105.288 114.508 105.348 114.626 105.341C117.97 105.179 121.128 104.142 124.978 104.093C125.124 104.091 125.203 104.011 125.214 103.853C125.24 103.503 125.169 103.087 125.001 102.605C123.438 98.1185 120.616 95.2605 116.535 94.0313C112.491 92.8151 109.163 93.0513 105.145 94.1406C101.475 95.1383 97.0081 98.7272 95.6375 102.718C93.6058 108.638 92.963 114.676 93.709 120.832C94.3895 126.437 95.7375 130.816 99.4817 134.553Z" stroke="#011A35" stroke-width="2.76923"/>
<path d="M135.853 134.366C139.893 138.618 146.734 139.09 151.845 137.737C155.867 136.672 158.711 134.391 160.514 130.411C162.568 125.867 163.168 118.738 162.884 112.223C162.833 111.069 162.513 108.986 161.926 105.973C160.933 100.854 158.305 96.2107 153.574 94.5009C149.22 92.9238 144.849 92.8568 140.461 94.2999C134.24 96.3447 131.709 101.858 130.864 108.43C130.126 114.16 130.312 119.824 131.421 125.422C132.212 129.403 133.279 131.662 135.853 134.366Z" stroke="#011A35" stroke-width="2.76923"/>
<path d="M139.947 156.742C142.51 159.707 145.223 162.238 147.451 165.185C147.489 165.236 147.518 165.294 147.535 165.357C147.553 165.419 147.558 165.485 147.552 165.55C147.546 165.615 147.527 165.678 147.498 165.735C147.47 165.793 147.43 165.843 147.383 165.883C138.691 173.338 129.162 179.166 118.797 183.366C113.42 185.547 107.618 186.714 101.392 186.867C99.77 186.906 98.1091 186.588 96.4869 186.324C86.7572 184.72 79.6462 176.907 78.8561 166.102C78.5723 162.193 78.5798 158.452 78.8786 154.877C78.9109 154.501 78.8894 154.194 78.8141 153.957C78.7324 153.691 78.6679 153.697 78.6206 153.975C78.4508 155.004 78.3411 156.04 78.2917 157.084C78.0917 161.336 77.7563 165.88 78.0079 169.991C78.7335 181.896 84.8416 193.332 95.5001 197.697C100.76 199.851 105.994 200.602 111.583 200.337C120.877 199.9 130.336 196.752 138.695 192.412C146.164 188.531 152.83 183.814 159.58 178.642C159.635 178.6 159.703 178.58 159.77 178.586C159.837 178.593 159.9 178.625 159.948 178.677L168.081 187.575C168.245 187.752 168.355 187.719 168.413 187.477L178.704 145.612C178.792 145.255 178.672 145.123 178.343 145.217C167.191 148.47 156.068 151.742 144.974 155.032C143.42 155.494 141.711 155.832 140.088 156.227C139.764 156.305 139.717 156.476 139.947 156.742Z" stroke="#011A35" stroke-width="2.76923"/>
<path d="M171.826 84.5374C171.826 83.2387 171.354 81.9932 170.514 81.0749C169.674 80.1565 168.535 79.6406 167.347 79.6406C166.159 79.6406 165.019 80.1565 164.179 81.0749C163.339 81.9932 162.867 83.2387 162.867 84.5374C162.867 85.8362 163.339 87.0817 164.179 88C165.019 88.9183 166.159 89.4343 167.347 89.4343C168.535 89.4343 169.674 88.9183 170.514 88C171.354 87.0817 171.826 85.8362 171.826 84.5374Z" stroke="#011A35" stroke-width="2.76923"/>
<path d="M110.931 130.788C111.647 130.728 112.343 130.475 112.978 130.045C113.613 129.615 114.176 129.015 114.634 128.28C115.091 127.545 115.435 126.69 115.645 125.762C115.856 124.834 115.929 123.853 115.86 122.874C115.721 120.897 115.013 119.049 113.891 117.737C112.77 116.425 111.328 115.756 109.882 115.877C109.165 115.938 108.47 116.19 107.835 116.62C107.199 117.051 106.637 117.65 106.179 118.385C105.721 119.12 105.378 119.976 105.167 120.904C104.957 121.831 104.884 122.812 104.953 123.792C105.092 125.769 105.8 127.617 106.921 128.929C108.042 130.241 109.485 130.91 110.931 130.788Z" stroke="#011A35" stroke-width="2.76923"/>
<path d="M144.397 129.254C147.177 131.415 150.038 128.926 150.986 125.954C151.416 124.6 151.673 123.461 151.757 122.535C152.113 118.492 152.105 114.145 151.731 109.494C151.45 106.057 150.383 101.601 146.555 101.428C141.585 101.209 141.479 109.973 141.414 113.534C141.34 117.747 140.95 126.578 144.397 129.254Z" stroke="#011A35" stroke-width="2.76923"/>
<path d="M184.187 138.477C183.268 138.593 182.32 139.253 181.533 139.478C179.838 139.967 178.138 140.437 176.431 140.889C174.557 141.382 172.013 142.309 169.736 142.75C169.704 142.756 169.672 142.751 169.643 142.735C169.614 142.72 169.59 142.695 169.575 142.664C169.56 142.634 169.554 142.599 169.559 142.565C169.563 142.531 169.578 142.499 169.6 142.475C172.248 139.436 174.415 135.974 176.627 132.561C185.877 118.287 195.716 96.9194 191.624 78.975C189.801 70.997 184.28 64.6442 176.802 62.8427C175.467 62.5183 174.135 62.1059 172.812 61.9895C169.398 61.691 166.004 61.8861 162.631 62.5747C162.373 62.6276 162.112 62.5994 161.847 62.603C161.706 62.603 161.705 62.5853 161.844 62.5501C169.21 60.5946 176.576 60.6087 183.942 62.5924C184.886 62.8439 186.47 63.516 188.695 64.6089C195.942 68.1625 200.615 74.2157 203.085 82.3206C205.936 91.663 205.339 101.414 203.192 111.014C200.373 123.617 194.652 135.424 187.989 146.085C186.044 149.194 183.597 152.462 181.458 155.724C181.297 155.974 181.001 156.277 180.775 156.376C180.53 156.484 180.444 156.398 180.517 156.118C181.802 151.284 183.009 146.557 184.135 141.939C184.37 140.971 184.515 139.95 184.571 138.876C184.573 138.82 184.565 138.765 184.546 138.714C184.527 138.662 184.499 138.616 184.462 138.578C184.426 138.54 184.382 138.512 184.335 138.494C184.287 138.477 184.237 138.471 184.187 138.477Z" fill="#011A35"/>
<path d="M176.218 84.5389C176.218 87.1102 175.283 89.5761 173.62 91.3942C171.957 93.2124 169.701 94.2338 167.349 94.2338C164.997 94.2338 162.741 93.2124 161.078 91.3942C159.415 89.5761 158.48 87.1102 158.48 84.5389C158.48 81.9677 159.415 79.5017 161.078 77.6836C162.741 75.8654 164.997 74.844 167.349 74.844C169.701 74.844 171.957 75.8654 173.62 77.6836C175.283 79.5017 176.218 81.9677 176.218 84.5389ZM171.825 84.5389C171.825 83.2402 171.353 81.9947 170.513 81.0763C169.673 80.158 168.534 79.6421 167.346 79.6421C166.158 79.6421 165.019 80.158 164.178 81.0763C163.338 81.9947 162.866 83.2402 162.866 84.5389C162.866 85.8376 163.338 87.0831 164.178 88.0015C165.019 88.9198 166.158 89.4357 167.346 89.4357C168.534 89.4357 169.673 88.9198 170.513 88.0015C171.353 87.0831 171.825 85.8376 171.825 84.5389Z" fill="#011A35"/>
<path d="M82.3882 114.236C89.2251 115.064 89.8314 124.777 87.6094 129.917C85.6325 134.489 82.2721 136.876 77.6668 137.867C72.7584 138.924 66.2569 138.593 61.8613 135.498C59.0072 133.492 57.1432 129.938 56.0821 126.423C56.0391 126.282 56.0843 126.201 56.2176 126.18L66.8439 124.537C66.9013 124.528 66.9599 124.543 67.0078 124.58C67.0557 124.616 67.0893 124.672 67.1019 124.735C67.505 126.882 68.2048 128.821 69.9076 130.086C72.4843 132.001 75.7383 130.717 77.1122 127.823C78.5311 124.837 78.07 120.546 75.1675 118.83C73.4744 117.828 71.1911 118.089 69.3851 118.72C69.1336 118.81 69.0078 118.71 69.0078 118.421C69.0186 115.755 69.2067 113.105 69.5722 110.471C69.5872 110.358 69.6474 110.298 69.7528 110.291C70.888 110.217 72.1521 110.287 73.139 109.755C76.4317 107.978 77.4282 102.962 73.4131 101.174C69.8753 99.6019 67.4501 103.191 67.118 106.561C67.1149 106.591 67.1061 106.62 67.0923 106.647C67.0785 106.673 67.06 106.696 67.0378 106.714C67.0157 106.732 66.9904 106.744 66.9637 106.751C66.937 106.757 66.9093 106.757 66.8826 106.751C65.3023 106.411 63.7436 106.049 62.2064 105.666C60.4971 105.239 58.8685 105.13 57.1625 104.992C57.1162 104.988 57.0728 104.966 57.0403 104.931C57.0077 104.895 56.9881 104.848 56.9851 104.798C56.8723 102.517 58.1784 100.342 59.5038 98.5443C63.8608 92.6392 73.1196 92.3431 79.4664 94.3843C83.5685 95.7028 86.0217 98.529 86.8258 102.863C87.2256 105.024 86.7 106.91 85.8937 108.863C85.1068 110.767 84.0878 111.412 82.5527 112.625C82.127 112.961 82.0034 113.437 82.1818 114.053C82.214 114.163 82.2828 114.224 82.3882 114.236Z" fill="#011A35"/>
<path d="M99.4792 134.553C95.7351 130.816 94.387 126.437 93.7066 120.832C92.9605 114.676 93.6034 108.638 95.6351 102.718C97.0057 98.7272 101.472 95.1383 105.142 94.1406C109.161 93.0513 112.489 92.8151 116.533 94.0313C120.614 95.2605 123.435 98.1185 124.998 102.605C125.166 103.087 125.237 103.503 125.211 103.853C125.201 104.011 125.122 104.091 124.976 104.093C121.125 104.142 117.968 105.179 114.624 105.341C114.505 105.348 114.436 105.288 114.414 105.161C113.695 100.638 109.554 99.1644 106.768 103.025C105.455 104.844 104.539 109.783 104.878 112.036C104.886 112.088 104.907 112.138 104.938 112.179C104.97 112.22 105.011 112.251 105.057 112.268C105.104 112.285 105.153 112.289 105.201 112.277C105.249 112.266 105.293 112.241 105.329 112.205C108.954 108.557 113.067 107.585 117.668 109.289C124.815 111.937 126.982 119.57 125.724 127.121C125.503 128.449 125.119 129.639 124.573 130.692C121.067 137.468 113.695 139.407 107.019 137.972C104.155 137.359 101.862 136.936 99.4792 134.553ZM110.93 130.787C111.646 130.726 112.342 130.474 112.977 130.043C113.612 129.613 114.175 129.013 114.633 128.279C115.09 127.544 115.434 126.688 115.645 125.76C115.855 124.833 115.928 123.851 115.859 122.872C115.72 120.895 115.012 119.047 113.891 117.735C112.769 116.423 111.327 115.754 109.881 115.876C109.165 115.936 108.469 116.188 107.834 116.619C107.198 117.049 106.636 117.649 106.178 118.384C105.721 119.119 105.377 119.974 105.166 120.902C104.956 121.829 104.883 122.811 104.952 123.79C105.091 125.767 105.799 127.615 106.92 128.927C108.041 130.239 109.484 130.908 110.93 130.787Z" fill="#011A35"/>
<path d="M135.851 134.366C133.277 131.662 132.21 129.403 131.42 125.422C130.31 119.824 130.124 114.16 130.862 108.43C131.707 101.858 134.238 96.3447 140.459 94.2999C144.847 92.8568 149.218 92.9238 153.572 94.5009C158.303 96.2107 160.931 100.854 161.924 105.973C162.511 108.986 162.831 111.069 162.882 112.223C163.166 118.738 162.566 125.867 160.512 130.411C158.709 134.391 155.865 136.672 151.843 137.737C146.732 139.09 139.892 138.618 135.851 134.366ZM144.397 129.254C147.177 131.416 150.037 128.927 150.985 125.955C151.415 124.601 151.672 123.461 151.756 122.535C152.113 118.493 152.104 114.146 151.73 109.494C151.45 106.057 150.382 101.601 146.554 101.428C141.585 101.21 141.478 109.974 141.414 113.535C141.34 117.748 140.949 126.579 144.397 129.254Z" fill="#011A35"/>
<path d="M139.947 156.744C139.717 156.478 139.764 156.307 140.088 156.229C141.711 155.834 143.42 155.496 144.974 155.034C156.068 151.744 167.191 148.472 178.343 145.219C178.672 145.125 178.792 145.257 178.704 145.614L168.413 187.479C168.355 187.721 168.245 187.754 168.081 187.577L159.948 178.679C159.9 178.627 159.837 178.595 159.77 178.588C159.703 178.582 159.635 178.602 159.58 178.644C152.83 183.816 146.164 188.533 138.695 192.414C130.336 196.754 120.877 199.902 111.583 200.339C105.994 200.604 100.76 199.853 95.5001 197.699C84.8416 193.334 78.7335 181.898 78.0079 169.992C77.7563 165.882 78.0917 161.338 78.2917 157.086C78.3411 156.042 78.4508 155.006 78.6206 153.976C78.6679 153.699 78.7324 153.693 78.8141 153.959C78.8894 154.196 78.9109 154.503 78.8786 154.879C78.5798 158.454 78.5723 162.195 78.8561 166.104C79.6462 176.909 86.7572 184.722 96.4869 186.326C98.1091 186.59 99.77 186.907 101.392 186.869C107.618 186.716 113.42 185.549 118.797 183.368C129.162 179.168 138.691 173.34 147.383 165.885C147.43 165.845 147.47 165.795 147.498 165.737C147.527 165.68 147.546 165.617 147.552 165.552C147.558 165.487 147.553 165.421 147.535 165.358C147.518 165.296 147.489 165.238 147.451 165.187C145.223 162.24 142.51 159.709 139.947 156.744Z" fill="#011A35"/>
</g>
<defs>
<clipPath id="clip0_5_65">
<rect width="248" height="208" fill="white" transform="translate(8 24)"/>
</clipPath>
</defs>
</svg>
