<svg width="32" height="32" viewBox="0 0 32 32" fill="none" xmlns="http://www.w3.org/2000/svg">
<g clip-path="url(#clip0_328_7)">
<rect width="32" height="32" fill="black"/>
<path d="M-0.0201032 -0.134272L15.5726 -0.134262L15.5965 3.85411L5.07123 9.95059L5.07124 22.0241L15.5726 28.0728L26.026 22.0241L26.026 9.95061L15.5965 3.85411L15.5726 -0.134262L32.0201 -0.134373L32.0201 32.1332L15.5965 32.1332L-0.0201551 32.1332L-0.0201032 -0.134272Z" fill="#C9FA49"/>
<path d="M5.07137 10.7391L15.5966 4.74517L25.4281 10.4044L25.4281 15.5924L15.5966 9.90228L11.0995 12.4055L9.09009 11.2232L15.5966 7.58322L22.9403 11.8149L22.9403 10.9303L15.5966 6.65081L8.34854 10.7869L26.1457 21.2585L15.5248 27.2355L5.76518 21.5932L5.76517 16.4291L7.39171 17.3854L15.5966 22.0714L20.046 19.4292L22.151 20.6509L15.5966 24.4383L7.39171 19.7284L7.39171 20.5891L15.5966 25.2511L22.8686 21.0673L5.07137 10.7391Z" fill="#C9FA49"/>
</g>
<defs>
<clipPath id="clip0_328_7">
<rect width="32" height="32" fill="white"/>
</clipPath>
</defs>
</svg>
