<svg width="32" height="32" viewBox="0 0 32 32" fill="none" xmlns="http://www.w3.org/2000/svg">
<rect width="32" height="32" rx="16" fill="white"/>
<g clip-path="url(#clip0_0_102)">
<path d="M23.0234 17.3096C23.0296 17.3088 23.0359 17.3096 23.0418 17.3117C23.0478 17.3139 23.0532 17.3175 23.0578 17.3222C23.0624 17.327 23.0659 17.3328 23.0683 17.3392C23.0706 17.3456 23.0717 17.3525 23.0713 17.3594C23.0643 17.4937 23.0462 17.6213 23.0169 17.7424C22.8761 18.3196 22.7253 18.9104 22.5646 19.5148C22.5555 19.5497 22.5662 19.5604 22.5969 19.5469C22.6251 19.5346 22.6622 19.4967 22.6823 19.4654C22.9496 19.0578 23.2555 18.6493 23.4986 18.2606C24.3315 16.928 25.0466 15.4522 25.3989 13.8767C25.6674 12.6768 25.742 11.4578 25.3856 10.2901C25.0768 9.27693 24.4927 8.52029 23.5869 8.07608C23.3088 7.93947 23.1107 7.85545 22.9927 7.82402C22.072 7.57606 21.1513 7.5743 20.2305 7.81873C20.2131 7.82313 20.2132 7.82534 20.2309 7.82534C20.264 7.8249 20.2966 7.82842 20.3289 7.82181C20.7506 7.73573 21.1748 7.71135 21.6015 7.74866C21.7668 7.7632 21.9333 7.81476 22.1002 7.8553C23.035 8.08049 23.7252 8.87459 23.9529 9.87185C24.4645 12.1149 23.2346 14.7858 22.0784 16.5702C21.8019 16.9967 21.531 17.4295 21.2 17.8093C21.1972 17.8124 21.1954 17.8163 21.1949 17.8206C21.1943 17.8248 21.195 17.8292 21.1969 17.833C21.1988 17.8368 21.2017 17.8399 21.2053 17.8419C21.2089 17.8438 21.213 17.8444 21.217 17.8437C21.5016 17.7886 21.8196 17.6727 22.0538 17.611C22.2672 17.5546 22.4798 17.4959 22.6916 17.4348C22.7899 17.4066 22.9085 17.3242 23.0234 17.3096Z" stroke="#011A35" stroke-width="0.346154"/>
<path d="M22.0272 10.5673C22.0272 10.2459 21.9104 9.93768 21.7025 9.71042C21.4946 9.48315 21.2127 9.35547 20.9186 9.35547C20.6246 9.35547 20.3427 9.48315 20.1348 9.71042C19.9269 9.93768 19.8101 10.2459 19.8101 10.5673C19.8101 10.8887 19.9269 11.197 20.1348 11.4243C20.3427 11.6515 20.6246 11.7792 20.9186 11.7792C21.2127 11.7792 21.4946 11.6515 21.7025 11.4243C21.9104 11.197 22.0272 10.8887 22.0272 10.5673Z" stroke="#011A35" stroke-width="0.346154"/>
<path d="M10.2727 14.2566C10.2504 14.1796 10.2659 14.1201 10.3191 14.0781C10.511 13.9265 10.6384 13.8459 10.7367 13.6079C10.8375 13.3638 10.9032 13.128 10.8532 12.8579C10.7527 12.3161 10.4461 11.9628 9.9333 11.798C9.13996 11.5429 7.98259 11.5799 7.43798 12.318C7.2723 12.5428 7.10903 12.8147 7.12314 13.0998C7.12352 13.106 7.12596 13.1119 7.13003 13.1163C7.13411 13.1208 7.13953 13.1235 7.14531 13.124C7.35856 13.1412 7.56214 13.1549 7.77579 13.2082C7.96795 13.2561 8.16279 13.3013 8.36032 13.3439C8.36367 13.3447 8.36712 13.3447 8.37046 13.3438C8.3738 13.343 8.37696 13.3415 8.37973 13.3392C8.3825 13.337 8.38482 13.3341 8.38654 13.3308C8.38827 13.3276 8.38936 13.3239 8.38975 13.3201C8.43127 12.8988 8.73442 12.4502 9.17664 12.6468C9.67852 12.8702 9.55396 13.4973 9.14237 13.7194C9.01902 13.7859 8.861 13.7771 8.7191 13.7864C8.70593 13.7873 8.6984 13.7947 8.69652 13.8088C8.65084 14.1382 8.62732 14.4694 8.62598 14.8026C8.62598 14.8387 8.6417 14.8512 8.67314 14.84C8.89889 14.7612 9.1843 14.7285 9.39594 14.8537C9.75875 15.0683 9.81639 15.6046 9.63902 15.9779C9.46729 16.3397 9.06054 16.5001 8.73845 16.2608C8.5256 16.1026 8.43812 15.8602 8.38773 15.5918C8.38616 15.584 8.38196 15.5771 8.37597 15.5725C8.36998 15.5679 8.36266 15.566 8.35548 15.5672L7.0272 15.7725C7.01054 15.7752 7.00489 15.7853 7.01027 15.8029C7.14289 16.2423 7.3759 16.6865 7.73266 16.9372C8.28211 17.3241 9.09481 17.3656 9.70836 17.2334C10.284 17.1095 10.7041 16.8112 10.9512 16.2396C11.2289 15.5971 11.1531 14.3831 10.2985 14.2795C10.2854 14.278 10.2768 14.2704 10.2727 14.2566Z" stroke="#011A35" stroke-width="0.346154"/>
<path d="M12.4352 16.8191C12.7331 17.117 13.0197 17.1699 13.3777 17.2466C14.2121 17.4259 15.1337 17.1835 15.5719 16.3366C15.6401 16.2049 15.6881 16.0561 15.7158 15.8902C15.873 14.9462 15.6021 13.9922 14.7088 13.6612C14.1337 13.4482 13.6195 13.5697 13.1664 14.0256C13.162 14.0302 13.1564 14.0333 13.1504 14.0347C13.1444 14.0361 13.1382 14.0357 13.1324 14.0335C13.1266 14.0313 13.1215 14.0275 13.1176 14.0224C13.1136 14.0173 13.111 14.0111 13.11 14.0045C13.0677 13.7229 13.1822 13.1055 13.3462 12.8781C13.6945 12.3956 14.2121 12.5798 14.302 13.1452C14.3047 13.161 14.3135 13.1685 14.3282 13.1676C14.7463 13.1474 15.1409 13.0178 15.6223 13.0116C15.6405 13.0113 15.6503 13.0014 15.6517 12.9817C15.6549 12.9379 15.646 12.8859 15.6251 12.8257C15.4297 12.2648 15.077 11.9076 14.5669 11.7539C14.0614 11.6019 13.6453 11.6314 13.1431 11.7676C12.6843 11.8923 12.126 12.3409 11.9547 12.8398C11.7007 13.5798 11.6203 14.3346 11.7136 15.104C11.7987 15.8047 11.9672 16.352 12.4352 16.8191Z" stroke="#011A35" stroke-width="0.346154"/>
<path d="M16.9816 16.7958C17.4867 17.3273 18.3417 17.3863 18.9807 17.2171C19.4833 17.084 19.8389 16.7989 20.0642 16.3014C20.321 15.7333 20.396 14.8423 20.3605 14.0279C20.3541 13.8836 20.3142 13.6232 20.2408 13.2466C20.1166 12.6067 19.7881 12.0263 19.1967 11.8126C18.6525 11.6155 18.1061 11.6071 17.5576 11.7875C16.78 12.0431 16.4636 12.7323 16.3579 13.5537C16.2658 14.27 16.289 14.978 16.4277 15.6778C16.5265 16.1753 16.6599 16.4578 16.9816 16.7958Z" stroke="#011A35" stroke-width="0.346154"/>
<path d="M17.4933 19.5927C17.8138 19.9633 18.1528 20.2797 18.4314 20.6481C18.4362 20.6544 18.4397 20.6617 18.4419 20.6695C18.4441 20.6773 18.4448 20.6856 18.444 20.6937C18.4432 20.7018 18.4409 20.7097 18.4373 20.7169C18.4337 20.724 18.4288 20.7303 18.4229 20.7354C17.3364 21.6673 16.1453 22.3957 14.8497 22.9207C14.1775 23.1933 13.4523 23.3392 12.674 23.3583C12.4712 23.3631 12.2636 23.3235 12.0609 23.2904C10.8447 23.0899 9.95577 22.1134 9.85701 20.7627C9.82153 20.2741 9.82247 19.8064 9.85983 19.3596C9.86386 19.3126 9.86117 19.2742 9.85177 19.2446C9.84155 19.2114 9.83349 19.2121 9.82758 19.2468C9.80635 19.3754 9.79264 19.505 9.78646 19.6354C9.76147 20.1669 9.71954 20.7349 9.75099 21.2488C9.84169 22.7369 10.6052 24.1665 11.9375 24.712C12.595 24.9813 13.2493 25.0752 13.9479 25.0421C15.1097 24.9875 16.292 24.5939 17.3369 24.0515C18.2705 23.5663 19.1038 22.9767 19.9475 22.3302C19.9544 22.3249 19.9628 22.3224 19.9712 22.3232C19.9796 22.324 19.9875 22.3281 19.9935 22.3346L21.0102 23.4469C21.0306 23.4689 21.0444 23.4648 21.0517 23.4345L22.338 18.2015C22.3491 18.1568 22.334 18.1404 22.2929 18.1521C20.8989 18.5587 19.5085 18.9677 18.1218 19.379C17.9275 19.4367 17.7138 19.479 17.5111 19.5283C17.4705 19.538 17.4646 19.5595 17.4933 19.5927Z" stroke="#011A35" stroke-width="0.346154"/>
<path d="M21.4783 10.5672C21.4783 10.4048 21.4193 10.2491 21.3143 10.1344C21.2093 10.0196 21.0668 9.95508 20.9183 9.95508C20.7698 9.95508 20.6274 10.0196 20.5224 10.1344C20.4174 10.2491 20.3584 10.4048 20.3584 10.5672C20.3584 10.7295 20.4174 10.8852 20.5224 11C20.6274 11.1148 20.7698 11.1793 20.9183 11.1793C21.0668 11.1793 21.2093 11.1148 21.3143 11C21.4193 10.8852 21.4783 10.7295 21.4783 10.5672Z" stroke="#011A35" stroke-width="0.346154"/>
<path d="M13.8664 16.3485C13.9559 16.341 14.0429 16.3094 14.1223 16.2556C14.2017 16.2019 14.272 16.1269 14.3292 16.035C14.3864 15.9432 14.4294 15.8362 14.4557 15.7203C14.482 15.6043 14.4911 15.4816 14.4825 15.3593C14.4651 15.1121 14.3766 14.8811 14.2364 14.7171C14.0963 14.5531 13.916 14.4695 13.7352 14.4847C13.6457 14.4922 13.5587 14.5238 13.4793 14.5776C13.3999 14.6313 13.3296 14.7063 13.2724 14.7982C13.2152 14.89 13.1722 14.997 13.1459 15.1129C13.1196 15.2289 13.1105 15.3516 13.1191 15.4739C13.1365 15.7211 13.225 15.9521 13.3652 16.1161C13.5053 16.2801 13.6856 16.3637 13.8664 16.3485Z" stroke="#011A35" stroke-width="0.346154"/>
<path d="M18.0496 16.1568C18.3971 16.4269 18.7547 16.1158 18.8732 15.7443C18.927 15.5751 18.9591 15.4326 18.9696 15.3168C19.0142 14.8115 19.0131 14.2682 18.9663 13.6868C18.9313 13.2571 18.7978 12.7001 18.3193 12.6785C17.6981 12.6512 17.6848 13.7467 17.6768 14.1918C17.6675 14.7184 17.6187 15.8223 18.0496 16.1568Z" stroke="#011A35" stroke-width="0.346154"/>
<path d="M23.0234 17.3096C22.9085 17.3242 22.7899 17.4066 22.6916 17.4348C22.4798 17.4959 22.2672 17.5546 22.0538 17.611C21.8196 17.6727 21.5016 17.7886 21.217 17.8437C21.213 17.8444 21.2089 17.8438 21.2053 17.8419C21.2017 17.8399 21.1988 17.8368 21.1969 17.833C21.195 17.8292 21.1943 17.8248 21.1949 17.8206C21.1954 17.8163 21.1972 17.8124 21.2 17.8093C21.531 17.4295 21.8019 16.9967 22.0784 16.5702C23.2346 14.7858 24.4645 12.1149 23.9529 9.87185C23.7252 8.87459 23.035 8.08049 22.1002 7.8553C21.9333 7.81476 21.7668 7.7632 21.6015 7.74866C21.1748 7.71135 20.7506 7.73573 20.3289 7.82181C20.2966 7.82842 20.264 7.8249 20.2309 7.82534C20.2132 7.82534 20.2131 7.82313 20.2305 7.81873C21.1513 7.5743 22.072 7.57606 22.9927 7.82402C23.1107 7.85545 23.3088 7.93947 23.5869 8.07608C24.4927 8.52029 25.0768 9.27693 25.3856 10.2901C25.742 11.4578 25.6674 12.6768 25.3989 13.8767C25.0466 15.4522 24.3315 16.928 23.4986 18.2606C23.2555 18.6493 22.9496 19.0578 22.6823 19.4654C22.6622 19.4967 22.6251 19.5346 22.5969 19.5469C22.5662 19.5604 22.5555 19.5497 22.5646 19.5148C22.7253 18.9104 22.8761 18.3196 23.0169 17.7424C23.0462 17.6213 23.0643 17.4937 23.0713 17.3594C23.0717 17.3525 23.0706 17.3456 23.0683 17.3392C23.0659 17.3328 23.0624 17.327 23.0578 17.3222C23.0532 17.3175 23.0478 17.3139 23.0418 17.3117C23.0359 17.3096 23.0296 17.3088 23.0234 17.3096Z" fill="#011A35"/>
<path d="M22.0272 10.5673C22.0272 10.8887 21.9104 11.197 21.7025 11.4243C21.4946 11.6515 21.2127 11.7792 20.9186 11.7792C20.6246 11.7792 20.3427 11.6515 20.1348 11.4243C19.9269 11.197 19.8101 10.8887 19.8101 10.5673C19.8101 10.2459 19.9269 9.93768 20.1348 9.71042C20.3427 9.48315 20.6246 9.35547 20.9186 9.35547C21.2127 9.35547 21.4946 9.48315 21.7025 9.71042C21.9104 9.93768 22.0272 10.2459 22.0272 10.5673ZM21.4782 10.5673C21.4782 10.405 21.4192 10.2493 21.3142 10.1345C21.2092 10.0197 21.0667 9.95523 20.9182 9.95523C20.7697 9.95523 20.6273 10.0197 20.5223 10.1345C20.4173 10.2493 20.3583 10.405 20.3583 10.5673C20.3583 10.7297 20.4173 10.8854 20.5223 11.0002C20.6273 11.1149 20.7697 11.1794 20.9182 11.1794C21.0667 11.1794 21.2092 11.1149 21.3142 11.0002C21.4192 10.8854 21.4782 10.7297 21.4782 10.5673Z" fill="#011A35"/>
<path d="M10.2985 14.2795C11.1531 14.3831 11.2289 15.5971 10.9512 16.2396C10.7041 16.8112 10.284 17.1095 9.70836 17.2334C9.09481 17.3656 8.28211 17.3241 7.73266 16.9372C7.3759 16.6865 7.14289 16.2423 7.01027 15.8029C7.00489 15.7853 7.01054 15.7752 7.0272 15.7725L8.35548 15.5672C8.36266 15.566 8.36998 15.5679 8.37597 15.5725C8.38196 15.5771 8.38616 15.584 8.38773 15.5918C8.43812 15.8602 8.5256 16.1026 8.73845 16.2608C9.06054 16.5001 9.46729 16.3397 9.63902 15.9779C9.81639 15.6046 9.75875 15.0683 9.39594 14.8537C9.1843 14.7285 8.89889 14.7612 8.67314 14.84C8.6417 14.8512 8.62598 14.8387 8.62598 14.8026C8.62732 14.4694 8.65084 14.1382 8.69652 13.8088C8.6984 13.7947 8.70593 13.7873 8.7191 13.7864C8.861 13.7771 9.01902 13.7859 9.14237 13.7194C9.55396 13.4973 9.67852 12.8702 9.17664 12.6468C8.73442 12.4502 8.43127 12.8988 8.38975 13.3201C8.38936 13.3239 8.38827 13.3276 8.38654 13.3308C8.38482 13.3341 8.3825 13.337 8.37973 13.3392C8.37696 13.3415 8.3738 13.343 8.37046 13.3438C8.36712 13.3447 8.36367 13.3447 8.36032 13.3439C8.16279 13.3013 7.96795 13.2561 7.77579 13.2082C7.56214 13.1549 7.35856 13.1412 7.14531 13.124C7.13953 13.1235 7.13411 13.1208 7.13003 13.1163C7.12596 13.1119 7.12352 13.106 7.12314 13.0998C7.10903 12.8147 7.2723 12.5428 7.43798 12.318C7.98259 11.5799 9.13996 11.5429 9.9333 11.798C10.4461 11.9628 10.7527 12.3161 10.8532 12.8579C10.9032 13.128 10.8375 13.3638 10.7367 13.6079C10.6384 13.8459 10.511 13.9265 10.3191 14.0781C10.2659 14.1201 10.2504 14.1796 10.2727 14.2566C10.2768 14.2704 10.2854 14.278 10.2985 14.2795Z" fill="#011A35"/>
<path d="M12.4349 16.8191C11.9669 16.352 11.7984 15.8047 11.7134 15.104C11.6201 14.3346 11.7004 13.5798 11.9544 12.8398C12.1257 12.3409 12.6841 11.8923 13.1428 11.7676C13.6451 11.6314 14.0611 11.6019 14.5666 11.7539C15.0767 11.9076 15.4295 12.2648 15.6248 12.8257C15.6458 12.8859 15.6547 12.9379 15.6514 12.9817C15.6501 13.0014 15.6403 13.0113 15.622 13.0116C15.1407 13.0178 14.746 13.1474 14.328 13.1676C14.3132 13.1685 14.3045 13.161 14.3018 13.1452C14.2119 12.5798 13.6943 12.3956 13.346 12.8781C13.1819 13.1055 13.0674 13.7229 13.1098 14.0045C13.1108 14.0111 13.1134 14.0173 13.1173 14.0224C13.1213 14.0275 13.1264 14.0313 13.1322 14.0335C13.138 14.0357 13.1442 14.0361 13.1502 14.0347C13.1562 14.0333 13.1617 14.0302 13.1662 14.0256C13.6193 13.5697 14.1334 13.4482 14.7085 13.6612C15.6019 13.9922 15.8728 14.9462 15.7155 15.8902C15.6879 16.0561 15.6399 16.2049 15.5716 16.3366C15.1334 17.1835 14.2119 17.4259 13.3774 17.2466C13.0195 17.1699 12.7328 17.117 12.4349 16.8191ZM13.8663 16.3483C13.9558 16.3408 14.0428 16.3093 14.1222 16.2555C14.2016 16.2017 14.2719 16.1267 14.3291 16.0348C14.3863 15.943 14.4293 15.836 14.4556 15.7201C14.4819 15.6041 14.491 15.4815 14.4824 15.3591C14.465 15.1119 14.3765 14.8809 14.2363 14.7169C14.0962 14.5529 13.9159 14.4693 13.7351 14.4845C13.6456 14.492 13.5586 14.5236 13.4792 14.5774C13.3998 14.6312 13.3295 14.7061 13.2723 14.798C13.2151 14.8899 13.1721 14.9968 13.1458 15.1128C13.1195 15.2287 13.1104 15.3514 13.119 15.4738C13.1364 15.7209 13.2249 15.9519 13.3651 16.1159C13.5052 16.28 13.6855 16.3636 13.8663 16.3483Z" fill="#011A35"/>
<path d="M16.9813 16.7958C16.6596 16.4578 16.5262 16.1753 16.4274 15.6778C16.2888 14.978 16.2655 14.27 16.3577 13.5537C16.4633 12.7323 16.7798 12.0431 17.5574 11.7875C18.1059 11.6071 18.6523 11.6155 19.1965 11.8126C19.7879 12.0263 20.1164 12.6067 20.2406 13.2466C20.3139 13.6232 20.3538 13.8836 20.3603 14.0279C20.3958 14.8423 20.3208 15.7333 20.064 16.3014C19.8387 16.7989 19.4831 17.084 18.9804 17.2171C18.3415 17.3863 17.4864 17.3273 16.9813 16.7958ZM18.0496 16.1568C18.3971 16.4269 18.7547 16.1158 18.8732 15.7443C18.9269 15.5751 18.959 15.4326 18.9695 15.3169C19.0141 14.8116 19.0131 14.2682 18.9663 13.6868C18.9312 13.2572 18.7978 12.7001 18.3193 12.6785C17.6981 12.6512 17.6848 13.7467 17.6767 14.1918C17.6674 14.7184 17.6187 15.8223 18.0496 16.1568Z" fill="#011A35"/>
<path d="M17.4933 19.5929C17.4646 19.5597 17.4705 19.5383 17.5111 19.5286C17.7138 19.4792 17.9275 19.4369 18.1218 19.3792C19.5085 18.9679 20.8989 18.559 22.2929 18.1524C22.334 18.1406 22.3491 18.1571 22.338 18.2017L21.0517 23.4348C21.0444 23.465 21.0306 23.4691 21.0102 23.4471L19.9935 22.3348C19.9875 22.3283 19.9796 22.3243 19.9712 22.3235C19.9628 22.3227 19.9544 22.3251 19.9475 22.3304C19.1038 22.9769 18.2705 23.5665 17.3369 24.0517C16.292 24.5942 15.1097 24.9877 13.9479 25.0424C13.2493 25.0754 12.595 24.9815 11.9375 24.7123C10.6052 24.1667 9.84169 22.7372 9.75099 21.249C9.71954 20.7352 9.76147 20.1671 9.78646 19.6357C9.79264 19.5052 9.80635 19.3757 9.82758 19.247C9.83349 19.2123 9.84155 19.2116 9.85177 19.2448C9.86117 19.2745 9.86386 19.3128 9.85983 19.3598C9.82247 19.8067 9.82153 20.2744 9.85701 20.7629C9.95577 22.1136 10.8447 23.0902 12.0609 23.2907C12.2636 23.3237 12.4712 23.3634 12.674 23.3585C13.4523 23.3394 14.1775 23.1936 14.8497 22.9209C16.1453 22.3959 17.3364 21.6675 18.4229 20.7356C18.4288 20.7306 18.4337 20.7243 18.4373 20.7171C18.4409 20.7099 18.4432 20.7021 18.444 20.6939C18.4448 20.6858 18.4441 20.6776 18.4419 20.6697C18.4397 20.6619 18.4362 20.6546 18.4314 20.6484C18.1528 20.2799 17.8138 19.9635 17.4933 19.5929Z" fill="#011A35"/>
</g>
<defs>
<clipPath id="clip0_0_102">
<rect width="31" height="26" fill="white" transform="translate(1 3)"/>
</clipPath>
</defs>
</svg>
