<svg width="32" height="32" viewBox="0 0 32 32" fill="none" xmlns="http://www.w3.org/2000/svg">
<rect width="32" height="32" fill="#C9FA49"/>
<path d="M11.4075 13.975C11.369 13.5518 11.1978 13.2229 10.8939 12.9882C10.5938 12.7497 10.1649 12.6304 9.60707 12.6304C9.23775 12.6304 8.92998 12.6785 8.68377 12.7747C8.43756 12.8709 8.2529 13.0036 8.12979 13.1729C8.00669 13.3383 7.94321 13.5287 7.93936 13.7441C7.93167 13.9211 7.96629 14.0769 8.04324 14.2116C8.12402 14.3462 8.23944 14.4655 8.38947 14.5693C8.54335 14.6694 8.72801 14.7578 8.94345 14.8348C9.15888 14.9117 9.40125 14.979 9.67054 15.0368L10.6862 15.2676C11.2709 15.3945 11.7864 15.5638 12.2327 15.7754C12.6828 15.987 13.0598 16.239 13.3637 16.5313C13.6715 16.8237 13.9042 17.1603 14.062 17.5412C14.2197 17.9221 14.3005 18.3491 14.3043 18.8223C14.3005 19.5686 14.112 20.2091 13.7388 20.7439C13.3656 21.2786 12.829 21.6883 12.1288 21.973C11.4325 22.2577 10.5919 22.4 9.60707 22.4C8.61837 22.4 7.75663 22.2519 7.02184 21.9557C6.28705 21.6595 5.71576 21.2094 5.30797 20.6054C4.90018 20.0014 4.69052 19.2377 4.67898 18.3145H7.41424C7.43732 18.6953 7.53927 19.0127 7.72008 19.2666C7.90089 19.5205 8.14903 19.7129 8.46449 19.8437C8.7838 19.9745 9.15311 20.0399 9.57244 20.0399C9.95715 20.0399 10.2842 19.9879 10.5534 19.8841C10.8266 19.7802 11.0363 19.6359 11.1824 19.4513C11.3286 19.2666 11.4036 19.055 11.4075 18.8165C11.4036 18.5934 11.3344 18.4029 11.1998 18.2452C11.0651 18.0836 10.8574 17.9451 10.5765 17.8297C10.2995 17.7105 9.94561 17.6008 9.51474 17.5008L8.27983 17.2123C7.25651 16.9776 6.45055 16.5987 5.86195 16.0755C5.27335 15.5484 4.98097 14.8367 4.98482 13.9403C4.98097 13.2094 5.17717 12.5689 5.57342 12.0187C5.96967 11.4686 6.51787 11.0397 7.21804 10.7319C7.91821 10.4241 8.71647 10.2702 9.61284 10.2702C10.5284 10.2702 11.3229 10.426 11.9961 10.7377C12.6732 11.0454 13.1983 11.4782 13.5715 12.036C13.9446 12.5939 14.1351 13.2402 14.1428 13.975H11.4075ZM17.372 22.25V10.4318H22.2539C23.1387 10.4318 23.9024 10.6049 24.5448 10.9512C25.1911 11.2936 25.6893 11.7725 26.0394 12.388C26.3895 12.9997 26.5645 13.7114 26.5645 14.5232C26.5645 15.3387 26.3857 16.0524 26.0279 16.6641C25.6739 17.2719 25.1681 17.7432 24.5102 18.0779C23.8524 18.4126 23.0714 18.5799 22.1673 18.5799H19.1551V16.3294H21.6365C22.0673 16.3294 22.427 16.2544 22.7156 16.1043C23.0079 15.9543 23.2291 15.7446 23.3792 15.4753C23.5292 15.2022 23.6042 14.8848 23.6042 14.5232C23.6042 14.1577 23.5292 13.8422 23.3792 13.5768C23.2291 13.3075 23.0079 13.0998 22.7156 12.9536C22.4232 12.8074 22.0635 12.7343 21.6365 12.7343H20.2284V22.25H17.372Z" fill="black"/>
</svg>
